<svg width="90" height="90" viewBox="0 0 90 90" fill="none" xmlns="http://www.w3.org/2000/svg">
<g clip-path="url(#clip0_1864_3239)">
<path d="M45 90C69.8528 90 90 69.8528 90 45C90 20.1472 69.8528 0 45 0C20.1472 0 0 20.1472 0 45C0 69.8528 20.1472 90 45 90Z" fill="#262626"/>
<path d="M50.4656 69.6168C49.1305 65.7319 48.3739 64.7202 45.8372 64.7202C43.3333 64.7202 42.4643 66.0047 41.2114 69.6168C36.9373 70.031 33.9385 71.0019 33.9385 72.1332C33.9385 73.6418 39.2657 74.8638 45.8379 74.8638C52.4101 74.8638 57.7386 73.6418 57.7386 72.1332C57.7379 71.0019 54.7384 70.0316 50.4656 69.6168Z" fill="#606060"/>
<path d="M75.9522 62.5458C75.9522 64.5336 74.341 66.1454 72.3532 66.1454C72.3532 66.1454 57.5424 68.2318 45.0566 68.2318C35.4981 68.2318 19.2556 66.1454 19.2556 66.1454C17.2671 66.1454 15.6553 64.5342 15.6553 62.5458V26.9975C15.6553 25.0097 17.2664 23.3978 19.2556 23.3978H72.3532C74.3404 23.3978 75.9522 25.009 75.9522 26.9975V62.5458Z" fill="#454D4D"/>
<path d="M73.3942 25.9963H18.0879V63.4029H73.3942V25.9963Z" fill="#5DC0C1"/>
<path d="M34.6123 48.4376C36.2039 48.4376 37.4941 47.1474 37.4941 45.5558C37.4941 43.9642 36.2039 42.674 34.6123 42.674C33.0207 42.674 31.7305 43.9642 31.7305 45.5558C31.7305 47.1474 33.0207 48.4376 34.6123 48.4376Z" fill="#FDF2F7"/>
<path d="M49.1439 43.5319C50.7351 43.5319 52.025 42.2419 52.025 40.6507C52.025 39.0595 50.7351 37.7695 49.1439 37.7695C47.5526 37.7695 46.2627 39.0595 46.2627 40.6507C46.2627 42.2419 47.5526 43.5319 49.1439 43.5319Z" fill="#FDF2F7"/>
<path d="M63.4902 37.0345C65.0818 37.0345 66.3721 35.7443 66.3721 34.1527C66.3721 32.5611 65.0818 31.2709 63.4902 31.2709C61.8986 31.2709 60.6084 32.5611 60.6084 34.1527C60.6084 35.7443 61.8986 37.0345 63.4902 37.0345Z" fill="#FDF2F7"/>
<path d="M73.2614 28.5509C70.7602 27.91 68.9183 29.8702 66.5853 32.3484C66.4171 32.5272 66.2448 32.7099 66.0706 32.8933C66.258 33.2753 66.3724 33.6993 66.3724 34.1522C66.3724 35.743 65.0807 37.0333 63.4899 37.0333C62.9607 37.0333 62.4716 36.8808 62.0457 36.6324C59.5563 38.5347 56.4069 40.1111 52.0224 40.5114C52.0197 40.5114 52.0145 40.5127 52.0118 40.5127C52.0132 40.5594 52.025 40.6034 52.025 40.6508C52.025 42.2422 50.7346 43.5326 49.1438 43.5326C47.8804 43.5326 46.8188 42.7142 46.4296 41.5835C44.7902 41.9733 43.1619 42.3947 41.9064 42.7208L40.7895 43.0087C39.4288 43.3558 38.2022 43.6976 37.0781 44.0828C37.3378 44.5147 37.4955 45.0149 37.4955 45.5559C37.4955 47.1467 36.2052 48.4371 34.6144 48.4371C33.4384 48.4371 32.4306 47.7311 31.9823 46.7221C29.982 48.2846 28.2039 50.5242 26.2483 54.0443C24.8678 56.5271 23.4046 57.7846 21.8959 57.7846C21.865 57.7846 21.8355 57.7846 21.8059 57.7833C19.9239 57.7215 18.5875 55.7278 18.0879 54.8489V63.4037H73.3942V28.5897L73.2614 28.5509Z" fill="#357180"/>
<path d="M18.0811 53.5723V54.8581C18.5806 55.7376 19.9506 57.7399 21.8339 57.8017C21.8635 57.803 21.893 57.8037 21.9226 57.8037C23.4312 57.8037 24.8945 56.5455 26.2749 54.0633C30.5694 46.3355 34.0041 44.7658 40.8175 43.0271L41.9331 42.7391C44.7958 41.997 49.5899 40.7552 52.0504 40.5298C59.5751 39.8422 63.4771 35.6976 66.612 32.3674C68.9463 29.8886 70.8848 27.9316 73.386 28.5719L73.3821 27.9993C70.5509 27.2756 68.6524 29.3476 66.1874 31.9665C63.1189 35.2243 59.3003 39.2795 51.9965 39.9467C49.4893 40.1768 44.6683 41.4257 41.7871 42.1732L40.6729 42.4604C33.6899 44.2425 30.1691 45.8517 25.7642 53.7787C24.4725 56.1024 23.1552 57.2646 21.8536 57.2173C19.8454 57.1522 18.4426 54.2388 18.4281 54.2093L18.0811 53.5723Z" fill="#FDF7FA"/>
<path d="M18.0876 54.8488L18.085 54.8429L18.0876 54.8488Z" fill="#FDF7FA"/>
</g>
<defs>
<clipPath id="clip0_1864_3239">
<rect width="90" height="90.0007" fill="white"/>
</clipPath>
</defs>
</svg>
