<svg width="90" height="90" viewBox="0 0 90 90" fill="none" xmlns="http://www.w3.org/2000/svg">
<g clip-path="url(#clip0_1864_3356)">
<path d="M45 90C69.8528 90 90 69.8528 90 45C90 20.1472 69.8528 0 45 0C20.1472 0 0 20.1472 0 45C0 69.8528 20.1472 90 45 90Z" fill="#262626"/>
<path d="M22.7999 59.0525C22.7999 61.5465 20.7792 63.5672 18.2859 63.5672C15.7912 63.5672 13.7705 61.5465 13.7705 59.0525V49.0463C13.7705 46.5523 15.7912 44.5316 18.2859 44.5316C20.7792 44.5316 22.7999 46.5523 22.7999 49.0463V59.0525Z" fill="#5E5F5E"/>
<path d="M76.9796 59.0525C76.9796 61.5465 74.9589 63.5672 72.4655 63.5672C69.9709 63.5672 67.9502 61.5465 67.9502 59.0525V49.0463C67.9502 46.5523 69.9709 44.5316 72.4655 44.5316C74.9589 44.5316 76.9796 46.5523 76.9796 49.0463V59.0525Z" fill="#5E5F5E"/>
<path d="M70.9974 34.4517C68.1379 26.8587 65.0155 16.7913 60.0176 16.7913C60.0176 16.7913 51.1033 16.0597 45.7498 16.0597C40.704 16.0597 31.4688 16.7913 31.4688 16.7913C26.1088 16.7913 23.1053 26.9159 20.357 34.5083C16.1972 36.3061 12.307 41.3585 13.2825 45.2632C14.258 49.1679 18.5275 61.3703 24.9965 61.3703H66.4853C72.955 61.3703 77.9567 48.1917 78.2006 45.2632C78.4445 42.3347 75.2274 36.2194 70.9974 34.4517Z" fill="#D32027"/>
<path d="M33.9422 19.5581C33.9422 19.5581 41.5734 18.9099 45.7411 18.9099C50.165 18.9099 57.5313 19.5581 57.5313 19.5581C61.7232 19.5581 66.4187 28.5874 69.0198 35.3069C70.2636 38.5233 66.942 51.2733 61.9027 51.2733H29.5807C24.5415 51.2733 21.1752 38.5161 22.3755 35.2911C24.8767 28.571 29.4598 19.5581 33.9422 19.5581Z" fill="#C82127"/>
<path d="M29.5807 51.2733C24.5415 51.2733 21.1752 38.5161 22.3755 35.2911C22.3755 35.2911 23.6067 41.3631 25.16 44.5322C27.1952 48.6814 29.5807 51.2733 29.5807 51.2733Z" fill="#A81E22"/>
<path d="M61.8311 51.2733C66.869 51.2733 70.2353 38.5161 69.035 35.2911C69.035 35.2911 67.8051 41.3631 66.2504 44.5322C64.2159 48.6814 61.8311 51.2733 61.8311 51.2733Z" fill="#A81E22"/>
<path d="M24.2652 49.1685C24.2652 50.9881 20.4716 51.2432 18.6521 51.2432C16.8312 51.2432 15.3574 49.7674 15.3574 47.9478C15.3574 46.129 16.8312 44.6532 18.6521 44.6532C20.4716 44.6539 24.2652 47.3497 24.2652 49.1685Z" fill="#C82127"/>
<path d="M23.4109 48.9339C23.4109 50.4037 20.345 50.6121 18.8739 50.6121C17.4027 50.6121 16.2109 49.4183 16.2109 47.9478C16.2109 46.4773 17.4027 45.2849 18.8739 45.2849C20.345 45.2849 23.4109 47.464 23.4109 48.9339Z" fill="white"/>
<path d="M62.7441 56.3678C62.7441 58.1834 61.2729 59.6552 59.4573 59.6552H32.026C30.2104 59.6552 28.7393 58.1834 28.7393 56.3678C28.7393 54.5529 30.2104 53.0811 32.026 53.0811H59.4573C61.2729 53.0811 62.7441 54.5529 62.7441 56.3678Z" fill="#A81E22"/>
<path d="M67.3408 49.1685C67.3408 50.9881 71.1337 51.2432 72.9539 51.2432C74.7735 51.2432 76.2486 49.7674 76.2486 47.9478C76.2486 46.129 74.7735 44.6532 72.9539 44.6532C71.1337 44.6539 67.3408 47.3497 67.3408 49.1685Z" fill="#C82127"/>
<path d="M68.001 48.9871C68.001 50.5371 71.2325 50.754 72.7819 50.754C74.3326 50.754 75.5888 49.4978 75.5888 47.9472C75.5888 46.3984 74.3332 45.1403 72.7819 45.1403C71.2325 45.1416 68.001 47.4384 68.001 48.9871Z" fill="white"/>
<path d="M19.4642 50.3064C20.7222 50.3064 21.742 49.2867 21.742 48.0287C21.742 46.7708 20.7222 45.751 19.4642 45.751C18.2063 45.751 17.1865 46.7708 17.1865 48.0287C17.1865 49.2867 18.2063 50.3064 19.4642 50.3064Z" fill="#F9F298"/>
<path d="M72.181 50.3064C73.439 50.3064 74.4588 49.2867 74.4588 48.0287C74.4588 46.7708 73.439 45.751 72.181 45.751C70.9231 45.751 69.9033 46.7708 69.9033 48.0287C69.9033 49.2867 70.9231 50.3064 72.181 50.3064Z" fill="#F9F298"/>
<path opacity="0.8" d="M32.2936 19.1729C32.2936 19.1729 40.9969 18.5753 45.7515 18.5753C50.7974 18.5753 59.1963 19.1729 59.1963 19.1729C63.9773 19.1729 65.313 26.4885 67.7754 32.6985C68.9541 35.6704 22.4813 35.6619 23.6172 32.6814C25.9856 26.4741 27.1846 19.1729 32.2936 19.1729Z" fill="#B1D4D7"/>
<path d="M32.2932 19.1729C32.2932 19.1729 40.9965 18.5753 45.7511 18.5753C47.8041 18.5753 50.4105 18.6739 52.7828 18.7922L40.447 34.8665C31.131 34.6679 23.1376 33.9403 23.6161 32.6814C25.9852 26.4741 27.1842 19.1729 32.2932 19.1729Z" fill="#D3E0E1"/>
<path d="M57.0935 55.2602H34.0632C33.818 55.2602 33.6201 55.0623 33.6201 54.8178C33.6201 54.5726 33.818 54.3754 34.0632 54.3754H57.0935C57.3387 54.3754 57.5365 54.5726 57.5365 54.8178C57.5365 55.063 57.3393 55.2602 57.0935 55.2602Z" fill="#8D191C"/>
<path d="M57.0935 56.8109H34.0632C33.818 56.8109 33.6201 56.613 33.6201 56.3678C33.6201 56.1239 33.818 55.9254 34.0632 55.9254H57.0935C57.3387 55.9254 57.5365 56.1239 57.5365 56.3678C57.5365 56.613 57.3393 56.8109 57.0935 56.8109Z" fill="#8D191C"/>
<path d="M57.0935 58.3603H34.0632C33.818 58.3603 33.6201 58.1631 33.6201 57.9179C33.6201 57.674 33.818 57.4755 34.0632 57.4755H57.0935C57.3387 57.4755 57.5365 57.674 57.5365 57.9179C57.5365 58.1631 57.3393 58.3603 57.0935 58.3603Z" fill="#8D191C"/>
<path d="M50.2374 47.0894C48.4093 47.4108 46.9881 48.9162 46.9881 48.9162V48.9142C46.9815 48.9162 46.9789 48.9208 46.9729 48.924C46.4635 49.21 45.8646 49.1107 45.6339 48.7025C45.4052 48.2936 45.6326 47.7303 46.1421 47.4443C47.9084 46.4504 50.2374 47.0894 50.2374 47.0894Z" fill="#F1E7A4"/>
<path d="M49.4993 47.9946C47.992 48.1076 46.7148 49.21 46.7148 49.21C46.7108 49.212 46.7082 49.2146 46.7029 49.2159C46.2664 49.4066 45.7885 49.279 45.636 48.928C45.4835 48.5776 45.713 48.1412 46.1494 47.9492C47.6633 47.2879 49.4993 47.9946 49.4993 47.9946Z" fill="#F1E7A4"/>
<path d="M48.5864 48.6355C47.4591 48.5842 46.4152 49.2876 46.4152 49.2876L46.4139 49.2856C46.4113 49.2863 46.4073 49.2876 46.4047 49.2883C46.0642 49.3902 45.7217 49.2528 45.6408 48.9787C45.5587 48.7059 45.769 48.4028 46.1095 48.2996C47.2895 47.9473 48.5864 48.6355 48.5864 48.6355Z" fill="#F1E7A4"/>
<path d="M40.9482 47.0894C42.7763 47.4108 44.1975 48.9162 44.1975 48.9162V48.9142C44.2028 48.9162 44.2067 48.9208 44.2113 48.924C44.7208 49.21 45.3209 49.1107 45.5504 48.7025C45.7804 48.2936 45.553 47.7303 45.0435 47.4443C43.2772 46.4504 40.9482 47.0894 40.9482 47.0894Z" fill="#F1E7A4"/>
<path d="M41.6855 47.9946C43.1942 48.1076 44.4701 49.21 44.4701 49.21C44.474 49.212 44.478 49.2146 44.4819 49.2159C44.9197 49.4066 45.3963 49.279 45.5501 48.928C45.7026 48.5776 45.4732 48.1412 45.0367 47.9492C43.5228 47.2879 41.6855 47.9946 41.6855 47.9946Z" fill="#F1E7A4"/>
<path d="M42.5996 48.6355C43.7257 48.5842 44.7695 49.2876 44.7695 49.2876L44.7708 49.2856C44.7735 49.2863 44.7774 49.2876 44.7814 49.2883C45.1219 49.3902 45.463 49.2528 45.5439 48.9787C45.6274 48.7059 45.417 48.4028 45.0765 48.2996C43.8959 47.9473 42.5996 48.6355 42.5996 48.6355Z" fill="#F1E7A4"/>
<path d="M45.4889 49.7516C46.2368 49.7516 46.8431 49.1454 46.8431 48.3975C46.8431 47.6496 46.2368 47.0433 45.4889 47.0433C44.741 47.0433 44.1348 47.6496 44.1348 48.3975C44.1348 49.1454 44.741 49.7516 45.4889 49.7516Z" fill="#A69C60"/>
<path d="M45.4883 49.0391C45.8426 49.0391 46.1298 48.7519 46.1298 48.3976C46.1298 48.0432 45.8426 47.756 45.4883 47.756C45.1339 47.756 44.8467 48.0432 44.8467 48.3976C44.8467 48.7519 45.1339 49.0391 45.4883 49.0391Z" fill="#FAF3D1"/>
</g>
<defs>
<clipPath id="clip0_1864_3356">
<rect width="90.0007" height="90" fill="white"/>
</clipPath>
</defs>
</svg>
