<svg width="90" height="90" viewBox="0 0 90 90" fill="none" xmlns="http://www.w3.org/2000/svg">
<g clip-path="url(#clip0_1864_3192)">
<path d="M0 44.9999C0 20.1481 20.1475 0.000610352 45.0007 0.000610352C69.8525 0.000610352 90 20.1481 90 44.9999C90 69.8545 69.8525 90.0006 45.0007 90.0006C20.1475 90.0006 0 69.8545 0 44.9999Z" fill="#262626"/>
<path d="M32.5182 25.0149L24.9416 51.454L24.8838 53.1408L41.2603 52.7378L41.1827 51.458L32.5182 25.0149Z" fill="#F7D98B"/>
<path d="M32.4734 24.8663L29.1768 36.4133H36.28L32.4734 24.8663Z" fill="#626463"/>
<path d="M40.0937 50.0638L37.7095 52.7392L37.6943 89.6466C38.8624 89.8524 40.045 90.0128 41.244 90.1206L41.2604 52.7379L40.0937 50.0638Z" fill="#E84849"/>
<path d="M32.2192 88.2965L32.2357 52.7366L29.7884 50.0638L27.5337 52.7379L27.5205 86.4618C29.0403 87.1625 30.6074 87.7791 32.2192 88.2965Z" fill="#E84849"/>
<path d="M27.5346 52.7379L25.5533 50.0625L24.8624 52.7366L24.8486 85.1149C25.7203 85.5947 26.613 86.0417 27.5214 86.4618L27.5346 52.7379Z" fill="#F06668"/>
<path d="M37.6941 89.6466L37.7092 52.7392L34.9694 50.0638L32.2362 52.7366L32.2197 88.2965C33.9952 88.8677 35.8233 89.3167 37.6941 89.6466Z" fill="#F06668"/>
<path d="M61.2301 43.7506C60.5084 51.1563 58.0361 49.415 55.4363 49.415C52.8864 49.415 50.5193 51.0715 49.6431 43.7519C48.7714 36.4646 55.4363 24.0006 55.4363 24.0006C55.4363 24.0006 61.9414 36.4554 61.2301 43.7506Z" fill="#276D69"/>
<path d="M55.4353 49.415C52.8854 49.415 50.5183 51.0715 49.6421 43.7519C48.7704 36.4646 55.4353 24.0006 55.4353 24.0006V49.415Z" fill="#355957"/>
<path d="M51.853 49.4971L48.5702 86.6293L48.3789 89.2522C48.4854 88.251 48.5702 87.3163 48.5702 86.845L51.853 49.5274C51.853 48.9226 53.7632 48.6584 55.6761 48.6761C55.6761 48.6761 55.6761 80.5509 55.6748 88.913C58.1306 88.2661 60.4971 87.3978 62.7544 86.3362L59.4986 49.4965C59.4986 48.4408 51.853 48.2942 51.853 49.4971Z" fill="#E79E2D"/>
<path d="M48.3792 89.2528C48.347 89.5519 48.3135 89.8563 48.2793 90.1567C48.2911 90.1553 48.3023 90.1553 48.3141 90.154L48.3792 89.2528Z" fill="#D68A28"/>
<path d="M55.6751 88.9136C55.6764 80.5515 55.6764 48.6767 55.6764 48.6767C53.7635 48.659 51.8533 48.9232 51.8533 49.528L48.5705 86.8456C48.5705 87.3169 48.4857 88.2517 48.3792 89.2528L48.3135 90.154C50.8364 89.9548 53.2988 89.5414 55.6751 88.9136Z" fill="#D68A28"/>
<path d="M52.06 49.4931L49.2676 79.436L62.3159 79.505L59.7043 49.4931C59.7043 48.4907 52.06 48.3533 52.06 49.4931Z" fill="#CDCCCB"/>
<path d="M51.8536 49.4807L49.2676 79.436L55.682 79.4222C55.682 79.4222 55.9403 48.6781 55.6767 48.6781C53.7665 48.6781 51.8536 48.9095 51.8536 49.4807Z" fill="#B1B1B2"/>
<path d="M51.3829 55.738L49.4443 77.4949L62.1739 77.6723L60.234 55.8438C60.234 55.0819 51.3842 54.8703 51.3829 55.738Z" fill="#BFBEBE"/>
<path d="M51.8529 49.4807L49.4082 77.6362L55.699 77.5567C55.699 77.5567 55.8712 48.6781 55.676 48.6781C53.7658 48.6781 51.8529 48.9095 51.8529 49.4807Z" fill="#AAAAAA"/>
</g>
<defs>
<clipPath id="clip0_1864_3192">
<rect width="89.9993" height="90" fill="white" transform="translate(0 0.000610352)"/>
</clipPath>
</defs>
</svg>
