<svg width="90" height="90" viewBox="0 0 90 90" fill="none" xmlns="http://www.w3.org/2000/svg">
<g clip-path="url(#clip0_1864_3416)">
<path d="M45 90C69.8528 90 90 69.8528 90 45C90 20.1472 69.8528 0 45 0C20.1472 0 0 20.1472 0 45C0 69.8528 20.1472 90 45 90Z" fill="#262626"/>
<path d="M25.8506 56.1959V60.5318C25.8506 60.8736 26.2279 61.149 26.6039 61.149H52.5527C53.0523 61.149 53.3678 60.8729 53.3678 60.5318V56.1959H25.8506Z" fill="#FF5368"/>
<path d="M51.3241 34.3634H51.071H28.1999H27.9469C26.7886 34.3634 25.8506 35.3021 25.8506 36.4597V52.8769C25.8506 54.0339 26.7893 54.9732 27.9469 54.9732H28.3156H50.9566H51.3241C52.4823 54.9732 53.4204 54.0332 53.4204 52.8769V36.4597C53.421 35.3021 52.4823 34.3634 51.3241 34.3634Z" fill="#FF5368"/>
<path d="M53.5078 52.5318L27.9469 52.5305C26.7886 52.5305 25.8506 52.7336 25.8506 52.9828V57.3226L51.071 57.2338L53.3836 57.107L53.5078 52.5318Z" fill="#B5334C"/>
<path d="M19.4004 51.3092L26.2283 52.9065L28.3581 49.5554C28.3581 49.5554 30.5805 47.2685 29.4545 44.8258C28.3258 42.3824 25.8825 42.2891 25.8825 42.2891L19.6508 46.644L19.4004 51.3092Z" fill="#C5324F"/>
<path d="M53.5061 52.5305V49.5553H28.358L26.2275 52.9065L53.5061 52.5305Z" fill="#C5324F"/>
<path d="M26.2896 49.4633C26.2896 47.3132 24.5226 45.5692 22.3429 45.5692C20.1644 45.5692 18.3975 47.3125 18.3975 49.4633C18.3975 51.1389 19.4696 52.5627 20.9716 53.1149V62.7181C20.9716 64.1866 26.2896 64.1866 26.2896 62.7181V49.7453C26.2896 49.7131 26.2804 49.6822 26.2804 49.65C26.283 49.5889 26.2896 49.5258 26.2896 49.4633Z" fill="#FF5368"/>
<path d="M59.9277 51.3092L53.0998 52.9065L50.97 49.5554C50.97 49.5554 48.7462 47.2685 49.8736 44.8258C51.0023 42.3824 53.4443 42.2891 53.4443 42.2891L59.6773 46.644L59.9277 51.3092Z" fill="#C5324F"/>
<path d="M53.0381 49.4633C53.0381 47.3132 54.805 45.5692 56.9835 45.5692C59.1632 45.5692 60.9302 47.3125 60.9302 49.4633C60.9302 51.1389 59.8581 52.5627 58.3547 53.1149V62.7181C58.3547 64.1866 53.0381 64.1866 53.0381 62.7181V49.7453C53.0381 49.7131 53.0473 49.6822 53.0473 49.65C53.044 49.5889 53.0381 49.5258 53.0381 49.4633Z" fill="#FF5368"/>
<path d="M72.6918 62.8002L67.1451 59.829C67.0695 59.7317 66.9512 59.6725 66.8256 59.6712C66.7047 59.6686 66.5817 59.7251 66.5048 59.8237L60.6735 62.8298C60.5749 62.9534 60.5539 63.1223 60.6209 63.2636C60.6899 63.4076 60.8339 63.497 60.991 63.497H72.3986C72.3999 63.497 72.4025 63.497 72.4025 63.497C72.63 63.497 72.8121 63.3149 72.8121 63.0875C72.8114 62.9757 72.7647 62.8732 72.6918 62.8002Z" fill="#6A7872"/>
<path d="M66.8982 62.0206C66.4834 62.0206 66.1469 61.684 66.1469 61.2679V28.5077C66.1521 28.4091 66.4256 24.6392 64.048 22.0637C62.5275 20.4164 60.2307 19.5823 57.2201 19.5823C56.8053 19.5823 56.4688 19.2457 56.4688 18.8296C56.4688 18.4135 56.8053 18.0782 57.2201 18.0782C60.6738 18.0782 63.3466 19.0794 65.1635 21.0567C67.9855 24.1265 67.6621 28.39 67.6476 28.5715L67.6502 61.2679C67.6502 61.684 67.3137 62.0206 66.8982 62.0206Z" fill="#6A7872"/>
<path d="M66.8986 48.8546C66.1794 48.8546 65.5957 49.4377 65.5957 50.1575V60.5942C65.6075 60.7664 68.2238 60.7973 68.1981 60.4851L68.2021 50.1575C68.2014 49.4377 67.6197 48.8546 66.8986 48.8546Z" fill="#6A7872"/>
<path d="M66.8824 62.4584C67.2716 62.4584 67.5871 62.1429 67.5871 61.7537C67.5871 61.3646 67.2716 61.0491 66.8824 61.0491C66.4932 61.0491 66.1777 61.3646 66.1777 61.7537C66.1777 62.1429 66.4932 62.4584 66.8824 62.4584Z" fill="#9DC3C5"/>
<path d="M66.883 62.2178C67.1393 62.2178 67.3471 62.0101 67.3471 61.7538C67.3471 61.4975 67.1393 61.2897 66.883 61.2897C66.6267 61.2897 66.4189 61.4975 66.4189 61.7538C66.4189 62.0101 66.6267 62.2178 66.883 62.2178Z" fill="#8FB5B6"/>
<path opacity="0.5" d="M51.5356 25.9244C52.4958 25.9244 53.2742 25.146 53.2742 24.1857C53.2742 23.2255 52.4958 22.447 51.5356 22.447C50.5753 22.447 49.7969 23.2255 49.7969 24.1857C49.7969 25.146 50.5753 25.9244 51.5356 25.9244Z" fill="#AED1D5"/>
<path d="M56.1053 27.9056L57.1952 18.9019C57.2103 18.7784 57.167 18.6541 57.0782 18.5654C56.9934 18.478 56.8652 18.4319 56.743 18.4471L47.5263 19.487C47.3699 19.5047 47.2364 19.6125 47.1845 19.7604C47.1332 19.911 47.1713 20.0753 47.2857 20.1864L55.4066 28.1955C55.4079 28.1968 55.4092 28.1981 55.4092 28.1981C55.5709 28.3572 55.8293 28.3546 55.9883 28.1942C56.0652 28.1133 56.1073 28.0082 56.1053 27.9056Z" fill="#AED1D5"/>
<path d="M56.9384 20.1772C57.6649 20.1772 58.2538 19.5883 58.2538 18.8619C58.2538 18.1354 57.6649 17.5465 56.9384 17.5465C56.212 17.5465 55.623 18.1354 55.623 18.8619C55.623 19.5883 56.212 20.1772 56.9384 20.1772Z" fill="#AED1D5"/>
</g>
<defs>
<clipPath id="clip0_1864_3416">
<rect width="90" height="90" fill="white"/>
</clipPath>
</defs>
</svg>
