<svg width="90" height="90" viewBox="0 0 90 90" fill="none" xmlns="http://www.w3.org/2000/svg">
<path d="M44.9999 86.6318C67.9925 86.6318 86.6317 67.9926 86.6317 45C86.6317 22.0075 67.9925 3.36829 44.9999 3.36829C22.0073 3.36829 3.36816 22.0075 3.36816 45C3.36816 67.9926 22.0073 86.6318 44.9999 86.6318Z" fill="#262626"/>
<path d="M66.7711 26.3899C61.5162 20.2477 53.7155 16.3516 44.9991 16.3516C29.1781 16.3516 16.3506 29.1777 16.3506 45.0001C16.3506 53.9696 20.4728 61.9714 26.9247 67.2243C31.8548 71.24 38.1443 73.6499 44.9991 73.6499C60.8227 73.6499 73.6489 60.8237 73.6489 45.0001C73.6489 37.8935 71.0557 31.3976 66.7711 26.3899Z" fill="#EA6A25"/>
<path d="M58.2052 58.427C67.2003 49.4305 70.1439 36.8745 66.7711 26.3905C61.5162 20.2483 53.7155 16.3522 44.9991 16.3522C29.1781 16.3522 16.3506 29.1783 16.3506 45.0007C16.3506 53.9702 20.4728 61.972 26.9247 67.2249C37.2509 70.2218 49.4257 67.2072 58.2052 58.427Z" fill="#F37C2A"/>
<path d="M73.5501 47.2574C73.5849 46.8262 73.6092 46.3936 73.6243 45.9565C71.9678 44.7404 69.3168 43.6098 66.2141 42.5889C66.5454 39.7261 66.5079 37.1454 66.2233 34.8394L71.2816 33.576C71.1376 33.2434 70.9917 32.9121 70.8346 32.586L66.0727 33.7765C65.3733 29.4577 63.822 26.171 62.3364 23.8801C61.3583 22.3689 60.34 21.1646 59.4388 20.2404C58.3824 19.6232 57.286 19.0644 56.1494 18.5832L56.0456 18.7502C56.0738 18.768 58.9405 20.5875 61.4713 24.5086C62.8846 26.7028 64.3636 29.8561 65.0262 34.0066C57.8467 35.0248 45.244 23.7138 45.1224 23.6034C41.4748 20.1911 37.5708 18.6884 35.2221 18.0455C34.6364 18.2572 34.0626 18.4925 33.4966 18.7417C35.0979 19.0447 39.9892 20.2641 44.3994 24.3896C44.9127 24.8543 56.3729 35.1458 64.0981 35.1458C64.4668 35.1458 64.8238 35.1135 65.1742 35.0649C65.4338 37.2118 65.468 39.6072 65.1781 42.2569C55.1332 39.1266 41.225 37.1112 40.3724 36.9903C25.6873 35.2483 19.3696 37.9046 16.8289 39.7787C16.729 40.3178 16.6455 40.862 16.5771 41.4103C17.8715 40.016 23.1671 36.0246 40.2324 38.0479C40.4402 38.0775 54.9767 40.183 65.0539 43.3199L65.0499 43.3672C65.0473 43.4106 64.8691 46.5665 63.6853 50.8623C60.2342 49.3293 56.1448 50.55 55.6623 50.7058C54.0821 51.0154 39.8052 56.3406 38.1644 56.9546L38.1335 56.9664C31.0835 60.1019 22.3677 60.1532 20.6829 60.1308C20.9091 60.4944 21.1424 60.8526 21.385 61.203C24.1504 61.1938 31.9374 60.8848 38.5529 57.9511C45.0403 55.5248 54.9971 51.8785 55.8701 51.7523L55.9627 51.7319C56.0101 51.7168 60.1428 50.3877 63.3862 51.9002C62.9536 53.3359 62.4153 54.8675 61.7323 56.4425C59.1502 62.3987 54.0163 70.0377 44.1036 73.6104C44.4013 73.6196 44.6978 73.6334 44.9982 73.6334C45.6838 73.6334 46.3615 73.5999 47.0347 73.5539C55.6341 69.548 60.2776 62.4842 62.7137 56.8658C63.3776 55.3342 63.9061 53.8499 64.338 52.4544C64.5115 52.5779 64.6844 52.7022 64.8475 52.8488C65.1045 53.1387 68.3485 56.9493 68.0993 61.9261C68.4681 61.4239 68.8185 60.9065 69.1544 60.38C68.7784 55.6129 65.7664 52.2696 65.6185 52.1106L65.5824 52.0744C65.2872 51.8088 64.9737 51.5867 64.6555 51.3822C65.7559 47.4842 66.0392 44.4906 66.101 43.6545C69.4364 44.7535 72.171 45.9683 73.5501 47.2574Z" fill="#3A3A39"/>
</svg>
