<svg width="90" height="90" viewBox="0 0 90 90" fill="none" xmlns="http://www.w3.org/2000/svg">
<g clip-path="url(#clip0_1864_3275)">
<path d="M45 90C69.8528 90 90 69.8528 90 45C90 20.1472 69.8528 0 45 0C20.1472 0 0 20.1472 0 45C0 69.8528 20.1472 90 45 90Z" fill="#262626"/>
<path d="M5.31641 23.4196L9.30583 23.6096V20.0287H7.32424C6.60908 21.1278 5.93578 22.2562 5.31641 23.4196Z" fill="#357180"/>
<path d="M15.1221 23.603L31.7892 23.7458V20.0278H15.1221V23.603Z" fill="#357180"/>
<path d="M63.5616 20.0278H44.0664V23.7451H61.1132V86.9647C62.4406 86.4484 63.7361 85.8728 64.9997 85.2379V21.4748C64.9997 20.6784 64.3562 20.0278 63.5616 20.0278Z" fill="#357180"/>
<path d="M12.1495 23.7458L15.123 23.603V20.0278H9.30664V23.6087L12.1495 23.7458Z" fill="#27636D"/>
<path d="M9.41093 23.7458H9.30664V72.3184C9.34141 72.3634 9.37688 72.4077 9.41093 72.4527V23.7458Z" fill="#E7E7D6"/>
<path d="M40.7534 63.9333L39.1308 60.6202L37.4919 60.6738L35.543 64.1004L40.7534 63.9333Z" fill="#E7E7D6"/>
<path d="M31.8398 70.6123L43.8351 70.2273L42.3012 67.0942L33.6845 67.3706L31.8398 70.6123Z" fill="#E7E7D6"/>
<path d="M5.31722 23.4194C5.25905 23.5266 5.20725 23.6373 5.1512 23.7458C3.82873 26.2761 2.73683 28.9443 1.90461 31.7303L1.08303 34.9148C0.839677 36.0154 0.632508 37.1302 0.470746 38.26L0.133741 41.461C0.0578267 42.5101 0.00745366 43.5671 0.00390625 44.6355L0.115295 47.8507C0.191209 48.9877 0.305436 50.1146 0.462942 51.2266L1.0433 54.4568C1.29942 55.6352 1.59599 56.8 1.94221 57.9427L3.06674 61.1887C3.51585 62.3492 4.00397 63.4904 4.54389 64.6003L6.3027 67.8669C7.21722 69.4138 8.22185 70.8979 9.30665 72.3177V23.7458V23.6094L5.31722 23.4194Z" fill="#E7E7D6"/>
<path d="M44.0671 23.568L31.7895 23.5987H15.123V78.6003C15.4544 78.8959 17.8375 80.8471 17.8375 80.8471C25.3708 86.5883 34.7552 89.9999 44.9327 89.9999C49.9118 89.9999 54.6966 89.1729 59.172 87.6675C59.8262 87.4468 60.4732 87.214 61.1132 86.9647V23.5673H44.0671V23.568Z" fill="#E7E7D6"/>
<path d="M12.1495 23.7457L9.30664 23.6093V23.7457H9.41094V72.4519C10.1992 73.476 11.0257 74.4673 11.8977 75.4186V25.3591H12.1488H12.5277V76.0835C13.3273 76.9219 14.1545 77.7325 15.0151 78.5067C15.0506 78.5388 15.0875 78.5681 15.1223 78.6002V23.7457V23.6029L12.1495 23.7457Z" fill="#E7E7D6"/>
<path d="M12.1496 25.3591H11.8984V75.4186C11.9807 75.5093 12.0666 75.5943 12.1496 75.6836C12.2752 75.8186 12.4015 75.9514 12.5285 76.0842V25.3591H12.1496Z" fill="#DCDDD8"/>
<path d="M8.44886 33.5459C8.44886 32.6589 7.76137 31.9183 6.91567 31.8904L1.90459 31.7297C1.59313 32.7746 1.32068 33.8373 1.08301 34.9142L6.91638 35.1014C7.76137 35.1292 8.44886 34.4329 8.44886 33.5459Z" fill="#B9B9BA"/>
<path d="M8.44866 40.1213C8.44866 39.2343 7.76117 38.4951 6.91547 38.4672L0.469817 38.2594C0.318697 39.3157 0.210146 40.3841 0.132812 41.4603L6.91547 41.6782C7.76117 41.706 8.44866 41.0083 8.44866 40.1213Z" fill="#B9B9BA"/>
<path d="M8.44852 46.5124C8.44852 45.6254 7.76103 44.8847 6.91533 44.8583L0.0035475 44.6355C0.00283801 44.6812 0 44.7248 0 44.7698C0 45.8075 0.0468257 46.8316 0.114936 47.8507L6.91533 48.07C7.76103 48.0971 8.44852 47.4001 8.44852 46.5124Z" fill="#B9B9BA"/>
<path d="M8.44883 53.087C8.44883 52.2014 7.76134 51.4622 6.91564 51.4344L0.462891 51.2266C0.618267 52.3171 0.813375 53.3927 1.04325 54.4568L6.91493 54.6453C7.76134 54.6725 8.44883 53.9754 8.44883 53.087Z" fill="#B9B9BA"/>
<path d="M8.44807 59.7567C8.44807 58.8697 7.76059 58.1306 6.91488 58.1027L1.94141 57.942C2.27415 59.044 2.65302 60.1238 3.06594 61.1879L6.91488 61.3122C7.76059 61.3401 8.44807 60.643 8.44807 59.7567Z" fill="#B9B9BA"/>
<path d="M8.44894 66.3308C8.44894 65.4466 7.76145 64.7046 6.91575 64.6768L4.54395 64.6003C5.08599 65.7173 5.67415 66.8057 6.30275 67.867L6.91575 67.8863C7.76145 67.9141 8.44894 67.2185 8.44894 66.3308Z" fill="#B9B9BA"/>
<path d="M17.6414 31.8904C16.7957 31.9182 16.1104 32.6588 16.1104 33.5458C16.1104 34.4328 16.7957 35.1291 17.6414 35.1013L31.7892 34.6464V31.4354L17.6414 31.8904Z" fill="#B9B9BA"/>
<path d="M53.9452 33.9351C54.7917 33.9058 55.4777 33.1666 55.4777 32.2796C55.4777 31.3912 54.7917 30.6949 53.9452 30.7227L44.0664 31.0405V34.2515L53.9452 33.9351Z" fill="#B9B9BA"/>
<path d="M53.9452 40.5104C54.7917 40.4826 55.4777 39.742 55.4777 38.855C55.4777 37.968 54.7917 37.2717 53.9452 37.2995L44.0664 37.6173V40.8283L53.9452 40.5104Z" fill="#B9B9BA"/>
<path d="M17.6414 38.4671C16.7957 38.495 16.1104 39.2342 16.1104 40.1212C16.1104 41.0082 16.7957 41.7059 17.6414 41.6781L31.7892 41.2231V38.0122L17.6414 38.4671Z" fill="#B9B9BA"/>
<path d="M17.6414 44.8583C16.7957 44.8848 16.1104 45.6254 16.1104 46.5124C16.1104 47.3994 16.7957 48.0971 17.6414 48.0693L31.7892 47.6129V44.402L17.6414 44.8583Z" fill="#B9B9BA"/>
<path d="M53.9452 46.9001C54.7917 46.8722 55.4777 46.1331 55.4777 45.2461C55.4777 44.3591 54.7917 43.6613 53.9452 43.6906L44.0664 44.007V47.2179L53.9452 46.9001Z" fill="#B9B9BA"/>
<path d="M53.9452 53.477C54.7917 53.4492 55.4777 52.7071 55.4777 51.8201C55.4777 50.9331 54.7917 50.2382 53.9452 50.2661L44.0664 50.5846V53.7955L53.9452 53.477Z" fill="#B9B9BA"/>
<path d="M17.6414 51.4338C16.7957 51.4617 16.1104 52.2008 16.1104 53.0864C16.1104 53.9748 16.7957 54.6726 17.6414 54.6448L31.7892 54.1898V50.9789L17.6414 51.4338Z" fill="#B9B9BA"/>
<path d="M53.9452 60.1445C54.7917 60.1167 55.4777 59.3746 55.4777 58.4905C55.4777 57.6035 54.7917 56.9072 53.9452 56.935L44.0664 57.2528V60.4609L53.9452 60.1445Z" fill="#B9B9BA"/>
<path d="M17.6414 58.1028C16.7957 58.1306 16.1104 58.8698 16.1104 59.7568C16.1104 60.6424 16.7957 61.3401 17.6414 61.3123L31.7892 60.8559V57.6478L17.6414 58.1028Z" fill="#B9B9BA"/>
<path d="M38.3868 59.0997L37.4922 60.6738L39.1311 60.6202L38.3868 59.0997Z" fill="#B9B9BA"/>
<path d="M53.9452 66.7186C54.7917 66.6908 55.4777 65.9516 55.4777 65.0646C55.4777 64.179 54.7917 63.4813 53.9452 63.5091L44.0664 63.8269V67.0364L53.9452 66.7186Z" fill="#B9B9BA"/>
<path d="M17.6414 64.6767C16.7957 64.7046 16.1104 65.4466 16.1104 66.3308C16.1104 67.2178 16.7957 67.9141 17.6414 67.8862L31.7892 67.4313V64.2218L17.6414 64.6767Z" fill="#B9B9BA"/>
<path d="M33.6846 67.3707L42.3012 67.0943L40.7539 63.9333L35.5434 64.1005L33.6846 67.3707Z" fill="#B9B9BA"/>
<path d="M43.8351 70.2273L31.8399 70.6123L31.7902 70.7015V70.6137L17.6424 71.0701C16.7967 71.0965 16.1113 71.8371 16.1113 72.7227C16.1113 73.6097 16.7967 74.3074 17.6424 74.2796L53.9466 73.1119C54.793 73.084 55.4791 72.342 55.4791 71.4564C55.4791 70.5708 54.793 69.8731 53.9466 69.9024L44.0678 70.2188V70.7015L43.8351 70.2273Z" fill="#B9B9BA"/>
<path d="M53.9457 79.6859C54.7921 79.6581 55.4781 78.9189 55.4781 78.0304C55.4781 77.1463 54.7921 76.4485 53.9457 76.4764L17.6414 77.6441C16.7957 77.6719 16.1104 78.414 16.1104 79.2981C16.1104 79.3595 16.1217 79.4167 16.1274 79.4766C16.6865 79.9466 17.2562 80.4044 17.8372 80.8479L53.9457 79.6859Z" fill="#B9B9BA"/>
<path d="M44.0676 20H31.79V20.0283H44.0676V20Z" fill="#BB5538"/>
<path d="M31.79 20.0278V70.6137L31.8397 70.6122L38.3868 59.0997L43.8349 70.2273L44.0669 70.2187V20.0278H31.79Z" fill="#BB5538"/>
<path d="M31.8397 70.6123L31.79 70.6137V70.7016L31.8397 70.6123Z" fill="#BB5538"/>
<path d="M44.067 70.7015V70.2188L43.835 70.2273L44.067 70.7015Z" fill="#BB5538"/>
</g>
<defs>
<clipPath id="clip0_1864_3275">
<rect width="90.0007" height="90" fill="white"/>
</clipPath>
</defs>
</svg>
