<svg width="90" height="90" viewBox="0 0 90 90" fill="none" xmlns="http://www.w3.org/2000/svg">
<g clip-path="url(#clip0_1864_3450)">
<path d="M45 90C69.8528 90 90 69.8528 90 45C90 20.1472 69.8528 0 45 0C20.1472 0 0 20.1472 0 45C0 69.8528 20.1472 90 45 90Z" fill="#262626"/>
<path d="M47.8654 18.9508C47.8654 19.4208 47.4841 19.8014 47.0154 19.8014H44.056C43.5873 19.8014 43.2061 19.4208 43.2061 18.9508V13.477C43.2061 13.0077 43.5873 12.6271 44.056 12.6271H47.0154C47.4841 12.6271 47.8654 13.0077 47.8654 13.477V18.9508Z" fill="#636463"/>
<path d="M45.582 19.8014H44.057C43.5883 19.8014 43.207 19.4208 43.207 18.9508V13.477C43.207 13.0077 43.5883 12.6271 44.057 12.6271H45.582V19.8014Z" fill="#5E5F5E"/>
<path d="M56.9312 18.4393H33.7773V38.0521H56.9312V18.4393Z" fill="#ECE9E9"/>
<path d="M45.4453 18.4393H33.7773V38.0521H45.4453V18.4393Z" fill="#E7E7E7"/>
<path d="M55.5688 19.7291H35.1396V26.8193H55.5688V19.7291Z" fill="#E4DEDF"/>
<path d="M54.8888 20.4824H35.8203V26.0653H54.8888V20.4824Z" fill="#B1D4D7"/>
<path d="M45.3545 20.4824H35.8203V26.0653H45.3545V20.4824Z" fill="#A7CACB"/>
<path d="M59.3376 67.7434H31.644L22.6094 35.5996L45.4905 32.8768L68.3722 35.5996L59.3376 67.7434Z" fill="#AAAAAA"/>
<path d="M59.3373 67.7434H45.4902V32.8768L68.372 35.5996L59.3373 67.7434Z" fill="#CDCCCB"/>
<path d="M18.2021 68.6052C18.2021 68.6052 40.6763 55.117 66.6444 68.6052H18.2021Z" fill="#69C6C9"/>
<path d="M74.9095 69.1949C74.9095 69.1949 63.0154 57.2094 41.9492 69.1949H74.9095Z" fill="#147780"/>
<path d="M47.1699 69.2403C47.1699 69.2403 29.7001 57.2555 14.2109 69.2403H47.1699Z" fill="#409698"/>
<path d="M58.7439 45.8989L57.6665 47.3182L58.2877 47.2932C58.1937 48.1497 57.4982 48.861 56.5825 49.0325L56.4017 44.4692L57.2234 44.4363C57.4016 44.4284 57.5357 44.2628 57.5265 44.059C57.5186 43.8546 57.3739 43.7008 57.1938 43.708L56.3721 43.7415L56.3347 42.8127C56.7928 42.6247 57.0946 42.1691 57.0755 41.6669C57.0499 41.0115 56.4885 40.4995 55.8239 40.5271C55.1613 40.5534 54.6413 41.1075 54.6683 41.7629C54.6887 42.2881 55.0601 42.7292 55.5616 42.8613L55.5978 43.7724L54.8569 43.802C54.6788 43.8092 54.5447 43.9742 54.5526 44.178C54.5618 44.3831 54.7064 44.5376 54.8865 44.5297L55.626 44.5008L55.8068 49.0437C54.922 48.909 54.2279 48.2746 54.0721 47.4621L54.6525 47.4391L53.5422 46.108L52.4648 47.5265L53.1301 47.4996C53.3956 48.8393 54.523 49.8312 55.91 49.9384C55.9843 50.0712 56.1039 50.15 56.2387 50.1441C56.3695 50.1395 56.4799 50.056 56.5444 49.9233C57.9564 49.7491 59.0673 48.6427 59.2316 47.2564L59.8541 47.2314L58.7439 45.8989ZM55.8581 41.3363C56.0724 41.3284 56.2525 41.4901 56.261 41.6991C56.2663 41.8109 56.2163 41.9147 56.1329 41.987C55.9928 41.8753 55.7891 41.8957 55.6721 42.0285C55.5616 41.968 55.49 41.8575 55.4847 41.73C55.4768 41.5223 55.6431 41.3448 55.8581 41.3363Z" fill="#5F6060"/>
<path d="M23.061 37.2081L22.6094 35.5996L45.4905 32.8768L68.3722 35.5996L67.8306 37.5263L45.6726 34.6918L23.061 37.2081Z" fill="#E5DBC5"/>
<path d="M23.061 37.2081L22.6094 35.5996L45.4905 32.8768L45.4852 34.7135L23.061 37.2081Z" fill="#D7D0BC"/>
</g>
<defs>
<clipPath id="clip0_1864_3450">
<rect width="90" height="90" fill="white"/>
</clipPath>
</defs>
</svg>
