<svg width="148" height="18" viewBox="0 0 148 18" fill="none" xmlns="http://www.w3.org/2000/svg">
<path d="M1.13778 16V2.90909H6.30256C7.29119 2.90909 8.13494 3.08594 8.83381 3.43963C9.53693 3.78906 10.0717 4.28551 10.4382 4.92898C10.8089 5.56818 10.9943 6.32031 10.9943 7.18537C10.9943 8.05469 10.8068 8.80256 10.4318 9.42898C10.0568 10.0511 9.51349 10.5284 8.80185 10.8608C8.09446 11.1932 7.23793 11.3594 6.23224 11.3594H2.77415V9.13494H5.7848C6.31321 9.13494 6.75213 9.0625 7.10156 8.91761C7.45099 8.77273 7.71094 8.5554 7.88139 8.26562C8.05611 7.97585 8.14347 7.61577 8.14347 7.18537C8.14347 6.75071 8.05611 6.38423 7.88139 6.08594C7.71094 5.78764 7.44886 5.56179 7.09517 5.40838C6.74574 5.25071 6.30469 5.17188 5.77202 5.17188H3.90554V16H1.13778ZM8.20739 10.0426L11.4609 16H8.40554L5.2223 10.0426H8.20739ZM71.2457 9.45455C71.2457 10.8821 70.9751 12.0966 70.4339 13.098C69.897 14.0994 69.1641 14.8643 68.2351 15.3928C67.3104 15.9169 66.2706 16.179 65.1158 16.179C63.9524 16.179 62.9084 15.9148 61.9837 15.3864C61.0589 14.858 60.3281 14.093 59.7912 13.0916C59.2543 12.0902 58.9858 10.8778 58.9858 9.45455C58.9858 8.02699 59.2543 6.8125 59.7912 5.81108C60.3281 4.80966 61.0589 4.04687 61.9837 3.52273C62.9084 2.99432 63.9524 2.73011 65.1158 2.73011C66.2706 2.73011 67.3104 2.99432 68.2351 3.52273C69.1641 4.04687 69.897 4.80966 70.4339 5.81108C70.9751 6.8125 71.2457 8.02699 71.2457 9.45455ZM68.4396 9.45455C68.4396 8.52983 68.3011 7.75 68.0241 7.11506C67.7514 6.48011 67.3658 5.99858 66.8672 5.67045C66.3686 5.34233 65.7848 5.17827 65.1158 5.17827C64.4467 5.17827 63.8629 5.34233 63.3643 5.67045C62.8658 5.99858 62.478 6.48011 62.201 7.11506C61.9283 7.75 61.7919 8.52983 61.7919 9.45455C61.7919 10.3793 61.9283 11.1591 62.201 11.794C62.478 12.429 62.8658 12.9105 63.3643 13.2386C63.8629 13.5668 64.4467 13.7308 65.1158 13.7308C65.7848 13.7308 66.3686 13.5668 66.8672 13.2386C67.3658 12.9105 67.7514 12.429 68.0241 11.794C68.3011 11.1591 68.4396 10.3793 68.4396 9.45455Z" fill="black"/>
<path d="M15.6989 16.1854C15.0724 16.1854 14.5142 16.0767 14.0241 15.8594C13.5341 15.6378 13.1463 15.3118 12.8608 14.8814C12.5795 14.4467 12.4389 13.9055 12.4389 13.2578C12.4389 12.7124 12.5391 12.2543 12.7393 11.8835C12.9396 11.5128 13.2124 11.2145 13.5575 10.9886C13.9027 10.7628 14.2947 10.5923 14.7337 10.4773C15.1768 10.3622 15.6413 10.2812 16.1271 10.2344C16.6982 10.1747 17.1584 10.1193 17.5078 10.0682C17.8572 10.0128 18.1108 9.93182 18.2685 9.82528C18.4261 9.71875 18.505 9.56108 18.505 9.35227V9.31392C18.505 8.90909 18.3771 8.59588 18.1214 8.37429C17.87 8.1527 17.5121 8.0419 17.0476 8.0419C16.5575 8.0419 16.1676 8.15057 15.8778 8.3679C15.5881 8.58097 15.3963 8.84943 15.3026 9.1733L12.7841 8.96875C12.9119 8.37216 13.1634 7.85653 13.5384 7.42188C13.9134 6.98295 14.397 6.64631 14.9893 6.41193C15.5859 6.1733 16.2763 6.05398 17.0604 6.05398C17.6058 6.05398 18.1278 6.1179 18.6264 6.24574C19.1293 6.37358 19.5746 6.57173 19.9624 6.8402C20.3544 7.10866 20.6634 7.45384 20.8892 7.87571C21.1151 8.29332 21.228 8.79403 21.228 9.37784V16H18.6456V14.6385H18.5689C18.4112 14.9453 18.2003 15.2159 17.9361 15.4503C17.6719 15.6804 17.3544 15.8615 16.9837 15.9936C16.6129 16.1214 16.1847 16.1854 15.6989 16.1854ZM16.4787 14.3061C16.8793 14.3061 17.233 14.2273 17.5398 14.0696C17.8466 13.9077 18.0874 13.6903 18.2621 13.4176C18.4368 13.1449 18.5241 12.8359 18.5241 12.4908V11.4489C18.4389 11.5043 18.3217 11.5554 18.1726 11.6023C18.0277 11.6449 17.8636 11.6854 17.6804 11.7237C17.4972 11.7578 17.3139 11.7898 17.1307 11.8196C16.9474 11.8452 16.7812 11.8686 16.6321 11.8899C16.3125 11.9368 16.0334 12.0114 15.7947 12.1136C15.5561 12.2159 15.3707 12.3544 15.2386 12.5291C15.1065 12.6996 15.0405 12.9126 15.0405 13.1683C15.0405 13.5391 15.1747 13.8224 15.4432 14.0185C15.7159 14.2102 16.0611 14.3061 16.4787 14.3061ZM26.9585 16.1598C26.2127 16.1598 25.5373 15.968 24.9322 15.5845C24.3313 15.1967 23.854 14.6278 23.5004 13.8778C23.1509 13.1236 22.9762 12.1989 22.9762 11.1037C22.9762 9.97869 23.1573 9.04332 23.5195 8.29759C23.8817 7.54759 24.3633 6.98722 24.9641 6.61648C25.5692 6.24148 26.2319 6.05398 26.9521 6.05398C27.5018 6.05398 27.9599 6.14773 28.3263 6.33523C28.6971 6.51847 28.9954 6.74858 29.2212 7.02557C29.4513 7.2983 29.6261 7.56676 29.7454 7.83097H29.8285V2.90909H32.5451V16H29.8604V14.4276H29.7454C29.6175 14.7003 29.4364 14.9709 29.2021 15.2393C28.9719 15.5036 28.6715 15.723 28.3008 15.8977C27.9343 16.0724 27.4869 16.1598 26.9585 16.1598ZM27.8214 13.9929C28.2603 13.9929 28.631 13.8736 28.9336 13.6349C29.2404 13.392 29.4748 13.0533 29.6367 12.6186C29.8029 12.1839 29.886 11.6747 29.886 11.0909C29.886 10.5071 29.805 10 29.6431 9.5696C29.4812 9.1392 29.2468 8.80682 28.94 8.57244C28.6332 8.33807 28.2603 8.22088 27.8214 8.22088C27.3739 8.22088 26.9968 8.34233 26.69 8.58523C26.3832 8.82812 26.1509 9.16477 25.9933 9.59517C25.8356 10.0256 25.7567 10.5241 25.7567 11.0909C25.7567 11.6619 25.8356 12.1669 25.9933 12.6058C26.1552 13.0405 26.3874 13.3814 26.69 13.6286C26.9968 13.8714 27.3739 13.9929 27.8214 13.9929ZM34.7839 16V6.18182H37.5069V16H34.7839ZM36.1518 4.91619C35.747 4.91619 35.3997 4.78196 35.1099 4.51349C34.8244 4.24077 34.6816 3.91477 34.6816 3.53551C34.6816 3.16051 34.8244 2.83878 35.1099 2.57031C35.3997 2.29758 35.747 2.16122 36.1518 2.16122C36.5566 2.16122 36.9018 2.29758 37.1873 2.57031C37.4771 2.83878 37.622 3.16051 37.622 3.53551C37.622 3.91477 37.4771 4.24077 37.1873 4.51349C36.9018 4.78196 36.5566 4.91619 36.1518 4.91619ZM44.1243 16.1918C43.1314 16.1918 42.2727 15.9808 41.5483 15.5589C40.8281 15.1328 40.272 14.5405 39.88 13.782C39.4879 13.0192 39.2919 12.1349 39.2919 11.1293C39.2919 10.1151 39.4879 9.22869 39.88 8.47017C40.272 7.70739 40.8281 7.11506 41.5483 6.69318C42.2727 6.26705 43.1314 6.05398 44.1243 6.05398C45.1172 6.05398 45.9737 6.26705 46.6939 6.69318C47.4183 7.11506 47.9766 7.70739 48.3686 8.47017C48.7607 9.22869 48.9567 10.1151 48.9567 11.1293C48.9567 12.1349 48.7607 13.0192 48.3686 13.782C47.9766 14.5405 47.4183 15.1328 46.6939 15.5589C45.9737 15.9808 45.1172 16.1918 44.1243 16.1918ZM44.1371 14.0824C44.5888 14.0824 44.9659 13.9545 45.2685 13.6989C45.571 13.4389 45.799 13.0852 45.9524 12.6378C46.1101 12.1903 46.1889 11.6811 46.1889 11.1101C46.1889 10.5391 46.1101 10.0298 45.9524 9.58239C45.799 9.13494 45.571 8.78125 45.2685 8.52131C44.9659 8.26136 44.5888 8.13139 44.1371 8.13139C43.6811 8.13139 43.2976 8.26136 42.9865 8.52131C42.6797 8.78125 42.4474 9.13494 42.2898 9.58239C42.1364 10.0298 42.0597 10.5391 42.0597 11.1101C42.0597 11.6811 42.1364 12.1903 42.2898 12.6378C42.4474 13.0852 42.6797 13.4389 42.9865 13.6989C43.2976 13.9545 43.6811 14.0824 44.1371 14.0824ZM56.8445 9.54403V11.7045H50.8743V9.54403H56.8445ZM75.9679 10.3239V16H73.2449V6.18182H75.84V7.91406H75.9551C76.1724 7.34304 76.5368 6.89133 77.0481 6.55895C77.5595 6.2223 78.1795 6.05398 78.9082 6.05398C79.59 6.05398 80.1845 6.20312 80.6916 6.50142C81.1987 6.79972 81.5929 7.22585 81.8741 7.77983C82.1554 8.32955 82.296 8.9858 82.296 9.74858V16H79.573V10.2344C79.5772 9.63352 79.4238 9.16477 79.1127 8.82812C78.8017 8.48722 78.3734 8.31676 77.8279 8.31676C77.4615 8.31676 77.1376 8.3956 76.8564 8.55327C76.5794 8.71094 76.362 8.94105 76.2044 9.24361C76.051 9.5419 75.9721 9.90199 75.9679 10.3239ZM87.1651 2.90909V16H84.4421V2.90909H87.1651ZM89.3464 16V6.18182H92.0694V16H89.3464ZM90.7143 4.91619C90.3095 4.91619 89.9622 4.78196 89.6724 4.51349C89.3869 4.24077 89.2441 3.91477 89.2441 3.53551C89.2441 3.16051 89.3869 2.83878 89.6724 2.57031C89.9622 2.29758 90.3095 2.16122 90.7143 2.16122C91.1191 2.16122 91.4643 2.29758 91.7498 2.57031C92.0396 2.83878 92.1845 3.16051 92.1845 3.53551C92.1845 3.91477 92.0396 4.24077 91.7498 4.51349C91.4643 4.78196 91.1191 4.91619 90.7143 4.91619ZM96.9737 10.3239V16H94.2507V6.18182H96.8459V7.91406H96.9609C97.1783 7.34304 97.5426 6.89133 98.054 6.55895C98.5653 6.2223 99.1854 6.05398 99.9141 6.05398C100.596 6.05398 101.19 6.20312 101.697 6.50142C102.205 6.79972 102.599 7.22585 102.88 7.77983C103.161 8.32955 103.302 8.9858 103.302 9.74858V16H100.579V10.2344C100.583 9.63352 100.43 9.16477 100.119 8.82812C99.8075 8.48722 99.3793 8.31676 98.8338 8.31676C98.4673 8.31676 98.1435 8.3956 97.8622 8.55327C97.5852 8.71094 97.3679 8.94105 97.2102 9.24361C97.0568 9.5419 96.978 9.90199 96.9737 10.3239ZM109.922 16.1918C108.912 16.1918 108.043 15.9872 107.314 15.5781C106.59 15.1648 106.032 14.581 105.64 13.8267C105.248 13.0682 105.052 12.1712 105.052 11.1357C105.052 10.1257 105.248 9.23935 105.64 8.47656C106.032 7.71378 106.584 7.11932 107.295 6.69318C108.011 6.26705 108.851 6.05398 109.814 6.05398C110.461 6.05398 111.064 6.15838 111.623 6.36719C112.185 6.57173 112.675 6.88068 113.093 7.29403C113.515 7.70739 113.843 8.22727 114.077 8.85369C114.312 9.47585 114.429 10.2045 114.429 11.0398V11.7876H106.138V10.1001H111.866C111.866 9.7081 111.78 9.3608 111.61 9.05824C111.439 8.75568 111.203 8.51918 110.9 8.34872C110.602 8.17401 110.255 8.08665 109.858 8.08665C109.445 8.08665 109.079 8.18253 108.759 8.37429C108.444 8.56179 108.197 8.81534 108.018 9.13494C107.839 9.45028 107.747 9.80185 107.743 10.1896V11.794C107.743 12.2798 107.832 12.6996 108.011 13.0533C108.194 13.407 108.452 13.6797 108.785 13.8714C109.117 14.0632 109.511 14.1591 109.967 14.1591C110.27 14.1591 110.547 14.1165 110.798 14.0312C111.05 13.946 111.265 13.8182 111.444 13.6477C111.623 13.4773 111.759 13.2685 111.853 13.0213L114.371 13.1875C114.243 13.7926 113.981 14.321 113.585 14.7727C113.193 15.2202 112.686 15.5696 112.064 15.821C111.446 16.0682 110.732 16.1918 109.922 16.1918Z" fill="#060606"/>
<path d="M117.797 16.1662C117.376 16.1662 117.013 16.017 116.711 15.7188C116.412 15.4162 116.263 15.054 116.263 14.6321C116.263 14.2145 116.412 13.8565 116.711 13.5582C117.013 13.2599 117.376 13.1108 117.797 13.1108C118.206 13.1108 118.564 13.2599 118.871 13.5582C119.178 13.8565 119.331 14.2145 119.331 14.6321C119.331 14.9134 119.259 15.1712 119.114 15.4055C118.974 15.6357 118.788 15.821 118.558 15.9616C118.328 16.098 118.074 16.1662 117.797 16.1662ZM121.567 16V6.18182H124.162V7.91406H124.277C124.482 7.33878 124.823 6.88494 125.3 6.55256C125.777 6.22017 126.348 6.05398 127.013 6.05398C127.686 6.05398 128.26 6.2223 128.733 6.55895C129.206 6.89133 129.521 7.34304 129.679 7.91406H129.781C129.981 7.35156 130.343 6.90199 130.868 6.56534C131.396 6.22443 132.02 6.05398 132.74 6.05398C133.657 6.05398 134.4 6.34588 134.971 6.92969C135.547 7.50923 135.834 8.33168 135.834 9.39702V16H133.118V9.93395C133.118 9.38849 132.973 8.9794 132.683 8.70668C132.393 8.43395 132.031 8.29759 131.596 8.29759C131.102 8.29759 130.716 8.45526 130.439 8.7706C130.162 9.08168 130.024 9.4929 130.024 10.0043V16H127.384V9.87642C127.384 9.39489 127.245 9.01136 126.968 8.72585C126.696 8.44034 126.336 8.29759 125.888 8.29759C125.586 8.29759 125.313 8.37429 125.07 8.5277C124.831 8.67685 124.642 8.88778 124.501 9.16051C124.36 9.42898 124.29 9.74432 124.29 10.1065V16H121.567ZM142.46 16.1918C141.45 16.1918 140.58 15.9872 139.852 15.5781C139.127 15.1648 138.569 14.581 138.177 13.8267C137.785 13.0682 137.589 12.1712 137.589 11.1357C137.589 10.1257 137.785 9.23935 138.177 8.47656C138.569 7.71378 139.121 7.11932 139.832 6.69318C140.548 6.26705 141.388 6.05398 142.351 6.05398C142.999 6.05398 143.602 6.15838 144.16 6.36719C144.722 6.57173 145.212 6.88068 145.63 7.29403C146.052 7.70739 146.38 8.22727 146.614 8.85369C146.849 9.47585 146.966 10.2045 146.966 11.0398V11.7876H138.675V10.1001H144.403C144.403 9.7081 144.317 9.3608 144.147 9.05824C143.977 8.75568 143.74 8.51918 143.438 8.34872C143.139 8.17401 142.792 8.08665 142.396 8.08665C141.982 8.08665 141.616 8.18253 141.296 8.37429C140.981 8.56179 140.734 8.81534 140.555 9.13494C140.376 9.45028 140.284 9.80185 140.28 10.1896V11.794C140.28 12.2798 140.369 12.6996 140.548 13.0533C140.732 13.407 140.989 13.6797 141.322 13.8714C141.654 14.0632 142.048 14.1591 142.504 14.1591C142.807 14.1591 143.084 14.1165 143.335 14.0312C143.587 13.946 143.802 13.8182 143.981 13.6477C144.16 13.4773 144.296 13.2685 144.39 13.0213L146.908 13.1875C146.781 13.7926 146.518 14.321 146.122 14.7727C145.73 15.2202 145.223 15.5696 144.601 15.821C143.983 16.0682 143.269 16.1918 142.46 16.1918Z" fill="#06B5AE"/>
</svg>
