<svg width="24" height="24" viewBox="0 0 24 24" fill="none" xmlns="http://www.w3.org/2000/svg">
<path d="M17.3073 3.14773L19.8398 5.68018M18.3998 12.2801V16.84C18.3998 17.4129 18.1722 17.9623 17.7672 18.3674C17.3621 18.7724 16.8127 19 16.2398 19H6.15997C5.58711 19 5.03771 18.7724 4.63264 18.3674C4.22757 17.9623 4 17.4129 4 16.84V6.76016C4 6.1873 4.22757 5.6379 4.63264 5.23283C5.03771 4.82776 5.58711 4.60019 6.15997 4.60019H10.7199M17.3073 3.14773L18.9268 1.52727C19.2644 1.18966 19.7223 1 20.1998 1C20.6772 1 21.1351 1.18966 21.4727 1.52727C21.8103 1.86488 22 2.32277 22 2.80021C22 3.27766 21.8103 3.73555 21.4727 4.07316L11.2786 14.2673C10.7711 14.7745 10.1452 15.1473 9.45753 15.352L6.87996 16.12L7.64795 13.5425C7.8527 12.8548 8.22551 12.2289 8.73274 11.7214L17.3073 3.14773V3.14773Z" stroke="#5B5B5B" stroke-width="2" stroke-linecap="round" stroke-linejoin="round"/>
</svg>
