<svg width="24" height="24" viewBox="0 0 24 24" fill="none" xmlns="http://www.w3.org/2000/svg">
<path d="M15.5005 6.46154C15.5005 7.37959 15.1317 8.26005 14.4752 8.90921C13.8187 9.55837 12.9284 9.92307 12 9.92307C11.0716 9.92307 10.1813 9.55837 9.5248 8.90921C8.86833 8.26005 8.49953 7.37959 8.49953 6.46154C8.49953 5.54348 8.86833 4.66302 9.5248 4.01386C10.1813 3.3647 11.0716 3 12 3C12.9284 3 13.8187 3.3647 14.4752 4.01386C15.1317 4.66302 15.5005 5.54348 15.5005 6.46154V6.46154ZM5 19.4935C5.03 17.6772 5.78069 15.9454 7.09018 14.6714C8.39967 13.3975 10.163 12.6835 12 12.6835C13.837 12.6835 15.6003 13.3975 16.9098 14.6714C18.2193 15.9454 18.97 17.6772 19 19.4935C16.8039 20.4893 14.4159 21.0032 12 21C9.50207 21 7.13108 20.4609 5 19.4935Z" stroke="#151515" stroke-width="2" stroke-linecap="round" stroke-linejoin="round"/>
</svg>
