<svg width="24" height="24" viewBox="0 0 24 24" fill="none" xmlns="http://www.w3.org/2000/svg">
<g clip-path="url(#clip0_563_975)">
<circle cx="12" cy="12" r="12" fill="#7360F2"/>
<path d="M11.8087 5.00031C11.3543 5.00269 10.8985 5.02765 10.4389 5.07877C9.56001 5.17745 8.68893 5.3415 7.853 5.69221C6.52359 6.24977 5.58089 7.19608 5.30745 8.57156C5.19157 9.15171 5.09782 9.74018 5.04443 10.3322C4.94157 11.4818 5.00537 12.635 5.36214 13.7679C5.64339 14.6608 6.16161 15.4632 7.06915 15.9839C7.45326 16.2039 7.95977 16.3109 8.22409 16.4226C8.29831 16.4547 8.31654 16.4737 8.32044 16.4785C8.32435 16.4821 8.33477 16.4904 8.33346 16.5617C8.32435 17.2893 8.33346 18.6968 8.33346 18.6968L8.33477 19H8.92981L9.02617 18.9144C9.02617 18.9144 10.5379 17.5865 11.0847 17.0396C11.1837 16.9421 11.2345 16.8874 11.2449 16.8815C11.254 16.8756 11.2384 16.872 11.3399 16.8696C12.0574 16.8565 12.7735 16.8316 13.4897 16.7959C14.4337 16.7484 15.3959 16.6663 16.3217 16.3132C17.1276 16.0053 17.8008 15.5025 18.2084 14.7487C18.625 13.976 18.8477 13.1569 18.931 12.3093C19.069 10.8981 19.0209 9.48459 18.5938 8.09127C18.3425 7.27455 17.8373 6.58383 17.0625 6.09641C16.1355 5.51388 15.0899 5.29514 14.0665 5.15605C13.4688 5.07521 12.8673 5.02171 12.2631 5.00506C12.1121 5.0015 11.961 4.99912 11.8087 5.00031ZM12.2449 5.61375C12.8191 5.62801 13.3933 5.67913 13.9688 5.7576C14.9558 5.89193 15.8868 6.09641 16.6849 6.5981C17.3321 7.00468 17.7357 7.55392 17.9519 8.25414C18.3503 9.5571 18.4011 10.8922 18.267 12.2558C18.1901 13.0416 17.9857 13.7822 17.6094 14.4801C17.2774 15.0959 16.7592 15.487 16.0639 15.7521C15.2566 16.06 14.379 16.142 13.4545 16.1884C12.7462 16.2241 12.0366 16.2479 11.3269 16.2609C11.1485 16.2645 10.9741 16.3073 10.8504 16.3905C10.7267 16.4737 10.6707 16.551 10.5939 16.6271C10.2032 17.017 9.4246 17.703 9.00012 18.0787C8.99752 17.6245 8.99361 17.0753 9.00012 16.5688C9.00273 16.4131 8.96367 16.2538 8.86601 16.1278C8.76836 16.0018 8.63424 15.9257 8.50534 15.871C8.12904 15.7117 7.63686 15.5904 7.42332 15.468C6.67723 15.04 6.25406 14.398 6.00276 13.5991C5.67333 12.5542 5.61083 11.4783 5.70849 10.3833C5.76057 9.81508 5.85042 9.24563 5.9637 8.68093C6.20067 7.49091 6.94546 6.74195 8.13034 6.24502C8.87903 5.93117 9.6785 5.77662 10.5209 5.6827C11.0952 5.6185 11.6694 5.59829 12.2449 5.61375ZM12.3855 7.1307C12.1108 7.1307 11.8438 7.15923 11.5847 7.21154C11.4063 7.24958 11.2931 7.41245 11.3334 7.57651C11.3738 7.74057 11.5535 7.84281 11.7332 7.80595C11.9428 7.76197 12.1616 7.73938 12.3855 7.73938C14.0131 7.73938 15.3256 8.93772 15.3256 10.4226C15.3256 10.6282 15.3008 10.828 15.2527 11.0206C15.2123 11.1834 15.3243 11.3475 15.504 11.3843C15.6837 11.4212 15.862 11.3178 15.9024 11.1537C15.961 10.9183 15.9922 10.6746 15.9922 10.4226C15.9922 8.60842 14.3738 7.1307 12.3855 7.1307ZM9.06002 7.74057C9.00533 7.73819 8.94934 7.74176 8.89075 7.75365C8.28529 7.87609 7.68373 8.27673 7.6668 8.99241C7.68373 9.09227 7.68243 9.19927 7.72279 9.28962C7.92071 9.73186 8.09258 10.1884 8.33997 10.6068C9.54439 12.6397 11.366 14.0533 13.6876 14.9508C13.9649 15.0578 14.2514 15.0804 14.5313 14.9734C14.9167 14.8272 15.2436 14.6013 15.461 14.2768C15.7592 13.831 15.7631 13.5219 15.2722 13.1926C14.9506 12.9762 14.6342 12.7539 14.3087 12.5423C13.8126 12.2213 13.2761 12.1654 12.9063 12.7289C12.8868 12.7574 12.8582 12.7812 12.8334 12.805C12.6433 12.9893 12.4102 13.0344 12.1629 12.9417C11.2241 12.5886 10.4988 12.0192 10.0613 11.1715C9.8035 10.6734 9.87381 10.4238 10.3556 10.0921C10.4038 10.06 10.4493 10.0255 10.4936 9.98865C10.7045 9.8127 10.7605 9.60347 10.6355 9.36689C10.353 8.82716 9.97668 8.34568 9.50012 7.93078C9.37121 7.81903 9.22408 7.74889 9.06002 7.74057ZM12.3803 8.04372C12.2332 8.04372 12.0873 8.05442 11.9441 8.07701C11.823 8.09127 11.7201 8.16498 11.6759 8.26841C11.6316 8.37303 11.6537 8.49072 11.7319 8.57632C11.8113 8.66072 11.9363 8.69996 12.0561 8.67618C12.1602 8.66072 12.2696 8.6524 12.3803 8.6524C13.4636 8.6524 14.3334 9.44654 14.3334 10.4357C14.3334 10.5367 14.3243 10.6366 14.3074 10.7317C14.2813 10.841 14.3243 10.9552 14.4167 11.0277C14.5105 11.099 14.6394 11.1192 14.754 11.0788C14.8673 11.0384 14.948 10.9445 14.9636 10.8339C14.9883 10.7031 15.0001 10.57 15.0001 10.4357C15.0001 9.11842 13.823 8.04372 12.3803 8.04372ZM12.3334 8.95674C12.2136 8.95555 12.1017 9.01262 12.0405 9.10773C11.9806 9.20283 11.9806 9.31934 12.0405 9.41444C12.1017 9.50955 12.2136 9.56661 12.3334 9.56543C12.8894 9.56543 13.3334 9.97082 13.3334 10.4784C13.3321 10.5878 13.3946 10.6901 13.4988 10.7459C13.6029 10.8006 13.7305 10.8006 13.8347 10.7459C13.9389 10.6901 14.0014 10.5878 14.0001 10.4784C14.0001 9.64151 13.2501 8.95674 12.3334 8.95674Z" fill="white"/>
</g>
<defs>
<clipPath id="clip0_563_975">
<rect width="24" height="24" fill="white"/>
</clipPath>
</defs>
</svg>
