<svg width="14" height="16" viewBox="0 0 14 16" fill="none" xmlns="http://www.w3.org/2000/svg">
<path d="M6.65311 2.23255C6.6813 2.16377 6.72932 2.10493 6.79105 2.06352C6.85279 2.02211 6.92544 2 6.99977 2C7.07411 2 7.14676 2.02211 7.2085 2.06352C7.27023 2.10493 7.31825 2.16377 7.34644 2.23255L8.76311 5.63988C8.78963 5.70364 8.83322 5.75885 8.88909 5.79942C8.94496 5.84 9.01094 5.86438 9.07977 5.86988L12.7584 6.16455C13.0911 6.19122 13.2258 6.60655 12.9724 6.82322L10.1698 9.22455C10.1174 9.26934 10.0784 9.32769 10.057 9.39319C10.0356 9.45869 10.0326 9.52881 10.0484 9.59588L10.9051 13.1859C10.9223 13.2579 10.9178 13.3334 10.8921 13.4029C10.8665 13.4723 10.8208 13.5326 10.7609 13.5762C10.7009 13.6197 10.6295 13.6445 10.5555 13.6474C10.4815 13.6503 10.4083 13.6312 10.3451 13.5926L7.19511 11.6692C7.13627 11.6334 7.06869 11.6144 6.99977 11.6144C6.93086 11.6144 6.86328 11.6334 6.80444 11.6692L3.65444 13.5932C3.59128 13.6319 3.51808 13.651 3.44408 13.648C3.37008 13.6451 3.29861 13.6203 3.23869 13.5768C3.17877 13.5333 3.13308 13.473 3.10741 13.4035C3.08174 13.3341 3.07722 13.2586 3.09444 13.1865L3.95111 9.59588C3.967 9.52882 3.96408 9.45867 3.94267 9.39315C3.92126 9.32764 3.8822 9.2693 3.82978 9.22455L1.02711 6.82322C0.970984 6.77496 0.930382 6.71118 0.910408 6.63991C0.890434 6.56863 0.89198 6.49304 0.914852 6.42265C0.937724 6.35225 0.980901 6.29019 1.03895 6.24426C1.097 6.19834 1.16734 6.17061 1.24111 6.16455L4.91978 5.86988C4.98861 5.86438 5.05459 5.84 5.11046 5.79942C5.16633 5.75885 5.20992 5.70364 5.23644 5.63988L6.65311 2.23255Z" fill="#E5C000" stroke="#E5C000" stroke-linecap="round" stroke-linejoin="round"/>
</svg>
