<svg width="16" height="14" viewBox="0 0 16 14" fill="none" xmlns="http://www.w3.org/2000/svg">
<g clip-path="url(#clip0_325_2039)">
<path d="M13.1729 2.54571C13.7807 3.13072 14.2629 3.82523 14.5918 4.58958C14.9208 5.35394 15.0901 6.17317 15.0901 7.00051C15.0901 7.82784 14.9208 8.64708 14.5918 9.41143C14.2629 10.1758 13.7807 10.8703 13.1729 11.4553M11.2449 4.40211C11.9608 5.09129 12.363 6.02594 12.363 7.00051C12.363 7.97507 11.9608 8.90973 11.2449 9.59891M4.18093 4.37551L7.61366 1.07151C7.68994 0.998178 7.78709 0.948251 7.89283 0.928031C7.99858 0.907812 8.10818 0.918208 8.20779 0.957906C8.3074 0.997604 8.39255 1.06482 8.45249 1.15107C8.51243 1.23733 8.54447 1.33874 8.54457 1.44251V12.5585C8.54447 12.6623 8.51243 12.7637 8.45249 12.8499C8.39255 12.9362 8.3074 13.0034 8.20779 13.0431C8.10818 13.0828 7.99858 13.0932 7.89283 13.073C7.78709 13.0528 7.68994 13.0028 7.61366 12.9295L4.18093 9.62551H2.55184C1.91184 9.62551 1.31257 9.27061 1.14239 8.67771C0.986402 8.1313 0.907633 7.56716 0.908206 7.00051C0.908206 6.41951 0.989661 5.85741 1.14239 5.32331C1.31257 4.72971 1.91184 4.37551 2.55184 4.37551H4.18093Z" stroke="#060606" stroke-width="1.5" stroke-linecap="round" stroke-linejoin="round"/>
</g>
<defs>
<clipPath id="clip0_325_2039">
<rect width="16" height="14" fill="white"/>
</clipPath>
</defs>
</svg>
