<svg width="101" height="16" viewBox="0 0 101 16" fill="none" xmlns="http://www.w3.org/2000/svg">
<g clip-path="url(#clip0_567_453)">
<path d="M9.65075 10.5919H12.8534C12.7892 11.636 12.5 12.5629 11.9858 13.3726C11.4788 14.1823 10.7683 14.8144 9.85428 15.269C8.94739 15.7235 7.85485 15.9508 6.57664 15.9508C5.57692 15.9508 4.68074 15.7804 3.88811 15.4394C3.09546 15.0914 2.41709 14.5942 1.85296 13.9479C1.29598 13.3016 0.871095 12.5203 0.578322 11.604C0.285548 10.6878 0.13916 9.66147 0.13916 8.52505V7.44901C0.13916 6.31262 0.289119 5.28629 0.589033 4.37004C0.896089 3.44671 1.33168 2.66187 1.89581 2.01554C2.46707 1.3692 3.14902 0.872019 3.94167 0.523993C4.7343 0.175967 5.61975 0.00195312 6.59805 0.00195312C7.89768 0.00195312 8.9938 0.236339 9.8864 0.705111C10.7861 1.17388 11.4824 1.82022 11.9751 2.64411C12.475 3.46803 12.7749 4.40555 12.8748 5.45675H9.66146C9.62578 4.83173 9.50081 4.30257 9.28657 3.86931C9.07236 3.42895 8.74745 3.09869 8.31186 2.8785C7.88341 2.65122 7.31214 2.53758 6.59805 2.53758C6.06248 2.53758 5.59477 2.63703 5.19489 2.8359C4.795 3.03477 4.45938 3.33662 4.18802 3.74147C3.91667 4.14632 3.71314 4.65769 3.57746 5.27564C3.44893 5.88644 3.38467 6.60382 3.38467 7.42771V8.52505C3.38467 9.32765 3.44537 10.0344 3.56676 10.6452C3.68817 11.2489 3.87382 11.7603 4.12376 12.1793C4.38082 12.5913 4.7093 12.9038 5.10918 13.1169C5.51621 13.3229 6.00537 13.4259 6.57664 13.4259C7.24788 13.4259 7.80129 13.3193 8.23689 13.1062C8.67248 12.8932 9.00451 12.5771 9.23301 12.158C9.46866 11.739 9.60793 11.2169 9.65075 10.5919ZM18.5998 0.225685V15.7377H15.3971V0.225685H18.5998ZM29.9483 11.6786C29.9483 11.4016 29.9053 11.153 29.8196 10.9328C29.741 10.7056 29.5912 10.4996 29.3697 10.3149C29.1485 10.1231 28.8378 9.93494 28.4378 9.75026C28.038 9.5656 27.5203 9.37381 26.8848 9.17494C26.1778 8.94766 25.5066 8.69198 24.871 8.40786C24.2426 8.12377 23.6857 7.79349 23.2001 7.41707C22.7216 7.03351 22.3432 6.5896 22.0647 6.08531C21.7933 5.58105 21.6576 4.99509 21.6576 4.32744C21.6576 3.68109 21.8005 3.09512 22.0861 2.56954C22.3717 2.03685 22.7716 1.58228 23.2858 1.20584C23.7999 0.822301 24.4069 0.527545 25.1067 0.32157C25.8136 0.115595 26.5884 0.012607 27.4309 0.012607C28.5807 0.012607 29.5841 0.218582 30.4409 0.630532C31.2977 1.04248 31.962 1.60714 32.4332 2.3245C32.9116 3.04185 33.1508 3.86221 33.1508 4.78554H29.9588C29.9588 4.33098 29.8626 3.93324 29.6696 3.59231C29.4839 3.24429 29.1983 2.97085 28.8128 2.77195C28.4344 2.57309 27.956 2.47366 27.3774 2.47366C26.8205 2.47366 26.3563 2.55889 25.985 2.72935C25.6137 2.89271 25.3352 3.11645 25.1495 3.40054C24.9639 3.67755 24.871 3.99005 24.871 4.33809C24.871 4.60088 24.9353 4.83881 25.0638 5.0519C25.1995 5.26499 25.3995 5.46386 25.6637 5.64851C25.9279 5.83317 26.2528 6.0072 26.6385 6.17056C27.024 6.33392 27.4702 6.49373 27.9774 6.64998C28.827 6.90567 29.5733 7.19333 30.216 7.51293C30.8657 7.83257 31.4084 8.19123 31.8441 8.589C32.2797 8.98674 32.6081 9.43773 32.8296 9.94202C33.0508 10.4463 33.1616 11.0181 33.1616 11.6573C33.1616 12.3321 33.0295 12.9358 32.7652 13.4685C32.501 14.0012 32.1189 14.4522 31.6192 14.8215C31.1192 15.1908 30.5229 15.4714 29.8304 15.6632C29.1377 15.8549 28.3629 15.9508 27.5061 15.9508C26.7348 15.9508 25.9743 15.8514 25.2245 15.6525C24.4747 15.4465 23.7928 15.1376 23.1787 14.7256C22.5717 14.3137 22.0861 13.7881 21.7219 13.1488C21.3577 12.5096 21.1756 11.7532 21.1756 10.8796H24.3997C24.3997 11.3626 24.4747 11.771 24.6247 12.1048C24.7746 12.4386 24.9853 12.7085 25.2567 12.9145C25.5351 13.1204 25.8636 13.2696 26.2421 13.3619C26.6277 13.4543 27.0491 13.5004 27.5061 13.5004C28.0631 13.5004 28.5201 13.4223 28.8771 13.266C29.2413 13.1098 29.509 12.8932 29.6804 12.6161C29.8589 12.3392 29.9483 12.0266 29.9483 11.6786Z" fill="#5CA91A"/>
<path d="M40.3538 15.7378H36.9583L36.9797 13.2448H40.3538C41.1963 13.2448 41.907 13.0566 42.4853 12.6802C43.0637 12.2966 43.4993 11.7391 43.792 11.0075C44.0921 10.2759 44.2419 9.39166 44.2419 8.3547V7.59827C44.2419 6.80278 44.1562 6.10316 43.985 5.49944C43.8208 4.89574 43.5745 4.38788 43.2459 3.97595C42.9173 3.56399 42.5138 3.25503 42.0355 3.04905C41.5571 2.83599 41.0073 2.72944 40.386 2.72944H36.8939V0.225773H40.386C41.4284 0.225773 42.3817 0.403337 43.2459 0.758469C44.1172 1.10649 44.8703 1.60723 45.5058 2.26067C46.1414 2.9141 46.6306 3.6954 46.9734 4.60451C47.3233 5.50654 47.4982 6.51158 47.4982 7.61957V8.3547C47.4982 9.45558 47.3233 10.4606 46.9734 11.3697C46.6306 12.2789 46.1414 13.0602 45.5058 13.7136C44.8774 14.3599 44.1243 14.8607 43.2459 15.2158C42.3746 15.5638 41.4107 15.7378 40.3538 15.7378ZM38.7792 0.225773V15.7378H35.5659V0.225773H38.7792ZM60.5177 13.2448V15.7378H52.2164V13.2448H60.5177ZM53.266 0.225773V15.7378H50.0527V0.225773H53.266ZM59.4357 6.54353V8.97262H52.2164V6.54353H59.4357ZM60.5069 0.225773V2.72944H52.2164V0.225773H60.5069ZM68.9524 2.87858L64.7109 15.7378H61.294L67.0887 0.225773H69.263L68.9524 2.87858ZM72.4765 15.7378L68.224 2.87858L67.8814 0.225773H70.0771L75.9039 15.7378H72.4765ZM72.2838 9.96344V12.4671H64.0466V9.96344H72.2838ZM87.5952 13.2448V15.7378H79.7438V13.2448H87.5952ZM80.7828 0.225773V15.7378H77.5695V0.225773H80.7828ZM97.7761 11.6787C97.7761 11.4017 97.7331 11.1531 97.6474 10.9329C97.5688 10.7057 97.4191 10.4997 97.1975 10.315C96.9763 10.1232 96.6656 9.93503 96.2659 9.75035C95.8658 9.56569 95.3482 9.3739 94.7126 9.17503C94.0056 8.94775 93.3345 8.69207 92.699 8.40795C92.0705 8.12386 91.5136 7.79357 91.0278 7.41715C90.5495 7.0336 90.1711 6.58969 89.8926 6.0854C89.6212 5.58114 89.4854 4.99517 89.4854 4.32753C89.4854 3.68118 89.6283 3.09521 89.9139 2.56963C90.1995 2.03693 90.5996 1.58237 91.1135 1.20593C91.6278 0.82239 92.2348 0.527633 92.9344 0.321658C93.6414 0.115683 94.4162 0.0126953 95.2588 0.0126953C96.4085 0.0126953 97.4119 0.21867 98.2687 0.630621C99.1258 1.04257 99.7898 1.60723 100.261 2.32459C100.739 3.04194 100.979 3.8623 100.979 4.78563H97.7867C97.7867 4.33107 97.6904 3.93333 97.4976 3.59239C97.312 3.24438 97.0261 2.97094 96.6406 2.77204C96.2622 2.57318 95.7838 2.47374 95.2052 2.47374C94.6483 2.47374 94.1842 2.55897 93.8129 2.72944C93.4416 2.8928 93.1631 3.11654 92.9774 3.40063C92.7918 3.67764 92.699 3.99014 92.699 4.33818C92.699 4.60097 92.763 4.8389 92.8917 5.05199C93.0273 5.26508 93.2274 5.46395 93.4914 5.6486C93.7556 5.83326 94.0805 6.00729 94.4663 6.17065C94.8519 6.33401 95.2981 6.49382 95.8052 6.65007C96.6548 6.90576 97.4011 7.19342 98.0438 7.51302C98.6936 7.83266 99.2363 8.19132 99.6719 8.58909C100.108 8.98683 100.436 9.43782 100.657 9.94211C100.879 10.4464 100.989 11.0182 100.989 11.6574C100.989 12.3321 100.857 12.9359 100.593 13.4686C100.329 14.0013 99.947 14.4523 99.447 14.8216C98.9472 15.1909 98.3507 15.4715 97.6582 15.6633C96.9655 15.855 96.1907 15.9509 95.3339 15.9509C94.5626 15.9509 93.802 15.8515 93.0523 15.6526C92.3026 15.4466 91.6207 15.1377 91.0065 14.7257C90.3994 14.3138 89.9139 13.7882 89.5498 13.1489C89.1856 12.5097 89.0036 11.7533 89.0036 10.8797H92.2277C92.2277 11.3626 92.3026 11.771 92.4527 12.1049C92.6024 12.4387 92.8131 12.7086 93.0845 12.9145C93.363 13.1205 93.6916 13.2697 94.07 13.362C94.4555 13.4543 94.8769 13.5005 95.3339 13.5005C95.8909 13.5005 96.3479 13.4224 96.7049 13.2661C97.0691 13.1099 97.3368 12.8932 97.5082 12.6162C97.6867 12.3393 97.7761 12.0267 97.7761 11.6787Z" fill="#151515"/>
</g>
<defs>
<clipPath id="clip0_567_453">
<rect width="101" height="16" fill="white"/>
</clipPath>
</defs>
</svg>
