<svg width="12" height="12" viewBox="0 0 12 12" fill="none" xmlns="http://www.w3.org/2000/svg">
<path d="M7.5 5.25C7.5 5.64782 7.34196 6.02936 7.06066 6.31066C6.77936 6.59196 6.39782 6.75 6 6.75C5.60218 6.75 5.22064 6.59196 4.93934 6.31066C4.65804 6.02936 4.5 5.64782 4.5 5.25C4.5 4.85218 4.65804 4.47064 4.93934 4.18934C5.22064 3.90804 5.60218 3.75 6 3.75C6.39782 3.75 6.77936 3.90804 7.06066 4.18934C7.34196 4.47064 7.5 4.85218 7.5 5.25V5.25Z" stroke="#151515" stroke-linecap="round" stroke-linejoin="round"/>
<path d="M9.75 5.25C9.75 8.821 6 10.875 6 10.875C6 10.875 2.25 8.821 2.25 5.25C2.25 4.25544 2.64509 3.30161 3.34835 2.59835C4.05161 1.89509 5.00544 1.5 6 1.5C6.99456 1.5 7.94839 1.89509 8.65165 2.59835C9.35491 3.30161 9.75 4.25544 9.75 5.25V5.25Z" stroke="#151515" stroke-linecap="round" stroke-linejoin="round"/>
</svg>
