<svg width="320" height="240" viewBox="0 0 320 240" fill="none" xmlns="http://www.w3.org/2000/svg">
<path fill-rule="evenodd" clip-rule="evenodd" d="M109.375 110.661C110.356 120.568 111.337 130.475 112.319 140.382C117.661 137.333 123.003 134.285 128.345 131.237V153.806V159.739C128.345 160.263 128.033 162.067 128.345 162.521C128.609 162.907 130.567 162.918 131.029 162.983C134.05 163.406 137.077 163.782 140.109 164.117C148.1 164.999 156.653 166.263 164.674 165.249C171.647 164.368 178.406 161.888 184.777 159.002C187.013 157.989 189.219 156.905 191.383 155.746C191.842 155.5 193.508 154.92 193.757 154.42C193.961 154.012 193.483 152.576 193.419 152.147C193.15 150.337 192.881 148.526 192.612 146.716L188.852 121.439L195.954 128.531C196.51 129.086 197.567 130.664 198.337 130.91C198.901 131.091 200.299 130.532 200.857 130.425C204.878 129.65 208.9 128.875 212.922 128.1C213.858 127.919 215.97 127.926 216.76 127.36C217.185 127.055 217.205 126.435 217.355 125.847C218.336 122.004 219.317 118.162 220.298 114.319C220.474 113.627 221.46 111.445 221.209 110.748C221.12 110.498 220.685 110.327 220.418 110.164C214.349 106.457 208.279 102.75 202.21 99.0429C198.885 97.0121 195.56 94.9813 192.235 92.9505C190.842 92.0997 189.131 90.5669 187.553 90.0911C186.574 89.7955 185.148 90.017 184.134 89.9879C182.074 89.9291 180.014 89.8703 177.954 89.8115C177.632 89.8024 176.502 89.5725 176.23 89.7625C176.004 89.9206 176.098 90.1411 176.024 90.518C175.843 91.4383 175.842 92.4309 175.752 93.3653C175.681 94.1151 175.823 95.4901 175.485 96.1688C175.269 96.6025 175.543 96.4297 175.251 96.6394C174.903 96.8889 173.793 96.8086 173.379 96.8566C171.361 97.0911 169.342 97.3256 167.323 97.5601C164.923 97.8387 162.496 98.3619 160.085 98.1209C156.429 97.7561 152.488 97.774 148.898 97.0039C147.965 96.8037 147.629 96.2782 146.91 95.5597C145.505 94.1573 144.115 92.7385 142.695 91.3508C141.999 90.6708 142.297 90.7861 141.58 91.0441C140.681 91.3671 139.769 92.147 138.955 92.6428C135.837 94.542 132.719 96.4412 129.601 98.3404L110.566 109.935C110.169 110.177 109.772 110.419 109.375 110.661Z" fill="#5CA91A"/>
<path fill-rule="evenodd" clip-rule="evenodd" d="M291.442 111.893C287.518 126.79 279.626 143.033 263.727 147.782C259.861 148.936 256.101 149.807 252.086 149.368C251.704 149.326 251.384 149.38 251.021 149.387C250.369 149.399 250.932 149.633 250.201 149.408C249.632 149.232 249.099 148.792 248.506 148.597C246.928 148.081 245.246 147.982 243.643 147.565C239.703 146.539 235.643 145.274 231.825 143.861C230.028 143.195 228.375 142.268 226.685 141.377C224.966 140.471 223.144 139.908 221.406 139.077C220.033 138.42 217.679 137.564 216.714 136.332C215.684 135.018 217.109 132.221 217.516 130.824C218.901 126.071 220.55 121.387 221.591 116.54C225.185 120.705 230.173 123.284 235.336 124.948C238.138 125.85 241.02 126.503 243.935 126.911C246.58 127.282 249.435 127.731 252.087 127.204C254.089 126.807 256.602 125.887 258.032 124.359C258.542 123.813 259.155 122.813 258.869 122.02C258.506 121.014 257.448 121.488 256.876 120.737C256.377 120.083 256.456 118.554 256.297 117.758C256.016 116.348 255.63 114.978 255.158 113.621C254.243 110.987 253.104 108.347 252.83 105.544C252.593 103.112 253.147 100.813 254.36 98.7029C254.933 97.7053 256.373 94.9918 257.778 95.1044C259.32 95.2281 257.24 101.731 257.172 103.057C256.902 108.315 257.608 113.918 260.306 118.527C261.339 120.292 262.833 122.346 265.039 122.565C267.375 122.796 269.26 120.958 270.372 119.098C273.085 114.56 271.717 108.334 270.343 103.577C268.657 97.7423 264.257 93.7203 261.475 88.4797C265.629 88.8974 267.853 91.5359 269.985 94.8838C272.332 98.5693 274.159 102.995 275.06 107.283C275.515 109.45 275.201 111.625 275.204 113.813C275.205 114.54 275.204 117.222 276.39 117.116C277.656 117.003 278.09 113.979 278.277 113.056C278.704 110.94 279.166 108.824 279.536 106.697C280.193 102.934 280.484 99.0802 281.27 95.3436C281.403 94.7119 281.667 92.9593 282.613 93.4326C283.342 93.7969 283.225 96.5074 283.252 97.1375C283.317 98.6901 283.409 100.242 283.422 101.797C283.44 104.1 282.981 106.484 283.206 108.774C283.353 110.27 284.156 111.923 285.152 109.905C286.139 107.905 286.34 105.409 286.89 103.258C287.468 100.999 288.065 98.7065 289.292 96.7002C289.632 96.1435 289.998 95.2598 290.755 95.5217C291.304 95.7121 291.71 97.0147 291.88 97.4746C292.646 99.5522 292.516 101.862 292.468 104.037C292.409 106.702 292.123 109.309 291.442 111.893ZM214.927 115.758C214.717 115.691 213.826 115.606 213.605 115.587C213.346 115.564 213.64 115.087 213.014 115.223C213.135 115.523 213.349 115.723 213.659 115.823C212.716 116.142 212.021 115.355 211.377 115.253C210.761 115.157 210.735 115.253 210.126 115.904C209.467 115.101 209.59 115.602 209.048 115.602C208.851 115.603 208.843 115.901 208.522 115.865C208.242 115.833 208.212 115.409 208.047 115.359C207.147 115.086 206.222 116.456 205.202 115.268C204.955 116.504 202.124 114.956 201.034 115.173C199.892 115.4 200.385 115.81 199.462 115.11C198.583 114.443 198.828 114.886 197.805 115.432C197.829 115.419 197.228 115.825 197.284 115.831C196.576 115.749 196.616 115.017 195.719 115.055C194.77 115.097 194.365 115.841 193.496 114.925C193.308 115.611 193.269 115.315 192.823 115.488C192.579 115.546 192.364 115.482 192.181 115.295C192.125 115.484 192.003 115.599 191.814 115.642C191.329 115.685 190.419 115.753 189.978 115.52C189.318 115.169 189.849 115.035 189.391 114.64C189.185 115.727 188.735 115.496 187.786 115.597C187.062 115.675 186.902 115.453 186.211 115.345C185.529 115.238 184.649 115.503 183.984 115.615C183.71 115.662 183.343 115.853 183.064 115.786C182.812 115.726 182.704 115.53 182.554 115.479C182.371 115.418 182.41 115.258 182.095 115.181C181.877 115.128 181.488 115.332 181.271 115.367C179.721 115.618 178.233 115.621 176.756 115.012C177.484 116.291 175.054 115.6 174.621 115.071C174.08 115.919 173.425 115.32 172.334 115.386C171.283 115.45 169.703 115.772 169.277 114.463C169.194 114.729 168.598 115.501 168.36 115.619C167.672 115.96 167.589 115.455 166.949 115.25C166.078 114.969 166.259 115.501 165.719 115.609C164.807 115.792 164.314 115.149 163.507 114.808C163.473 115.339 163.456 115.665 162.997 115.996C162.59 114.515 161.139 116.117 161.388 114.138C160.836 114.498 160.059 114.774 159.902 115.501C160.825 115.247 160.001 115.85 159.962 115.87C159.84 115.934 159.428 115.356 159.332 115.274C159.306 115.547 159.28 115.82 159.254 116.093C158.886 115.909 158.541 115.58 158.243 115.415C157.974 115.266 158.359 114.957 157.905 114.936C157.665 114.924 157.415 115.443 157.164 115.487C156.779 115.555 156.964 115.003 156.803 115.022C156.558 115.05 156.159 115.408 155.974 115.401C155.366 115.379 155.777 115.096 155.314 114.966C154.485 114.734 154.538 115.276 153.943 115.472C152.58 115.919 152.717 113.861 151.33 115.233C150.999 115.562 150.785 116.069 150.331 116.041C149.39 115.982 149.72 114.867 149.911 114.32C150.109 114.418 146.473 116.285 146.502 116.212C146.525 115.764 147.097 115.419 146.586 115.021C146.168 115.918 145.728 115.934 144.765 116.1C144.296 116.182 144.204 116.29 143.703 116.095C143.384 115.972 143.169 115.462 142.852 115.434C142.895 115.438 142.312 115.882 142.223 115.921C141.697 116.158 141.364 115.89 140.853 115.987C140.417 116.07 140.246 116.441 139.812 116.339C139.234 116.204 139.574 115.513 138.778 115.706C138.505 115.772 138.342 116.296 137.913 116.405C137.245 116.574 136.426 116.258 135.72 116.423C135.159 116.554 134.743 116.609 134.252 116.636C133.857 116.659 134.019 116.351 133.29 116.714L132.981 115.935C132.616 116.263 132.251 116.591 131.886 116.919C131.817 116.625 131.773 116.327 131.755 116.026C131.21 116.571 130.525 116.664 129.793 116.713C129.001 116.766 128.411 116.939 127.64 117.084C127.396 117.129 126.768 117.202 126.568 117.117C126.597 117.129 126.193 116.961 126.315 116.993C126.262 116.886 126.214 116.778 126.168 116.667C126.1 116.359 125.879 116.346 125.505 116.626C125.312 116.597 124.937 116.343 124.744 116.406C124.247 116.567 124.315 116.952 123.819 116.896C123.498 116.859 123.334 116.384 122.999 116.352C122.487 116.302 122.043 116.876 121.581 117.001C122.984 116.62 119.761 116.915 120.763 116.942C120.106 116.925 119.424 116.892 118.817 117.186C118.481 116.957 118.888 116.496 118.549 116.306C118.242 116.134 118.218 116.588 118.182 116.599C118.376 116.544 118.279 116.93 118.085 116.999C117.481 117.214 116.997 116.669 116.965 116.128C116.451 116.901 116.307 116.59 115.552 116.638C114.806 116.685 114.164 117.076 113.418 117.069C111.943 117.055 110.943 116.542 110.45 115.226C112.022 115.417 113.603 114.407 115.14 114.645C115.645 114.723 115.96 115.102 116.402 115.035C116.948 114.952 117.328 114.357 118.027 114.293C119.569 114.152 121.088 114.29 122.641 114.053C124.495 113.771 126.43 113.604 128.301 113.741C129.748 113.847 130.919 113.294 132.386 113.188C134.283 113.05 136.195 113.025 138.095 112.926C140.047 112.823 142.147 112.512 144.094 112.612C144.702 112.643 145.225 112.702 145.828 112.666C146.083 112.651 146.324 112.477 146.592 112.503C146.941 112.537 147.09 112.894 147.452 112.881C148.066 112.86 148.723 112.354 149.453 112.34C150.654 112.318 151.85 112.32 153.054 112.252C154.114 112.192 155.25 111.944 156.305 111.958C157.049 111.967 157.233 112.601 157.667 112.667C158.447 112.784 162.393 110.539 162.733 112.554C164.788 111.148 167.542 112.339 169.829 112.075C172.766 111.735 175.757 112.038 178.714 111.917C181.723 111.794 184.819 111.908 187.816 112.191C189.058 112.309 190.257 112.419 191.502 112.348C192.057 112.316 192.699 112.174 193.254 112.302C193.388 112.333 194.418 113.052 194.29 113.072C194.852 112.568 194.472 112.494 195.461 112.468C196.223 112.448 196.944 112.613 197.702 112.657C199.063 112.738 200.434 112.549 201.792 112.591C202.926 112.626 204.034 112.793 205.174 112.801C206.402 112.81 207.853 112.845 208.742 113.835C208.648 113.524 208.554 113.213 208.46 112.902C209.832 113.01 211.187 113.499 212.573 113.27C212.222 113.606 211.866 113.88 211.732 114.373C212.48 114.278 212.986 113.756 213.773 113.752C214.434 113.748 214.572 114.08 215.27 113.651C215.356 114.176 215.441 114.701 215.527 115.226C216.494 114.999 215.86 114.278 215.93 113.628C216.716 113.864 217.381 113.593 217.071 114.723C216.832 115.594 215.745 116.024 214.927 115.758ZM213.568 125.464C213.231 126.41 210.316 125.869 209.627 125.769C208.736 125.64 207.717 125.436 206.897 125.334C206.798 125.203 206.68 125.092 206.543 125C206.44 125.144 206.309 125.246 206.152 125.306C205.775 125.388 205.774 125.777 205.279 125.691C205.256 126.266 205.655 125.939 205.962 126.148C205.19 126.665 205.543 126.07 205.11 126.079C205.003 125.927 204.853 125.868 204.662 125.9C204.418 125.964 204.193 126.068 203.987 126.214C203.795 126.417 203.63 126.428 203.492 126.245C203.36 126.113 203.199 126.031 203.009 126C202.249 126.124 202.037 126.461 201.181 126.406C199.958 126.327 198.635 126.649 197.432 126.479C196.686 126.374 195.439 125.202 195.101 126.345C194.585 125.498 193.763 124.922 193.27 124.056C195.57 123.923 197.869 123.765 200.171 123.682C202.187 123.609 204.392 123.836 206.275 123.741C208.04 123.652 209.909 123.457 211.71 123.296C213.62 123.125 214.252 123.544 213.568 125.464ZM153.56 125.603C154.396 125.834 155.191 125.31 156.001 125.476C156.269 125.531 156.823 126.018 156.945 126.028C157.168 126.046 157.824 125.567 158.105 125.503C159.884 125.098 162.039 125.141 163.818 125.39C164.761 125.521 164.905 125.09 165.728 124.881C166.583 124.663 167.799 124.831 168.699 124.77C170.818 124.629 172.935 124.729 175.039 124.575C177.199 124.416 179.348 124.329 181.51 124.218C182.982 124.143 186.519 123.303 187.739 124.396C188.745 125.297 187.449 126.861 186.443 127.218C185.69 127.485 185.33 126.923 184.771 126.977C184.135 127.037 184.357 127.789 183.789 127.092C183.437 127.785 181.225 127.49 180.591 127.536C179.21 127.635 178.042 127.913 177.101 126.624C177.165 126.996 177.229 127.367 177.293 127.739C176.046 127.072 174.708 127.286 173.626 127.518C173.09 127.633 171.445 128.428 170.864 128.085C170.465 127.849 171.169 127.446 170.495 127.245C170.142 127.14 169.532 127.726 169.1 127.697C167.906 127.614 168.245 126.811 167.072 127.833C166.674 127.49 166.542 126.906 166.594 126.404C165.742 127.131 165.813 128.343 164.29 128.121C163.722 128.039 163.618 127.459 163.322 127.353C162.691 127.125 162.619 127.534 162.073 127.858C161.867 127.98 161.615 128.177 161.373 128.202C160.874 128.251 160.795 128.022 160.726 128.03C160.395 128.066 159.976 128.235 159.583 128.115C159.229 128.006 159.126 127.383 158.503 127.528C157.907 127.668 157.902 128.073 158.01 128.679C157.423 128.618 157.067 128.291 156.628 127.936C156.184 128.971 155.25 128.114 154.733 128.987C154.059 128.184 153.627 128.405 152.792 127.62C152.833 127.947 152.874 128.275 152.915 128.603C152.263 128.477 151.973 128.017 151.417 128.625C150.878 127.62 149.241 129.053 148.401 128.081C148.026 129.311 145.547 129.017 144.5 129.038C143.573 129.057 142.886 128.982 141.979 129.197C141.178 129.387 140.068 129.585 139.314 129.498C138.822 129.441 138.284 129.35 137.671 129.417C136.787 129.513 136.023 129.971 135.107 129.754C133.728 129.428 132.882 127.617 134.419 126.821C135.47 126.276 137.364 126.478 138.52 126.378C140.438 126.211 142.586 125.862 144.506 126.021C146.004 126.145 147.368 125.787 148.896 125.636C150.047 125.523 151.932 125.318 152.682 126.458C152.97 126.125 152.94 125.432 153.56 125.603ZM132.572 141.208C132.366 140.183 141.132 139.618 142.002 139.551C143.828 139.411 145.66 139.31 147.491 139.264C148.996 139.225 150.4 139.513 151.906 139.282C153.312 139.066 155.009 138.624 156.232 139.619C156.412 138.258 161.688 138.921 162.692 138.925C167.062 138.941 171.243 138.951 175.47 138.68C177.885 138.526 180.45 138.317 182.866 138.438C183.956 138.493 184.833 138.783 185.917 138.531C186.624 138.367 187.386 138.025 188.062 138.508C188.853 139.074 189.191 140.996 188.646 141.798C188.249 142.383 187.897 142.318 187.263 142.217C186.288 142.062 185.564 141.836 184.57 142.233C184.731 142.168 183.904 142.353 183.973 142.348C182.847 142.432 181.302 143.218 180.332 142.312C180.721 142.38 181.286 141.686 180.796 141.629C180.428 141.586 180.194 141.98 179.907 142.113C178.925 142.565 178.422 142.423 177.835 141.475C176.652 142.499 176.524 142.216 176.005 140.955C175.605 141.263 175.519 141.991 175.204 142.23C175.158 142.266 175.351 142.708 175.124 142.69C174.913 142.673 174.844 142.327 174.682 142.3C174.578 142.282 174.525 141.979 174.425 141.961C174.318 141.941 174.207 142.135 174.086 142.129C173.761 142.114 172.831 142.805 173.164 141.834C172.672 142.461 172.46 142.062 172.282 141.491C171.713 141.924 171.145 142.356 170.576 142.788C170.311 142.053 169.856 142.253 169.283 142.51C169.456 141.999 169.348 141.516 168.915 141.871C168.664 142.077 168.496 142.73 168.239 143.007C167.201 141.955 166.824 142.244 165.389 142.38C164.841 142.432 164.161 142.533 163.672 142.203C163.241 141.912 162.998 140.845 162.263 141.707C162.426 141.515 162.17 142.988 162.124 143.222C161.8 143.003 161.525 142.734 161.298 142.415C160.874 143.253 159.763 142.501 158.853 142.673C157.419 142.942 155.941 143.396 154.675 142.33C154.585 142.674 153.548 143.112 153.547 143.126C153.608 142.516 153.993 142.731 153.207 142.615C153.063 142.593 152.899 142.854 152.762 142.882C152.293 142.979 151.746 142.887 151.274 142.874C149.31 142.817 147.512 143.252 145.573 143.41C144.919 143.463 144.144 143.567 143.53 143.321C142.898 143.067 142.915 142.778 142.275 142.942C142.477 142.89 141.875 143.523 141.908 143.499C141.822 143.562 141.463 143.253 141.336 143.276C141.298 143.411 141.261 143.546 141.224 143.681C141.07 143.662 140.916 143.643 140.762 143.624C140.34 143.68 139.959 143.254 139.563 143.239C139.636 143.242 138.494 143.667 138.546 143.693C137.749 143.295 137.977 143.41 136.966 143.652C136.01 143.881 135.058 143.828 134.077 143.971C131.223 144.385 132.924 142.955 132.572 141.208ZM130.052 155.474C129.516 154.713 130.943 154.45 131.399 154.383C132.149 154.272 133.144 154.492 133.644 154.373C134.405 154.192 135.139 153.76 135.996 153.643C137.077 153.495 138.167 153.471 139.253 153.378C139.614 153.347 140.062 153.223 140.414 153.244C140.938 153.275 141.156 153.553 141.579 153.555C142.299 153.558 143.188 153.103 143.927 153.02C144.872 152.912 145.827 152.862 146.778 152.815C148.78 152.716 150.762 152.757 152.763 152.755C153.676 152.753 156.106 151.806 156.561 152.868C157.194 152.063 158.817 152.173 159.722 152.15C161.316 152.109 162.893 151.955 164.485 151.881C165.849 151.818 167.372 152.11 168.711 151.905C169.449 151.792 169.694 151.556 170.531 151.663C171.152 151.742 172.1 151.413 172.634 151.558C172.606 151.551 173.3 151.981 173.083 151.994C173.322 151.979 173.307 152.146 173.57 152.071C173.916 151.974 173.757 151.54 174.472 151.386C175.588 151.145 177.076 151.424 178.235 151.362C179.359 151.302 180.482 151.276 181.608 151.282C182.126 151.284 182.766 151.16 183.271 151.261C183.518 151.311 184.043 151.633 184.252 151.601C184.845 151.508 185.147 151.096 185.949 151.122C186.858 151.15 187.676 151.138 188.58 151.068C189.455 151.002 189.596 150.877 190.03 151.605C190.46 152.327 190.578 153.268 189.787 153.759C190.301 153.725 190.933 154.413 190.328 154.794C189.953 155.03 189.203 154.498 188.755 154.537C188.202 154.584 187.769 154.876 187.168 154.894C186.536 154.913 185.895 155.073 185.272 155.085C184.623 155.097 184.132 154.807 183.517 154.931C182.975 155.04 182.918 155.484 182.266 155.094C181.942 154.9 181.887 154.182 181.445 154.175C180.852 154.166 181.089 154.931 180.748 155.286C180.656 154.191 179.811 156.003 179.475 154.674C179.166 155.115 178.019 155.732 177.464 155.378C176.957 155.055 177.125 154.324 176.914 153.797C176.563 154.744 175.621 155.726 175.707 154.002C175.249 154.566 174.012 154.477 174.322 155.462C173.95 155.455 173.861 154.923 173.547 154.883C173.277 154.848 173.062 155.056 173.02 155.053C173.169 155.065 172.577 155.262 172.567 155.264C172.968 155.183 171.411 155.044 171.676 155.046C171.315 155.043 170.873 155.339 170.45 155.338C170.066 155.337 169.683 155.186 169.303 155.143C168.318 155.03 168.523 155.246 167.905 155.556C167.676 155.67 167.618 155.864 167.293 155.84C167.053 155.822 166.963 155.509 166.936 155.506C166.599 155.472 166.848 155.359 166.324 155.411C166.264 155.515 166.204 155.618 166.144 155.721C165.954 155.963 165.709 156.024 165.407 155.903C164.632 156.069 162.06 156.79 162.312 155.455C161.918 155.648 161.524 155.841 161.13 156.033C160.961 154.957 158.82 156.384 158.341 156.456C157.728 156.548 157.671 156.313 157.091 156.188C156.986 156.165 156.777 156.51 156.532 156.461C155.895 156.333 155.782 156.269 155.673 155.578C155.219 156.426 154.842 156.047 154.018 156.186C153.836 156.217 153.72 156.576 153.458 156.514C153.27 156.469 153.265 156.125 153.135 156.081C153.018 156.04 153.036 155.769 152.864 155.73C152.666 155.686 151.993 156.238 151.799 156.323C151.364 156.515 150.648 156.833 150.223 156.737C149.697 156.62 149.931 156.23 149.188 156.274C148.016 156.343 147.527 157.34 146.797 155.768C146.468 156.398 146.51 156.569 145.981 156.777C145.591 156.93 144.601 156.77 144.087 156.751C141.89 156.67 139.731 157.418 137.552 157.222C136.595 157.136 135.787 156.945 134.821 157.101C133.806 157.266 132.813 157.508 131.782 157.606C131.259 157.655 130.164 157.806 129.907 157.136C129.681 156.547 130.525 156.145 130.052 155.474ZM134.36 179.642C131.511 181.548 129.151 184.151 126.535 186.355C123.912 188.565 121.831 191.021 119.472 193.469C117.291 195.73 115.287 197.871 112.651 199.58C110.982 200.662 109.494 201.993 107.78 203.013C106.496 203.777 104.552 204.782 105.178 202.445C105.82 200.051 107.005 197.63 108.034 195.394C109.497 192.215 110.971 189.066 112.554 185.947C113.149 184.775 113.482 183.609 114.425 182.675C115.452 181.659 116.17 180.333 117.295 179.373C122.023 175.336 129.149 178.455 134.36 179.642ZM143.298 181.011C142.006 181.688 140.559 181.856 139.19 182.304C138.022 182.686 136.937 183.365 135.682 183.415C136.824 182.557 137.806 181.391 139.094 180.74C140.544 180.007 141.859 180.541 143.298 181.011ZM200.027 186.657C195.273 185.053 190.847 182.689 186.216 180.787C185.417 180.459 179.166 178.4 179.293 177.42C183.673 176.617 188.185 175.24 192.576 176.742C196.571 178.108 199.82 181.384 202.912 184.127C203.719 184.842 208.709 188.101 208.263 189.139C207.953 189.858 205.549 189.662 204.981 189.514C204.248 189.323 203.825 188.878 203.25 188.389C202.288 187.572 201.224 187.061 200.027 186.657ZM191.251 159.857C191.973 159.193 192.405 158.185 193.095 157.572C193.981 156.784 195.411 157.167 196.38 157.577C199.287 158.805 201.771 160.87 204.661 162.152C207.862 163.572 210.634 165.471 213.522 167.427C216.161 169.215 219.015 170.695 221.71 172.402C224.455 174.141 227.529 175.271 230.312 176.949C233.144 178.656 235.966 180.37 238.688 182.252C243.542 185.607 248.595 189.052 252.186 193.822C254.032 196.273 255.76 199.054 257.114 201.807C258.345 204.31 259.68 207.784 258.085 210.388C256.553 212.888 253.941 214.858 251.731 216.723C250.894 217.43 250.097 218.288 249.013 218.594C247.693 218.966 246.153 218.863 244.796 218.973C237.539 219.562 230.778 219.006 223.626 217.708C216.73 216.457 209.806 215.756 202.857 214.887C198.937 214.396 195.017 213.824 191.15 213.007C189.497 212.658 187.815 212.255 186.198 211.779C184.785 211.364 183.597 210.449 182.145 210.086C175.981 208.547 168.928 207.958 162.826 205.369C168.226 203.125 173.965 201.769 179.5 199.904C185.325 197.942 191.014 196.295 197.154 195.737C200.314 195.45 203.141 194.643 206.181 193.799C209.077 192.994 212.101 192.747 215.076 192.387C216.399 192.226 220.174 192.466 220.613 190.737C221.265 188.162 217.556 187.865 215.974 188.096C213.731 188.423 211.881 188.983 210.164 187.142C208.411 185.263 206.708 183.339 204.923 181.483C201.613 178.042 198.202 174.063 193.524 172.519C187.817 170.636 181.198 172.423 175.504 173.494C169.489 174.625 163.484 175.708 157.582 177.353C155.138 178.033 151.986 179.533 149.449 179.292C146.949 179.054 144.117 178.645 141.702 177.924C140.609 177.598 139.71 176.994 138.732 176.43C137.46 175.697 136.066 175.228 134.717 174.658C131.987 173.506 129.326 172.445 126.382 171.992C123.902 171.61 121.268 171.384 118.865 172.253C116.507 173.106 114.418 174.843 112.773 176.698C110.986 178.713 109.51 180.972 108.045 183.224C107.342 184.304 106.484 185.248 105.756 186.304C105.144 187.191 104.787 188.177 104.14 189.04C102.693 190.969 101.71 193.437 100.832 195.682C99.8574 198.175 98.7744 201.139 99.0071 203.851C99.095 204.876 99.1869 206.234 99.5834 207.184C100.088 208.393 100.807 208.363 101.844 208.819C103.624 209.602 104.124 211.767 106.425 211.345C108.584 210.949 110.456 209.17 112.031 207.752C114.084 205.905 116.049 203.956 118.013 202.015C120.029 200.023 122.015 197.814 123.619 195.47C124.25 194.547 124.742 193.505 125.488 192.665C126.438 191.595 127.504 191.466 128.795 191.04C140.075 187.313 151.411 183.718 163.044 181.257C165.831 180.667 168.64 179.906 171.378 179.122C174.282 178.289 175.786 179.169 178.182 180.753C183.189 184.064 189.107 186.395 194.682 188.555C196.437 189.235 199.232 189.278 200.604 190.619C192.47 191.859 184.718 194.245 176.873 196.621C173.005 197.792 169.092 198.808 165.209 199.928C161.325 201.048 157.589 202.5 153.758 203.763C149.945 205.02 145.916 205.533 142.067 206.693C138.137 207.877 134.224 208.691 130.19 209.41C126.117 210.137 122.073 210.976 117.986 211.626C116.115 211.924 114.244 212.233 112.393 212.643C110.583 213.044 108.834 214.004 107.014 214.227C98.8871 215.221 90.9201 217.437 82.8252 218.689C76.7809 219.624 66.2657 220.928 62.3463 214.864C58.4049 208.766 63.2403 201.652 67.5547 197.292C70.2359 194.582 73.2488 192.197 76.4099 190.075C79.7929 187.804 83.0478 185.352 86.4315 183.085C94.089 177.954 102.392 173.769 110.619 169.646C114.568 167.667 118.383 165.544 122.225 163.372C124.131 162.294 125.186 164.034 126.693 165.216C127.879 166.146 130.055 168.438 131.714 167.379C131.778 167.76 131.842 168.142 131.905 168.524C132.391 168.302 132.877 168.081 133.363 167.859C133.689 168.715 133.651 169.247 134.563 169.696C135.122 169.972 136.317 170.304 136.851 169.818C136.959 170.156 137.068 170.494 137.177 170.832C137.644 170.796 137.734 169.461 137.822 169.149C138.621 170.317 139.727 171.293 141.133 171.622C141.139 171.546 140.904 170.587 140.914 170.581C141.359 170.309 141.92 171.475 142.155 171.724C142.937 172.551 143.403 172.423 144.267 171.755C144.329 171.823 144.622 172.586 144.664 172.572C144.851 172.513 145.206 171.837 145.245 171.776C145.191 172.665 146.907 172.844 147.513 172.653C147.377 172.392 147.241 172.132 147.105 171.872C149.216 171.59 150.044 173.832 152.07 173.718C153.568 173.634 152.367 173.307 153.215 172.665C153.955 172.105 154.087 173.331 154.16 173.292C154.301 173.144 154.41 172.974 154.488 172.782C154.762 173.832 156.944 174.774 156.719 173.047C157.577 173.39 158.186 173.96 159.136 174.081C160.291 174.227 161.524 173.982 162.676 173.886C165.158 173.68 167.498 173.173 169.735 172.036C171.061 171.362 172.473 170.751 173.72 169.937C174.763 169.256 176.743 167.19 178.132 168.08C177.777 167.03 179.452 168.003 179.505 166.651C179.774 166.854 180.043 167.056 180.312 167.259C180.474 166.906 180.429 166.348 180.645 166.04C180.941 165.616 181.086 165.866 181.339 165.628C181.622 165.361 181.869 164.647 182.209 164.444C182.559 164.235 182.97 164.484 183.346 164.302C183.919 164.023 186.384 161.305 185.967 163.634C187.027 163.274 186.21 162.945 186.342 162.238C186.608 160.823 187.255 161.842 187.9 161.965C188.955 162.167 188.934 161.295 189.523 160.661C190.06 160.081 191.071 159.822 190.722 158.816C191.12 159.03 191.205 159.45 191.251 159.857ZM127.62 129.63C126.789 130.556 126.166 130.16 125.242 130.024C125.143 129.693 124.974 129.647 124.735 129.886C124.461 130.044 124.166 130.148 123.851 130.197C123.093 130.384 122.305 130.304 121.563 130.588C121.585 130.339 121.846 129.898 121.679 129.645C120.899 130.185 120.415 130.528 119.457 130.538C118.681 130.546 117.319 129.954 116.675 130.662C116.655 130.386 116.635 130.111 116.615 129.835C116.3 129.992 116.025 130.202 115.791 130.466C115.747 130.057 115.723 129.748 115.452 129.418C114.94 130.472 114.378 130.497 113.382 130.094C113.522 130.151 112.385 129.485 112.429 129.669C112.069 128.155 117.742 128.28 118.337 128.22C119.824 128.07 121.311 127.983 122.801 127.846C124.213 127.716 125.267 127.496 126.245 128.674C125.809 126.972 129.931 127.056 127.62 129.63ZM62.5849 103.231C62.7412 105.805 63.3139 108.54 62.3133 111.017C61.5088 113.008 59.9041 115.256 58.1754 116.556C54.6358 119.216 51.6356 115.961 51.143 112.383C50.6294 108.652 51.6474 104.092 54.8604 101.791C56.7803 100.417 58.6393 100.512 60.8498 100.964C61.3689 101.07 62.2116 101.03 62.5084 101.545C62.578 101.666 62.5156 103.229 62.5849 103.231ZM109.596 137.519C108.985 137.827 108.345 138.008 107.806 138.428C107.619 138.574 107.555 138.906 107.356 139.029C106.995 139.252 106.478 139.104 106.101 139.289C105.477 139.593 105.03 140.03 104.289 140.311C103.188 140.728 102.222 141.3 101.182 141.843C99.4481 142.747 97.5874 143.523 95.7748 144.259C94.8598 144.63 92.3293 145.354 92.4169 146.694C92.2123 146.749 92.0031 146.301 91.5758 146.337C90.9891 146.386 90.214 147.064 89.605 147.231C88.4658 147.543 87.5838 147.57 87.5838 149.023C87.2213 148.776 87.1291 148.174 86.6466 148.094C86.1036 148.004 85.8751 148.59 85.4407 148.772C84.9291 148.987 84.293 148.781 83.7863 149.009C83.5646 149.244 83.3185 149.448 83.0475 149.623C82.7719 149.654 82.4977 149.646 82.2247 149.597C81.1492 149.825 80.1594 150.23 79.0813 150.44C78.0307 150.645 77.3112 150.72 77.7528 151.962C76.6289 152.182 76.3543 150.989 75.0863 151.426C73.5319 151.96 72.0792 152.345 70.4565 152.671C69.6292 152.837 68.7645 153.209 67.9309 153.296C67.3363 153.358 66.7812 153.145 66.1958 153.211C65.49 153.29 64.9229 153.617 64.1926 153.63C63.4999 153.642 62.7726 153.517 62.0923 153.395C62.1884 153.669 62.3087 153.932 62.4532 154.184C61.9828 154.085 61.7657 153.52 61.3669 153.436C60.9485 153.348 60.5735 153.78 60.2251 153.684C60.0767 153.643 60.1754 153.186 59.9099 153.098C59.668 153.019 59.566 153.113 59.3261 153.075C59.246 153.063 58.2425 153.008 58.0826 153.093C57.8031 153.241 58.0859 153.519 58.0303 153.56C57.0866 154.258 57.0751 153.881 56.6544 153.152C56.0366 152.081 55.2916 152.757 54.1687 152.569C52.9174 152.36 51.9314 152.912 50.6997 152.834C49.3712 152.749 47.81 151.755 46.6354 151.175C44.0991 149.921 41.6258 148.735 39.4957 146.836C35.3318 143.125 31.9442 138.56 29.9468 133.335C27.8008 127.721 27.3941 121.866 27.5664 115.911C27.67 112.329 27.9567 108.749 28.5213 105.209C28.9099 102.774 28.9913 98.4473 31.7366 97.3384C32.2086 103.04 30.7193 108.849 31.6585 114.514C31.9412 116.22 32.631 118.493 33.9363 119.757C35.8689 121.627 36.3209 118.924 36.4958 117.43C36.8211 114.656 37.4255 111.897 37.8534 109.137C38.281 106.377 38.5831 103.587 39.1777 100.856C39.3944 99.8605 41.1426 92.5695 42.4257 92.9148C42.1661 98.2188 41.4767 103.432 41.4496 108.755C41.4388 110.89 41.2476 113.146 41.5558 115.267C41.7144 116.358 42.7085 119.562 44.4181 119.294C46.0003 119.047 44.2609 116.791 44.1131 115.921C43.7218 113.618 44.2207 110.753 44.5855 108.467C45.2759 104.14 46.8162 99.7096 49.3339 96.0944C51.5889 92.8572 55.0608 89.7755 59.2434 90.3463C61.0305 90.5904 62.4247 91.0342 63.3227 92.6661C64.0272 93.9467 66.8025 95.4019 65.1942 97.0052C63.73 98.4649 61.362 97.2965 59.7344 96.9486C57.7417 96.5225 55.6061 97.035 53.9396 98.2028C51.0802 100.206 49.4506 103.787 48.9188 107.146C48.2019 111.674 50.1182 123.528 57.1761 120.871C61.8648 119.106 65.3962 112.758 65.0026 107.897C64.8447 105.951 64.0841 102.258 66.776 101.732C70.2248 101.059 70.7118 104.861 70.3627 107.331C69.855 110.925 67.9558 114.267 65.7829 117.108C63.8892 119.584 61.6866 121.133 59.4078 123.178C58.7331 123.783 57.0124 125.144 57.3013 126.271C57.6181 127.505 60.3225 127.856 61.4055 128.059C66.7626 129.061 72.8039 128.139 78.1519 127.439C89.1437 125.999 99.9911 122.454 109.004 115.936C109.368 119.969 109.827 123.988 109.996 128.036C110.078 130.001 110.099 131.994 110.324 133.948C110.462 135.15 110.962 136.829 109.596 137.519ZM79.1179 151.571C78.6864 151.797 79.1529 150.432 79.0329 150.883C79.6775 151.114 79.706 151.344 79.1179 151.571ZM124.715 102.766C125.4 102.011 127.272 100.215 127.866 101.919C128.087 101.193 128.115 100.116 128.969 101.098C129.308 99.8922 133.055 100.005 133.983 99.9518C136.955 99.7819 139.939 99.691 142.9 99.3958C148.986 98.7893 155.177 99.1022 161.284 99.0822C162.607 99.078 163.926 99.0063 165.239 99.1981C166.506 99.3833 167.837 99.9027 169.128 99.7129C170.277 99.544 171.029 99.2275 172.211 99.363C173.625 99.525 174.998 99.6402 176.424 99.635C182.734 99.6121 189.041 99.8677 195.353 99.8775C196.583 99.8795 198.056 99.6392 199.21 100.162C199.638 100.355 200.105 101 200.432 101.07C200.806 101.151 200.584 100.567 201.084 100.831C201.755 101.184 201.236 102.269 200.793 102.441C201.058 102.338 200.313 102.237 200.388 102.233C200.035 102.252 199.733 102.523 199.354 102.506C198.776 102.481 198.292 102.128 197.826 101.818C197.818 101.945 198.074 102.789 197.782 102.832C197.531 102.869 197.295 102.036 197.27 101.842C195.858 103.088 194.362 102.393 192.61 102.551C191.367 102.663 188.776 103.492 187.909 102.195C187.873 102.471 187.762 102.712 187.577 102.919C187.33 103.297 187.115 103.265 186.934 102.822C186.873 102.825 186.27 102.956 186.258 102.955C185.833 102.922 185.282 102.769 184.85 102.732C184.181 102.675 184.304 103.162 183.771 103.17C183.48 103.174 182.738 102.754 182.231 102.728C181.352 102.682 180.455 103.054 179.588 102.942C178.991 102.864 178.451 102.378 177.866 102.359C177.136 102.335 176.9 102.892 176.322 102.11C176.203 102.078 176.13 102.538 176.083 102.546C176.094 102.544 175.533 102.627 175.466 102.653C175.351 102.697 174.902 102.902 174.765 102.905C174.47 102.91 174.31 102.699 173.997 102.694C173.48 102.685 171.828 103.141 171.874 102.183C170.027 102.868 168.451 102.601 166.555 102.763C165.686 102.837 165.139 102.721 164.312 102.561C163.276 102.361 162.588 102.612 161.554 102.663C160.561 102.712 160.248 102.292 159.41 101.912C159.079 101.763 158.86 101.565 158.455 101.648C158.224 101.696 158.388 102.085 158.32 102.112C157.963 102.249 157.715 102.104 157.226 102.137C156.324 102.199 155.965 102.952 155.038 102.245C155.346 102.207 155.655 102.17 155.963 102.132C155.076 101.756 153.906 101.565 154.121 102.933C153.365 102.827 154.019 102.312 153.648 102.128C153.276 101.944 152.86 102.252 152.392 102.404C151.156 102.805 150.125 102.606 148.836 102.534C147.372 102.452 143.946 103.647 142.897 102.096C142.865 102.423 142.514 103.334 142.047 103.291C141.895 103.277 142.32 102.31 142.368 102.207C142.127 102.72 141.029 102.817 140.488 103.083C140.549 102.807 140.61 102.532 140.67 102.257C140.168 102.792 139.924 102.466 139.333 102.644C139.074 102.723 138.701 103.255 138.48 103.288C138.222 102.989 137.899 102.861 137.509 102.902C137.25 102.838 136.991 102.825 136.732 102.864C135.694 102.94 134.749 103.516 133.717 103.124C132.824 102.783 132.478 101.908 131.946 103.3C131.806 103.053 131.666 102.805 131.526 102.558C131.353 102.827 131.18 103.095 131.007 103.363C130.331 102.921 130.29 102.665 129.512 102.827C129.33 102.9 129.142 102.89 128.951 102.797C128.905 102.933 128.859 103.069 128.814 103.205C128.795 103.548 128.694 103.661 128.509 103.545C128.353 103.489 128.212 103.404 128.087 103.29C127.573 103.329 126.916 103.465 126.364 103.39C126.15 103.361 124.814 102.656 124.715 102.766ZM140.458 93.5524C140.519 93.6453 140.58 93.7383 140.64 93.8312C139.805 94.2724 139.608 94.0191 139.522 93.1334C139.93 93.1413 140 93.859 140.458 93.5524ZM140.976 93.0326C141.378 93.21 141.839 93.5586 142.218 93.0915C142.473 93.8328 140.579 94.8445 140.976 93.0326ZM143.573 93.3599C144.418 93.9307 142.392 93.4719 142.395 93.4728C142.76 93.1367 143.152 93.0991 143.573 93.3599ZM150.836 90.1777C151.125 91.6387 151.924 91.5972 153.213 90.918C155.093 89.9273 155.411 88.305 155.542 86.3678C155.668 84.5104 155.895 83.7914 157.81 84.1792C159.147 84.4499 160.278 84.2224 161.626 84.1851C163.064 84.1455 163.571 84.3651 163.686 85.8451C163.802 87.327 164.066 88.4523 165.141 89.5801C166.235 90.7266 167.693 91.4113 169.113 92.0527C169.844 92.3823 170.53 92.7371 171.339 92.8084C171.652 92.8363 173.282 92.6301 173.316 93.1459C173.341 93.5337 171.084 94.6275 170.844 94.7578C169.797 95.3272 168.753 95.8381 167.609 96.1831C164.978 96.9771 162.188 97.0239 159.463 96.9758C155.068 96.8986 148.995 95.0399 146.368 91.1412C147.857 90.8202 149.346 90.4988 150.836 90.1777ZM150.442 77.5245C149.746 76.9409 149.296 76.0595 148.719 75.3686C148.427 75.0201 148.214 74.9091 147.937 74.7347C147.645 74.5511 147.48 74.8109 147.237 74.3792C146.607 73.2635 148.549 71.6935 146.49 71.2641C145.793 71.1185 144.116 71.6706 143.913 70.6724C143.625 69.2608 146.319 69.1685 146.953 68.4521C148.214 67.0277 147.358 64.613 148.126 62.9697C148.853 61.4131 150.729 61.1365 152.209 60.6688C154.272 60.0176 156.36 59.6399 158.455 59.1185C159.92 58.7542 162.353 57.2903 163.711 58.5837C161.615 59.0491 162.833 59.7796 164.231 60.192C165.813 60.6594 167.49 60.8417 169.13 60.9719C170.818 61.1058 172.538 61.1313 174.206 60.7949C175.748 60.4836 177.471 59.143 179.088 59.4864C178.191 61.0465 175.518 61.8988 173.894 62.3076C173.066 62.5157 172.536 62.4506 172.647 63.4825C172.755 64.4827 173.624 65.4855 173.821 66.5273C174.08 67.9062 173.853 69.1731 173.363 70.4698C172.88 71.7456 172.767 71.9121 173.189 73.1313C173.847 75.0296 172.433 77.1275 171.127 78.506C165.846 84.0797 155.738 81.9684 150.442 77.5245ZM163.863 44.2125C163.866 44.2479 163.884 44.2695 163.863 44.2125V44.2125ZM165.507 58.2787C165.288 58.4423 164.027 58.7853 164.08 58.2924C164.151 57.632 165.287 57.8705 165.507 58.2787ZM168.382 44.9368C168.086 44.7162 167.257 44.8069 167.863 43.9707C168.061 44.3385 168.222 44.6377 168.382 44.9368ZM148.489 39.6508C148.867 38.6706 149.284 37.7588 149.454 36.7154C149.559 36.0726 149.351 35.3385 150.249 35.2377C149.104 34.7382 149.092 32.767 149.025 31.7452C148.932 30.3378 148.487 28.4537 149.106 27.1439C149.741 25.7984 150.597 25.8206 150.856 27.423C150.957 28.0504 150.57 28.2534 150.497 28.6903C150.353 29.5547 150.639 29.3652 151.197 28.7067C151.427 29.376 151.515 30.3817 152.452 30.3392C152.39 30.1582 152.031 29.7589 152.151 29.534C152.335 29.1887 153.235 29.7163 153.349 29.7962C154.171 30.3709 154.349 30.8955 153.763 31.6205C154.574 31.7079 153.893 32.4181 154.417 32.6033C155.216 32.8858 154.68 31.5475 154.593 31.3122C155.08 31.502 155.243 31.7187 155.551 32.1029C155.732 32.368 155.896 32.6433 156.045 32.928C156.21 33.4477 156.551 33.578 157.067 33.3188C158.102 33.6434 159.531 33.5927 160.459 34.1602C160.882 34.4194 161.035 34.9866 161.389 35.202C161.787 35.4445 162.321 35.3345 162.749 35.4867C162.592 35.8422 162.719 36.0346 163.128 36.0647C163.446 36.0938 163.754 36.1655 164.052 36.2794C164.275 36.1115 164.517 35.979 164.779 35.8824C164.955 36.1924 165.203 36.2689 165.525 36.1128C166.479 36.2915 166.938 36.6525 167.544 37.1922C168.089 37.6766 167.645 37.7159 168.242 37.673C168.482 37.6557 168.902 37.2492 169.45 37.3284C169.765 37.3899 170.07 37.4871 170.363 37.62C170.679 37.891 171.016 37.925 171.371 37.7224C171.949 38.0049 172.006 38.5053 172.711 38.5737C173.49 38.6496 173.239 37.6782 173.774 39.0483C174.495 37.5958 174.759 39.9097 175.503 40.0966C176.273 40.2903 176.357 39.6655 177.016 40.3483C177.214 40.5528 177.203 40.8909 177.425 41.1079C177.789 41.463 178.281 41.392 178.597 41.8764C178.421 41.606 178.638 42.8343 178.635 42.7937C178.684 43.3357 178.202 43.9428 179.189 43.8967C179.178 43.9536 178.704 44.6445 178.612 44.5663C178.589 44.4875 178.57 44.4076 178.555 44.3268C178.449 44.3722 178.402 45.0304 178.421 45.1466C178.505 45.1597 178.539 45.0975 178.524 44.9601C178.362 45.4677 178.606 45.7901 178.295 46.2718C178.096 46.5798 177.55 46.8112 177.26 47.0013C176.56 47.4602 175.875 47.9204 175.193 48.4087C173.601 49.5476 171.819 50.9209 169.814 51.1585C170.821 50.1701 176.613 46.4296 173.708 45.3557C173.169 45.1568 172.188 44.9682 171.625 44.9263C170.924 44.8743 170.199 45.2756 169.426 45.0252C168.493 44.7234 168.845 43.8466 168.275 43.5321C167.065 42.8648 167.351 44.4341 166.97 44.8452C166.57 44.4253 166.656 44.221 166.024 44.1831C165.383 44.1445 165.23 44.7372 164.482 44.368C163.451 43.8591 163.996 42.8455 162.534 42.8216C162.558 42.599 162.77 41.9772 162.491 41.8037C162.115 42.2917 162.406 42.8373 162.057 43.3069C161.882 43.5426 161.503 43.7304 161.226 43.8067C160.578 43.9847 160.485 44.3258 160.591 43.3495C160.11 44.2151 158.637 43.8591 157.76 43.772C156.335 43.6303 154.821 43.3606 153.455 42.9037C152.191 42.4809 151.517 41.7546 150.475 41.0938C150.081 40.8438 149.893 40.9393 149.328 40.7842C148.77 40.631 148.227 40.3342 148.489 39.6508ZM151.496 24.323C151.711 24.1934 151.866 26.1273 151.605 26.4886C151.128 25.7336 150.281 24.626 151.496 24.323ZM152.183 23.5516C152.875 22.9255 152.394 24.5426 152.268 24.8139C152.011 24.6496 151.755 24.4853 151.499 24.321C151.826 24.1204 151.907 23.8013 152.183 23.5516ZM178.283 20.9454C184.675 22.2866 191.007 24.7936 196.134 28.9194C200.803 32.6773 204.098 38.0091 205.946 43.6807C207.864 49.5676 207.219 56.0989 202.657 60.6044C200.253 62.9775 197.079 64.4094 194.054 65.8066C192.604 66.4759 191.112 67.0336 189.657 67.6875C188.612 68.1572 187.336 68.9086 186.143 68.7784C186.752 68.1382 187.634 68.1251 188.371 67.7337C189.26 67.2604 189.987 66.3522 190.754 65.7035C191.515 65.0594 193.204 63.0312 194.374 63.5221C194.211 62.4418 195.442 61.94 195.997 61.2275C196.584 60.4738 196.626 59.5924 197.707 59.3456C196.546 58.4371 196.902 56.7234 197.154 55.4866C197.477 53.9048 197.627 52.4526 197.754 50.843C197.984 47.941 198.169 44.2443 196.565 41.6931C196.045 40.8647 195.383 40.1034 194.918 39.243C194.359 38.2062 194.482 37.2934 194.482 36.1567C193.46 36.844 193.244 35.4425 192.812 34.7595C192.487 34.247 192.061 33.9606 191.957 33.3158C191.881 32.8465 192.39 32.7673 192.111 32.2754C191.768 32.5339 191.632 32.9345 191.459 33.3063C191.143 33.18 191.515 32.7401 191.334 32.5971C191.329 32.5932 190.719 32.3284 190.75 32.3667C190.357 31.8696 190.231 31.0445 190.039 30.4527C189.32 30.8167 189.455 30.7738 188.653 30.1657C188.512 30.0587 187.807 29.5671 187.74 29.4064C187.43 28.6549 187.974 29.1001 187.822 28.6337C187.385 27.2941 184.936 27.5474 184.742 25.5401C183.547 26.2985 183.092 25.224 182.386 24.4598C181.662 23.6769 180.448 23.3758 180.513 22.1341C180.137 22.2627 179.761 22.391 179.386 22.519C179.581 21.3731 177.879 21.4461 177.262 20.8649C177.605 20.8691 177.945 20.8959 178.283 20.9454ZM179.257 91.914C179.849 91.3841 179.669 92.0891 180.05 92.0086C180.376 91.9395 180.441 91.693 180.753 91.6174C182.041 91.3062 183.966 91.6973 185.321 91.6302C186.889 91.5526 189.578 91.8783 190.325 93.7134C190.775 94.8186 190.088 94.4426 189.331 94.3604C188.744 94.2969 188.222 94.4157 187.641 94.4099C187.354 94.454 187.068 94.4498 186.783 94.3964C186.644 94.3048 186.562 94.1758 186.536 94.0096C185.728 93.8872 184.87 94.3653 183.975 94.3892C182.78 94.421 181.718 94.1919 180.811 93.3855C180.45 93.9232 180.204 94.1899 179.555 94.2501C179.538 94.2518 178.905 93.9965 178.806 93.971C178.677 93.9373 178.348 94.2099 178.098 94.132C178.542 93.4244 178.607 92.4949 179.257 91.914ZM260.84 98.3003C261.05 97.5669 261.227 96.8239 261.419 96.0856C264.367 99.4422 266.948 103.936 268.109 108.24C268.863 111.038 270.037 116.106 266.441 117.549C263.512 118.724 261.879 114.511 261.138 112.437C259.502 107.856 259.502 102.961 260.84 98.3003ZM128.922 45.7046C128.959 45.6971 127.013 46.8292 127.654 45.9125C127.912 45.5439 128.889 45.2847 129.322 45.2847L128.922 45.7046ZM127.049 46.1844C126.824 46.3739 126.596 46.5611 126.367 46.7457C126.146 46.3975 125.926 46.0493 125.706 45.701C126.14 45.5178 127.985 45.3803 127.049 46.1844ZM125.677 81.3835C125.27 81.1076 124.947 81.2542 124.825 81.7173C124.825 81.2565 125.064 80.186 125.433 80.0613C125.672 79.9804 124.641 78.7613 124.931 78.4422C125.667 78.864 125.226 79.2682 125.442 79.8129C125.539 80.0586 125.832 80.291 125.896 80.4799C126.005 80.8003 126.444 81.9023 125.677 81.3835ZM123.682 78.6402C123.265 78.7469 123.995 79.4355 123.994 79.7399C123.994 79.97 123.717 80.1467 123.603 80.4615C123.356 81.1439 123.781 81.6048 123.081 82.1255C123.081 80.6304 122.078 76.6689 124.006 75.9404C123.066 75.1997 123.838 74.3449 124.575 75.2312C125.284 76.0834 124.832 78.3456 123.682 78.6402ZM122.677 72.7405C122.298 71.3967 121.157 70.9267 119.854 71.0062C119.903 70.3183 120.425 69.3262 120.801 70.5663C120.956 70.1998 121.064 69.7216 121.417 69.4788C122.011 71.343 124.976 72.373 123.13 74.393C122.979 73.8422 122.832 73.2904 122.677 72.7405ZM119.232 71.1064C112.368 71.6042 102.73 73.0285 97.2366 67.7667C93.6549 64.3358 93.8461 58.9928 96.7408 55.1809C98.3925 53.0058 100.647 51.474 102.912 50.015C103.786 49.4517 104.526 49.0799 105.486 48.7563C105.641 48.7396 105.787 48.7743 105.924 48.8603C105.978 48.6286 106.108 48.4571 106.316 48.3452C106.687 48.1468 107.214 48.0762 107.428 47.6644C107.2 48.4375 107.083 49.2334 106.999 50.0333C106.814 49.818 106.63 49.6026 106.445 49.3873C106.291 50.844 104.773 49.9623 103.867 50.1443C104.464 50.9704 104.891 51.2705 104.942 52.3623C104.497 51.5415 103.568 51.0018 102.703 50.7373C103.173 52.1257 103.505 52.9498 103.032 54.4723C102.461 54.1463 102.423 53.3635 101.73 53.1759C101.547 54.0838 101.515 55.0912 101.281 55.9723C99.5079 55.1636 99.6808 57.3417 100.393 58.4194C100.771 58.9928 100.957 59.6566 101.295 60.207C102.124 61.5571 101.494 59.5381 102.415 59.634C102.208 61.058 102.136 61.1997 103.179 62.2424C104.196 63.2593 104.723 64.6703 105.811 65.6256C106.126 65.2231 105.631 64.8018 105.587 64.4166C106.6 64.5865 107.074 65.6014 108.047 64.7023C108.471 65.5294 108.93 66.4402 109.947 66.6101C109.275 65.333 111.237 66.199 111.74 66.3803C112.122 66.5178 112.805 66.6271 112.953 66.6801C113.782 66.9796 113.213 66.4422 113.716 67.4237C114.455 67.2008 114.734 66.5878 115.618 67.1056C116.336 67.5268 116.338 68.2482 116.502 68.9872C116.673 68.5038 116.846 68.0207 117.035 67.5438C117.228 67.625 118.037 68.5152 117.949 68.5195C119.842 68.4265 119.775 69.6022 119.232 71.1064ZM109.594 47.0066C109.974 46.7398 110.438 47.0949 110.865 46.9994C111.456 46.8675 111.792 46.3612 112.452 46.3068C112.269 46.894 111.924 46.839 111.632 47.3002C111.533 47.4573 111.584 47.8343 111.496 47.9246C110.756 48.6826 110.5 48.064 109.745 47.4903C109.811 48.1822 109.944 48.4008 109.292 48.5864C108.702 48.7546 107.728 48.1351 107.431 47.6598C107.681 47.1578 109.139 47.326 109.594 47.0066ZM114.304 45.9252C114.945 45.9864 114.173 47.8775 113.254 46.043C113.6 45.9678 113.95 45.9285 114.304 45.9252ZM117.6 45.5596C118.611 45.3535 121.983 44.3925 122.358 45.9661C122.425 45.9269 122.676 45.0386 122.793 45.1469C123.26 45.5812 123.312 46.1569 123.276 46.7601C122.712 45.5845 122.913 46.6171 122.53 46.5366C122.43 46.5153 122.278 46.7019 122.025 46.625C121.693 46.5238 121.456 45.8185 121.246 45.5796C120.898 46.0771 120.466 46.7176 119.768 46.6744C119.274 46.6439 118.478 45.3721 119.118 46.7644C118.742 46.6403 118.308 46.3595 117.889 46.4158C117.421 46.479 117.177 46.9415 116.738 47.0161C115.765 47.181 115.618 46.2443 114.986 45.7357C115.858 45.685 116.739 45.7351 117.6 45.5596ZM123.716 45.5446C123.787 45.2219 124.672 45.0916 124.897 45.1941C125.447 45.4438 125.244 45.7734 125.143 46.3219C124.735 46.1288 124.327 45.936 123.919 45.7429C124.528 46.7235 123.424 46.8658 123.716 45.5446ZM294.947 102.981C294.875 100.631 294.806 98.2404 294.211 95.9527C293.794 94.3516 292.77 91.4806 290.832 91.2028C287.911 90.7835 286.293 96.5575 285.475 98.5396C285.311 96.206 285.454 93.7222 284.573 91.5075C283.867 89.7326 282.084 88.0517 280.549 90.0448C279.182 91.8187 278.92 94.4373 278.56 96.5716C278.094 99.3372 277.814 102.124 277.474 104.906C276.139 102.328 275.906 99.3758 274.852 96.6956C273.856 94.1667 272.29 91.7513 270.782 89.5019C269.55 87.6645 268.051 85.937 266.121 84.8138C264.441 83.8362 261.504 82.7787 259.903 84.4024C258.567 85.757 258.776 87.5699 258.846 89.2793C258.877 90.0406 258.996 90.5626 258.326 90.9462C257.998 91.1347 257.483 91.0372 257.122 91.138C256.539 91.3006 256.092 91.5762 255.6 91.9424C252.145 94.5103 250.552 99.1378 250.06 103.264C249.436 108.491 251.473 112.972 253.227 117.755C253.506 118.518 254.394 120.135 254.271 120.986C254.137 121.918 252.967 121.942 252.177 121.962C249.792 122.02 247.299 121.843 244.926 121.621C239.276 121.092 233.631 118.372 228.572 115.943C227.649 115.5 226.343 115.247 225.59 114.549C224.881 113.893 224.695 112.842 224.083 112.089C222.583 110.243 221.627 108.667 219.418 107.552C217.168 106.416 214.872 105.367 212.677 104.123C209.962 102.584 207.454 100.635 204.853 98.9114C200.019 95.7098 195.217 92.2 190.092 89.4776C187.71 88.2123 185.049 88.0075 182.576 86.9716C180.168 85.9629 177.213 85.9616 174.7 86.5985C173.476 86.9091 172.643 87.6448 171.517 88.125C170.198 88.6879 169.122 88.0667 167.961 87.3948C166.187 86.3684 164.429 84.696 166.955 83.5888C167.811 83.213 168.885 83.0707 169.634 82.4799C170.431 81.8505 171.072 80.6893 171.721 79.9009C173.163 78.1483 174.024 76.1305 176.135 75.0407C178.47 73.8353 181.237 73.5073 183.726 72.7196C186.423 71.8663 189.063 70.8517 191.71 69.8555C196.478 68.0606 201.436 66.1228 204.862 62.1718C207.818 58.7631 209.106 54.3633 208.986 49.8946C208.742 40.759 203.849 31.4876 196.828 25.7758C188.218 18.7719 177.265 16.4363 166.389 16.5587C161.285 16.6163 155.194 17.2843 150.936 20.3854C147.257 23.0639 146.645 27.7487 147.192 31.9776C147.414 33.6939 148.173 35.9587 146.963 37.4711C146.285 38.3171 145.069 38.5266 144.157 39.0542C143.01 39.7169 141.999 40.3522 140.7 40.7027C135.184 42.1925 129.373 41.6738 123.732 41.5913C114.336 41.4538 104.705 43.9978 97.6953 50.6188C92.0348 55.9651 90.3372 66.0465 97.2409 71.2586C102.819 75.4691 111.568 75.006 118.144 74.2716C120.184 74.0434 121.586 73.7122 121.591 76.2075C121.596 78.9331 121.145 81.7818 121.84 84.4577C122.935 88.6719 126.985 88.7723 130.565 87.8648C132.454 87.3859 134.28 86.6659 136.074 85.9118C138.705 84.8059 141.117 83.1797 143.715 82.0757C145.477 81.3275 146.796 83.7472 148.359 82.0698C148.647 81.7599 148.701 81.2978 149.136 81.139C149.819 80.8906 150.963 81.7618 151.562 82.0374C152.458 82.4501 153.362 82.7535 153.72 83.7472C154.055 84.6767 153.908 86.1547 153.587 87.0718C152.89 89.0649 151.012 88.6709 149.298 88.5377C146.309 88.305 143.339 87.8118 140.351 87.6046C137.67 87.4187 135.159 88.2199 132.846 89.5421C127.989 92.3192 124.014 96.7362 119.803 100.369C117.635 102.238 115.54 104.258 113.183 105.886C112.158 106.593 111.048 107.244 110.157 108.124C109.273 108.996 109.176 109.79 108.873 110.951C108.335 113.018 105.661 114.029 103.99 115.12C101.627 116.662 99.1209 117.751 96.4714 118.697C90.8603 120.701 85.205 122.101 79.3389 123.136C76.4668 123.642 73.6186 123.975 70.7184 124.249C68.2186 124.484 65.5603 125.254 63.0635 124.639C63.7827 123.473 65.0569 122.772 66.0493 121.871C67.3288 120.708 68.417 119.331 69.3853 117.904C71.2702 115.125 72.5921 112.144 72.8958 108.774C73.1694 105.74 72.8556 102.112 71.0253 99.5492C70.3931 98.6639 69.1424 98.423 68.5765 97.6258C68.014 96.8331 68.2284 95.4686 67.9205 94.5444C67.1363 92.1938 64.8091 89.2809 62.7611 87.9158C60.5392 86.4342 57.2889 85.8899 54.7221 86.662C49.9671 88.0922 47.0463 93.1737 44.8705 97.2808C43.6819 94.7797 45.6724 91.0692 43.3505 89.0211C41.3921 87.2933 39.8377 90.6402 39.1826 92.072C36.1078 98.7935 35.4096 105.923 34.1213 113.114C33.5963 112.597 33.8653 111.269 33.9147 110.651C34.0065 109.502 33.998 108.375 34.0003 107.221C34.0065 104.306 34.5485 101.377 34.3001 98.4649C34.1566 96.7814 33.6198 93.2313 31.1737 93.7906C29.0992 94.2652 27.7998 97.1823 27.148 98.9657C26.2078 101.538 25.9908 104.085 26.0493 106.802C26.114 109.805 25.5419 112.758 25.4033 115.757C25.134 121.581 25.4001 127.354 27.0712 132.975C29.8076 142.179 36.0993 149.827 44.4966 154.445C49.1231 156.99 54.2557 158.6 59.5327 158.946C62.3924 159.133 65.153 158.793 67.9881 158.498C70.786 158.206 73.5986 158.071 76.3916 157.728C82.6117 156.966 88.6727 154.996 94.3263 152.347C97.3024 150.952 100.101 149.239 103.028 147.752C104.203 147.156 104.996 146.409 105.999 145.58C106.992 144.757 107.268 144.693 108.398 144.693C108.066 143.806 109.034 143.533 109.464 142.971C109.44 143.244 109.416 143.516 109.392 143.788C109.72 143.076 110.026 143.083 110.308 143.808C110.588 142.996 110.795 142.16 111.132 141.368C112.423 142.021 112.314 143.573 114.039 142.44C115.46 141.507 116.767 140.407 118.215 139.493C121.515 137.41 124.36 134.7 127.669 132.641C127.669 134.646 127.811 136.669 127.543 138.664C127.288 140.561 126.579 142.334 126.016 144.15C124.977 147.501 124.905 151.082 123.754 154.399C123.278 155.773 122.037 156.921 121.682 158.259C121.319 159.623 122.157 160.716 120.753 161.612C119.763 162.243 118.526 162.51 117.43 162.892C115.757 163.475 114.17 164.297 112.542 164.995C104.908 168.266 97.4616 171.597 90.3885 175.996C83.6761 180.17 76.861 184.48 70.6948 189.437C65.3432 193.74 59.9335 199.302 58.6308 206.32C57.3667 213.127 60.7347 220.434 67.4975 222.676C71.0139 223.842 74.9892 223.697 78.6511 223.748C82.5915 223.802 86.7669 222.853 90.6409 222.165C94.7323 221.44 98.7534 220.304 102.857 219.656C106.793 219.034 110.404 217.645 114.277 216.788C118.401 215.876 122.631 215.381 126.778 214.561C128.646 214.191 130.475 213.646 132.347 213.304C134.397 212.93 136.469 212.789 138.499 212.293C142.435 211.331 146.205 209.78 150.159 208.885C151.936 208.482 153.687 207.943 155.465 207.567C157.103 207.221 158.378 206.301 160.019 207.057C161.345 207.667 162.402 208.714 163.657 209.443C165.284 210.39 167 211.237 168.696 212.051C172.105 213.687 175.641 214.817 179.205 216.045C182.949 217.335 186.625 218.806 190.504 219.658C194.48 220.532 198.536 220.775 202.54 221.466C210.74 222.88 218.87 223.515 227.194 223.566C231.401 223.593 235.607 223.094 239.805 223.153C243.52 223.205 246.751 224.043 250.148 222.068C255.578 218.911 261.875 214.157 261.741 207.251C261.62 200.996 257.868 195.02 254.349 190.087C250.075 184.096 243.982 179.877 238.01 175.745C231.645 171.341 224.496 168.298 217.806 164.453C214.385 162.487 211.23 160.372 207.515 158.975C205.742 158.308 204.012 157.535 202.259 156.817C200.849 156.239 198.813 155.92 197.606 154.962C196.853 154.364 196.78 153.458 196.582 152.569C196.141 150.601 195.449 148.735 194.778 146.837C193.483 143.173 192.622 139.441 192.066 135.598C191.535 131.934 190.357 128.124 190.967 124.401C194.98 128.282 199.102 132.013 203.207 135.791C204.746 137.207 206.256 138.653 207.802 140.06C208.963 141.116 210.415 142.686 212.034 142.999C214.1 143.4 213.345 141.113 214.764 140.759C215.632 140.543 218.248 142.747 218.933 143.182C223.28 145.941 228.093 147.69 232.873 149.568C237.886 151.537 243.041 153.287 248.436 153.783C253.418 154.241 258.513 153.653 263.321 152.295C272.897 149.592 279.943 143.178 285.114 134.864C291.006 125.389 295.294 114.291 294.947 102.981Z" fill="black"/>
<path fill-rule="evenodd" clip-rule="evenodd" d="M148.601 82.3267C148.599 82.3295 148.584 82.3609 148.584 82.3609C148.602 82.3484 148.608 82.337 148.601 82.3267Z" fill="black"/>
<path fill-rule="evenodd" clip-rule="evenodd" d="M149.063 82.4491C149.027 82.1472 148.949 81.8518 148.83 81.5625C148.513 82.0651 148.23 82.2803 148.646 82.8125C148.785 82.6914 148.923 82.5702 149.063 82.4491Z" fill="black"/>
<path fill-rule="evenodd" clip-rule="evenodd" d="M171.143 154.275C171.498 153.897 170.877 153.755 170.642 153.75C170.665 154.155 170.465 155.125 171.018 155.312C170.885 154.946 170.927 154.6 171.143 154.275Z" fill="black"/>
<path fill-rule="evenodd" clip-rule="evenodd" d="M161.789 75.326C161.18 76.5027 162.526 76.8678 163.306 76.2993C163.892 75.8719 164.239 74.7823 164.335 74.0832C164.647 71.8211 163.064 69.668 162.274 67.6609C162.07 67.1421 161.791 65.3629 161.134 65.3139C160.38 65.2577 160.324 66.8965 160.314 67.3194C160.285 68.5944 160.623 69.893 161.019 71.0966C161.445 72.3942 162.501 73.9516 161.789 75.326Z" fill="black"/>
<path fill-rule="evenodd" clip-rule="evenodd" d="M164.688 70.6063C167.03 72.6919 168.904 69.2182 168.74 67.1634C168.7 66.6542 168.356 64.7772 167.39 65.4604C166.905 65.8035 167.319 66.9187 167.087 67.4083C165.967 69.7822 164.888 66.1001 164.134 65.8109C163.216 65.4588 163.124 66.6648 163.125 67.3094C163.127 68.589 163.736 69.7588 164.688 70.6063Z" fill="black"/>
<path fill-rule="evenodd" clip-rule="evenodd" d="M156.185 70.9302C156.737 70.0614 157.415 68.8962 157.49 67.8554C157.607 66.2376 156.664 66.3726 155.888 67.5014C155.34 68.2987 154.929 69.6512 153.719 69.3151C152.225 68.9005 152.681 66.892 151.845 65.9375C149.734 68.7738 153.73 74.7961 156.185 70.9302Z" fill="black"/>
<path fill-rule="evenodd" clip-rule="evenodd" d="M159.35 79.6101C160.224 79.7989 162.501 79.7292 161.712 78.392C160.717 76.7073 157.408 79.19 159.35 79.6101Z" fill="black"/>
<path fill-rule="evenodd" clip-rule="evenodd" d="M189.947 29.375C190.107 28.8989 189.887 28.8124 189.506 28.4375C189.145 28.7707 189.608 29.1212 189.947 29.375Z" fill="black"/>
<path fill-rule="evenodd" clip-rule="evenodd" d="M206.238 115.609C206.814 115.701 207 115.396 206.794 114.695C205.885 114.636 205.7 114.941 206.238 115.609Z" fill="black"/>
<path fill-rule="evenodd" clip-rule="evenodd" d="M174.774 42.0469C175.409 42.3375 175.166 42.9336 175.155 43.4375C175.482 43.0817 176.144 42.4313 175.875 41.9203C175.46 41.1324 174.376 41.8651 174.774 42.0469Z" fill="black"/>
<path fill-rule="evenodd" clip-rule="evenodd" d="M153.125 32.1296C153.028 31.9406 152.931 31.7515 152.834 31.5625C152.44 31.8792 151.83 32.7168 152.458 33.125C152.715 32.8129 152.937 32.4811 153.125 32.1296Z" fill="black"/>
<path fill-rule="evenodd" clip-rule="evenodd" d="M160.751 37.6887C161.541 38.3088 161.162 36.4055 161.138 36.25C161.021 36.4733 160.351 37.3754 160.751 37.6887Z" fill="black"/>
<path fill-rule="evenodd" clip-rule="evenodd" d="M160.312 36.7221C160.252 36.5648 160.191 36.4076 160.131 36.25C159.81 36.5468 159.418 37.1528 159.947 37.5C160.092 37.2568 160.214 36.9976 160.312 36.7221Z" fill="black"/>
<path fill-rule="evenodd" clip-rule="evenodd" d="M165.335 43.2583C165.399 43.318 165.464 43.3776 165.528 43.4375C165.789 42.9114 165.493 42.5161 165 42.5C165.035 42.7954 165.147 43.0482 165.335 43.2583Z" fill="black"/>
<path fill-rule="evenodd" clip-rule="evenodd" d="M144.145 102.448C144.459 102.235 144.744 101.991 145 101.718C144.072 101.15 144.628 102.38 143.51 101.625C143.27 101.958 143.663 102.702 144.145 102.448Z" fill="black"/>
<path fill-rule="evenodd" clip-rule="evenodd" d="M183.157 154.062C183.51 153.521 183.574 153.536 183.092 153.125C182.69 153.795 182.731 153.623 183.157 154.062Z" fill="black"/>
<path fill-rule="evenodd" clip-rule="evenodd" d="M109.375 67.8364C109.567 68.0369 109.759 68.2373 109.952 68.4375C110.041 68.1753 110.531 67.4342 110.198 67.1875C109.924 67.4038 109.649 67.6201 109.375 67.8364Z" fill="black"/>
<path fill-rule="evenodd" clip-rule="evenodd" d="M116.21 69.8194C115.904 69.7682 115.17 69.5443 115 69.8296C115.449 70.1975 116.462 69.8616 116.21 69.8194Z" fill="black"/>
</svg>
