<svg width="14" height="14" viewBox="0 0 14 14" fill="none" xmlns="http://www.w3.org/2000/svg">
<path d="M8.75058 11.158C9.24815 11.3025 9.76372 11.3755 10.2818 11.375C11.1151 11.3762 11.9375 11.1862 12.6858 10.8197C12.7079 10.2968 12.5589 9.78102 12.2615 9.35044C11.9641 8.91986 11.5345 8.59796 11.0377 8.43355C10.5409 8.26913 10.004 8.27115 9.50843 8.43931C9.01287 8.60747 8.58565 8.9326 8.2915 9.36542M8.75058 11.158V11.1562C8.75058 10.507 8.58375 9.89625 8.2915 9.36542M8.75058 11.158V11.2198C7.62795 11.896 6.34177 12.2522 5.03125 12.25C3.6715 12.25 2.39925 11.8737 1.31308 11.2198L1.3125 11.1562C1.31205 10.3305 1.58644 9.52813 2.09241 8.87557C2.59837 8.22302 3.30713 7.75742 4.10695 7.55218C4.90677 7.34695 5.75215 7.41375 6.5098 7.74205C7.26746 8.07036 7.8943 8.64149 8.2915 9.36542M7.00058 3.71875C7.00058 4.24089 6.79316 4.74165 6.42395 5.11087C6.05474 5.48008 5.55398 5.6875 5.03183 5.6875C4.50969 5.6875 4.00893 5.48008 3.63972 5.11087C3.2705 4.74165 3.06308 4.24089 3.06308 3.71875C3.06308 3.1966 3.2705 2.69585 3.63972 2.32663C4.00893 1.95742 4.50969 1.75 5.03183 1.75C5.55398 1.75 6.05474 1.95742 6.42395 2.32663C6.79316 2.69585 7.00058 3.1966 7.00058 3.71875ZM11.8131 5.03125C11.8131 5.43736 11.6518 5.82684 11.3646 6.11401C11.0774 6.40117 10.6879 6.5625 10.2818 6.5625C9.87572 6.5625 9.48624 6.40117 9.19908 6.11401C8.91191 5.82684 8.75058 5.43736 8.75058 5.03125C8.75058 4.62514 8.91191 4.23566 9.19908 3.94849C9.48624 3.66133 9.87572 3.5 10.2818 3.5C10.6879 3.5 11.0774 3.66133 11.3646 3.94849C11.6518 4.23566 11.8131 4.62514 11.8131 5.03125Z" stroke="black" stroke-linecap="round" stroke-linejoin="round"/>
</svg>
