<svg width="14" height="14" viewBox="0 0 14 14" fill="none" xmlns="http://www.w3.org/2000/svg">
<path d="M11.3367 4.48414C12.0526 5.17332 12.4548 6.10797 12.4548 7.08254C12.4548 8.0571 12.0526 8.99176 11.3367 9.68094M4.27273 4.45754L7.70546 1.15354C7.78174 1.08021 7.87889 1.03028 7.98463 1.01006C8.09038 0.989844 8.19997 1.00024 8.29958 1.03994C8.39919 1.07964 8.48435 1.14686 8.54429 1.23311C8.60423 1.31936 8.63627 1.42077 8.63637 1.52454V12.6405C8.63627 12.7443 8.60423 12.8457 8.54429 12.932C8.48435 13.0182 8.39919 13.0854 8.29958 13.1251C8.19997 13.1648 8.09038 13.1752 7.98463 13.155C7.87889 13.1348 7.78174 13.0849 7.70546 13.0115L4.27273 9.70754H2.64364C2.00364 9.70754 1.40437 9.35264 1.23418 8.75974C1.0782 8.21334 0.99943 7.64919 1 7.08254C1 6.50154 1.08146 5.93944 1.23418 5.40534C1.40437 4.81174 2.00364 4.45754 2.64364 4.45754H4.27273Z" stroke="#060606" stroke-width="1.5" stroke-linecap="round" stroke-linejoin="round"/>
</svg>
