<svg width="80" height="80" viewBox="0 0 80 80" fill="none" xmlns="http://www.w3.org/2000/svg">
<rect width="80" height="80" fill="#D9D9D9"/>
<path d="M40.0001 37.5C36.8076 37.5 33.7644 37.9999 31.0156 39.2499C32.6369 42.4999 36.0426 45 40.0001 45C43.9576 45 47.3626 42.4999 48.9851 39.2499C46.2351 37.9999 43.1926 37.5 40.0001 37.5Z" fill="#0E80AC"/>
<path d="M31.0155 41.7499C23.8015 44.9999 18.5702 51.75 17.6562 60C17.6562 62.75 19.7385 65 22.5 65H57.5C60.2625 65 62.345 62.75 62.345 60C61.43 51.75 56.1975 44.9999 48.985 41.7499C47.3625 44.9999 43.9575 47.5 40 47.5C36.0425 47.5 32.6368 44.9999 31.0155 41.7499Z" fill="#D35400"/>
<path d="M31.0155 39.2499C23.8015 42.4999 18.5702 49.25 17.6562 57.5C17.6562 60.25 19.7385 62.5 22.5 62.5H57.5C60.2625 62.5 62.345 60.25 62.345 57.5C61.43 49.25 56.1975 42.4999 48.985 39.2499C47.3625 42.4999 43.9575 45 40 45C36.0425 45 32.6368 42.4999 31.0155 39.2499Z" fill="#E67E22"/>
<path d="M40 37.5C37.1325 37.5 34.397 38.08 31.875 39.0625C34.2262 40.6025 36.9925 41.5625 40 41.5625C43.015 41.5625 45.77 40.61 48.125 39.0625C45.6025 38.08 42.8675 37.5 40 37.5Z" fill="#116180"/>
<path d="M52.5 27.5C52.5 30.8152 51.183 33.9946 48.8388 36.3388C46.4946 38.683 43.3152 40 40 40C36.6848 40 33.5054 38.683 31.1612 36.3388C28.817 33.9946 27.5 30.8152 27.5 27.5C27.5 24.1848 28.817 21.0054 31.1612 18.6612C33.5054 16.317 36.6848 15 40 15C43.3152 15 46.4946 16.317 48.8388 18.6612C51.183 21.0054 52.5 24.1848 52.5 27.5Z" fill="#0E80AC"/>
<path d="M31.0155 39.2499C30.2225 39.7499 29.492 39.9999 28.75 40.4999C30.7882 44.4999 35.1025 47.5 40 47.5C44.8975 47.5 49.2125 44.4999 51.25 40.4999C50.5075 39.9999 49.7775 39.7499 48.985 39.2499C47.3625 42.4999 43.9575 45 40 45C36.0425 45 32.6368 42.4999 31.0155 39.2499Z" fill="#D35400"/>
</svg>
