<svg width="265" height="380" viewBox="0 0 265 380" fill="none" xmlns="http://www.w3.org/2000/svg">
<path fill-rule="evenodd" clip-rule="evenodd" d="M142.062 189.217L142.142 189.227C143.304 189.453 145.23 192.794 146.019 193.744C148.562 196.807 151.105 199.87 153.649 202.934C154.666 204.16 156.134 205.447 156.859 206.866C157.417 207.957 157.609 209.462 157.942 210.632C162.077 225.165 166.122 239.791 169.134 254.607C169.783 257.795 170.398 261.007 170.758 264.244C170.936 265.844 171.404 268.195 170.711 269.741C169.929 271.484 167.414 272.208 165.78 272.749C162.602 273.8 159.274 274.426 155.981 274.988C148.048 276.342 140.015 277.128 131.997 277.764C129.548 277.958 127.026 277.955 124.592 278.286C123.43 278.444 123.778 278.13 123.412 278.915C122.902 280.006 123.24 282.284 123.179 283.474C123.037 286.273 122.894 289.072 122.752 291.871L121.585 314.775C121.19 322.516 120.796 330.257 120.401 337.997C120.252 340.93 120.103 343.863 119.954 346.796C119.874 348.363 120.111 350.388 119.693 351.905C119.377 353.053 119.897 352.715 118.497 352.783C115.254 352.94 111.894 352.546 108.651 352.429C104.972 352.297 101.293 352.165 97.613 352.033C96.5623 351.995 95.3882 352.294 94.9647 351.537C94.4492 350.615 94.8418 348.079 94.8055 347.05C94.7033 344.18 94.6012 341.311 94.4991 338.441C94.2189 330.564 93.9386 322.687 93.6584 314.811C93.276 304.068 92.8932 293.325 92.5109 282.582C88.4198 283.41 84.3282 284.238 80.2366 285.065C74.1911 286.288 68.1452 287.511 62.0993 288.734C59.3265 289.295 56.0335 290.575 53.1703 290.162C50.3264 289.752 49.1508 288.531 48.9911 285.817C48.8197 282.908 48.8865 279.977 48.9253 277.065C48.9891 272.303 49.1251 267.542 49.3042 262.783C57.3819 262.052 65.4601 261.32 73.5377 260.589C77.8389 260.199 82.1406 259.81 86.4412 259.42C87.4174 259.332 89.8238 259.522 90.2594 258.782C90.937 257.632 90.1829 253.851 90.1626 252.551L89.97 240.256L89.2638 195.019C91.1978 195.083 93.1318 195.141 95.0658 195.195C103.48 195.434 111.936 195.78 120.352 195.519C124.573 195.389 128.572 194.245 132.557 192.894C134.676 192.176 136.773 191.394 138.853 190.572C139.508 190.314 141.435 189.089 142.142 189.227L142.062 189.217ZM130.734 231.312L126.435 252.445L141.145 251.465L130.734 231.312Z" fill="#5CA91A"/>
<path fill-rule="evenodd" clip-rule="evenodd" d="M253.595 59.9164C253.295 62.267 253.509 64.8297 250.869 65.4493C248.426 66.0232 245.745 65.8623 243.254 66.0631C240.455 66.2893 237.664 66.5981 234.871 66.8763C231.35 67.227 231.852 65.8666 231.082 62.8434C230.378 60.0827 229.256 57.3274 228.322 54.6349C227.888 53.3835 227.369 52.2322 226.777 51.0528C226.241 49.9852 226.496 48.5329 225.918 47.6356C223.947 44.5739 214.331 52.9462 213.438 51.296C215.065 50.0227 217.881 48.5981 218.38 46.4191C218.967 43.8584 217.348 43.0938 215.314 44.0301C210.309 46.335 204.532 48.1365 199.073 48.9765C200.839 47.7902 216.806 38.4407 211.448 35.6675C210.24 35.0425 208.627 36.219 207.538 36.664C205.809 37.3707 204.003 37.8444 202.199 38.3075C200.297 38.7953 198.391 39.2646 196.479 39.7082C195.138 40.0195 192.747 41.125 191.441 40.8522C190.114 40.5749 192.464 39.7471 192.849 39.5521C194.527 38.7024 196.178 37.7895 197.815 36.8649C200.721 35.2244 203.405 33.3241 205.615 30.7877C207.283 28.8738 210.037 24.6945 208.876 22.0481C208.203 20.5141 206.728 19.0964 205.862 17.6431C204.851 15.9457 204.034 14.1364 203.156 12.3679C204.626 13.0177 206.276 13.184 207.777 13.7672C209.278 14.3509 210.802 14.8231 212.363 15.257C215.495 16.1271 218.618 16.2817 221.722 16.9875C225.235 17.7861 228.896 18.6791 232.466 19.1406C235.573 19.5419 238.368 20.3969 241.031 22.1002C246.469 25.5797 250.242 30.5781 252.15 36.7594C253.268 40.3804 253.54 44.1585 253.671 47.9259C253.81 51.8981 254.101 55.9617 253.595 59.9164ZM223.076 60.2087C219.278 62.9912 214.851 65.1658 210.776 67.5329C208.444 68.887 206.062 70.1525 203.684 71.422C201.996 72.3227 199.945 73.9802 198.087 74.4423C196.912 74.7346 196.999 74.757 196.256 73.6797C195.545 72.651 194.924 71.5435 194.258 70.4842C193.032 68.531 191.793 66.585 190.555 64.639C187.778 60.2768 185.007 55.9155 182.09 51.6462C179.164 47.3622 176.357 42.9995 173.522 38.6547C172.204 36.6348 170.894 34.6072 169.496 32.6427C168.428 31.1428 165.691 28.8549 166.991 27.0889C168.198 25.4483 170.949 24.0855 172.576 22.8438C174.564 21.3278 176.564 19.8274 178.547 18.3036C182.809 15.0279 186.96 11.6097 191.219 8.3296C194.833 14.7015 199.085 20.6751 203.373 26.5991C199.495 29.0869 195.577 31.4516 191.49 33.5814C188.472 35.1543 183.854 37.2798 181.947 40.2637C180.069 43.2018 181.914 46.5918 185.262 46.6458C187.264 46.6779 189.26 46.1448 191.223 45.8404C192.64 45.6205 195.227 44.5938 196.504 45.3175C194.208 46.7902 185.877 51.0825 190.368 54.8455C193.578 57.5356 199.005 53.6101 202.472 54.418C201.415 56.4568 200.317 59.7092 203.25 60.8181C205.692 61.7412 208.887 60.021 211.084 59.1085C212.672 58.4495 214.25 57.7681 215.811 57.0488C217.052 56.4763 218.539 55.3168 219.865 55.0697C221.413 54.7813 224.564 59.1173 223.076 60.2087ZM152.481 210.483C154.653 210.085 155.769 209.182 156.453 211.833C157.066 214.209 157.674 216.497 158.464 218.828C155.07 219.123 152.076 220.752 149.601 223.043C147.839 224.676 144.334 228.572 145.203 231.306C147.314 237.95 157.976 223.046 159.243 221.453C160.794 223.732 161.365 226.715 162.136 229.321C162.684 231.175 164.721 234.731 162.029 235.182C158.25 235.815 151.159 237.229 151.608 242.609C152.137 248.96 160.174 248.924 164.683 249.209C167.225 249.37 167.236 251.418 167.598 253.709C167.76 254.734 168.266 256.118 167.4 256.869C166.632 257.535 164.278 257.553 163.278 257.769C160.362 258.398 157.447 259.039 154.532 259.668C151.221 260.382 149.471 259.382 146.377 258.471C145.231 258.133 144.08 258.276 143.996 256.987C143.944 256.195 144.714 254.972 144.967 254.189C145.965 251.093 146.816 247.906 147.103 244.655C147.52 239.931 146.999 232.848 141.212 231.926C138.459 231.487 137.929 231.344 136.686 228.747C135.342 225.939 133.208 223.338 133.724 220.102C134.097 217.758 133.467 213.322 134.956 211.377C135.644 210.478 136.985 209.942 137.901 209.282C139.068 208.441 140.192 207.54 141.279 206.598C142.194 205.806 143.309 204.258 144.346 203.686C145.613 202.987 145.651 203.464 146.561 204.556C147.904 206.169 150.039 210.931 152.481 210.483ZM158.622 220.979C157.869 222.506 156.129 223.927 155.02 225.202C153.905 226.484 152.85 227.84 151.607 229.002C150.238 230.282 145.377 233.372 146.448 229.212C147.281 225.977 150.4 223.356 153.145 221.741C153.676 221.428 159.896 218.394 158.622 220.979ZM163.94 236.383C164.422 238.549 164.681 240.781 165.092 242.963C165.303 244.078 166.47 246.772 165.995 247.844C165.189 249.662 157.936 247.51 156.432 246.885C152.854 245.395 151.211 241.573 154.511 238.85C155.763 237.818 163.458 234.218 163.94 236.383ZM168.694 262.394C169.098 264.462 170.28 266.378 168.327 267.942C166.704 269.239 164.047 270.125 162.048 270.587C159.323 271.216 158.448 269.682 157.005 267.708C155.455 265.586 153.804 263.535 152.092 261.542C157.47 260.332 162.848 259.122 168.227 257.912C168.224 259.418 168.405 260.918 168.694 262.394ZM155.807 271.99C153.002 271.844 149.984 272.692 147.14 272.916C143.587 273.194 140.045 273.6 136.489 273.84C137.4 270.918 139.036 268.313 140.316 265.553C141.6 262.784 142.502 262.484 145.456 262.27C148.193 262.073 150.123 261.126 152.143 263.46C154.245 265.887 156.148 268.525 158.067 271.099C157.414 271.538 156.634 272.033 155.807 271.99ZM135.758 272.586C135.066 273.093 132.932 271.652 132.212 271.373C130.813 270.83 130.503 270.655 129.773 269.283C129.146 268.103 128.148 266.763 127.951 265.417C127.692 263.642 128.473 261.306 128.758 259.543C129.515 261.378 132.001 261.591 133.681 261.892C134.951 262.119 138.715 261.757 139.673 262.666C140.731 263.671 138.783 266.473 138.275 267.529C137.669 268.788 136.921 271.734 135.758 272.586ZM134.402 274.042C133.569 274.177 131.172 275.01 131.22 273.481C131.274 271.734 134.572 273.618 134.402 274.042ZM130.178 273.95C130.026 275.421 126.878 275.299 126.805 274.005C126.683 271.819 130.42 271.601 130.178 273.95ZM126.578 234.288C125.773 236.593 120.87 237.417 118.987 238.127C117.268 238.774 112.131 241.766 110.358 240.681C116.36 236.534 122.51 232.471 127.595 227.177C127.803 228.485 127.486 229.577 127.103 230.815C126.757 231.932 126.935 233.267 126.578 234.288ZM125.085 242.692C124.222 248.336 123.374 254.056 122.206 259.644C119.979 258.96 118.142 257.574 115.802 257.091C113.667 256.65 111.461 256.639 109.309 256.961C104.721 257.647 100.631 259.928 96.6286 262.151C96.2589 258.28 95.4933 254.137 95.5838 250.252C95.6588 247.025 101.152 246.07 103.644 244.737C105.152 243.93 106.515 242.796 108.232 242.515C110 242.225 111.705 242.234 113.451 241.693C117.579 240.413 121.463 238.383 125.507 236.87C125.838 238.808 125.378 240.782 125.085 242.692ZM121.229 266.582C121.045 267.865 121.276 270.155 120.304 271.133C119.388 272.054 117.431 272.084 116.223 272.333C112.543 273.095 108.867 273.863 105.192 274.648C103.548 274.999 101.904 275.335 100.253 275.649C99.4659 275.798 97.491 276.557 96.828 275.927C96.1989 275.329 96.6673 273.419 96.7012 272.617C96.7689 271.016 96.859 269.41 96.7588 267.808C96.5671 264.736 96.7375 263.559 99.5821 261.97C102.604 260.281 105.726 259.125 109.127 258.499C112.571 257.865 115.852 258.212 119.131 259.54C120.043 259.91 121.411 260.366 121.836 261.355C122.413 262.7 121.423 265.218 121.229 266.582ZM117.086 316.105C115.737 316.955 112.802 316.81 111.252 316.983C108.75 317.26 106.232 317.102 103.747 316.714C101.876 316.422 99.0836 316.018 97.6497 314.697C95.6123 312.821 97.9633 312.735 99.5225 312.867C104.056 313.25 108.646 312.983 113.174 312.653C114.056 312.589 116.426 311.811 117.276 312.175C118.363 312.641 118.03 315.509 117.086 316.105ZM114.515 346.423C106.07 345.598 101.173 338.568 98.1104 331.382C96.4665 327.523 97.0593 323.475 96.8972 319.395C96.8677 318.649 96.4021 316.8 97.1643 316.243C97.8805 315.72 100.778 317.337 101.561 317.53C105.579 318.52 110.021 318.615 114.047 317.653C115.791 317.237 116.768 316.463 117.322 318.2C117.768 319.599 117.036 322.178 116.956 323.644C116.818 326.18 117.213 346.686 114.515 346.423ZM97.6439 346.431C97.6115 345.199 96.9935 332.756 97.5931 332.718C99.3749 336.582 101.205 340.038 104.449 342.88C106.106 344.333 107.969 345.642 110.041 346.422C110.82 346.714 115.232 346.937 115.448 347.908C115.826 349.607 112.814 348.921 111.921 348.783C111.204 348.672 110.559 348.365 109.856 348.236C108.516 347.992 107.251 348.32 105.905 348.348C103.861 348.389 101.854 348.174 99.8085 348.352C97.9391 348.514 97.6937 348.298 97.6439 346.431ZM98.8905 290.616C106.121 288.267 112.163 292.716 115.979 298.539C118.155 301.859 118.641 304.181 118.261 308.113C118.124 309.52 118.376 310.473 117.088 311.047C115.814 311.615 112.919 311.193 111.541 311.258C107.576 311.444 103.626 311.692 99.6609 311.456C97.0854 311.302 96.7215 310.864 96.766 308.351C96.8193 305.325 96.5691 302.314 96.3987 299.284C96.2143 296.006 95.0945 291.849 98.8905 290.616ZM96.5246 286.259C96.5289 284.036 96.3963 281.755 96.5313 279.536C96.6659 277.336 97.5974 277.445 99.6638 277.069C104.139 276.256 108.608 275.346 113.022 274.243C114.768 273.808 116.741 272.971 118.561 272.964C120.469 272.957 120.368 273.943 120.241 275.642C119.958 279.405 119.272 283.113 119.063 286.856C118.838 290.896 118.72 294.988 118.738 299.032C118.744 300.397 119.075 301.408 117.917 300.13C116.757 298.851 116.19 296.811 115.155 295.373C113.035 292.428 109.884 290.059 106.387 289.062C104.454 288.51 102.42 288.414 100.449 288.814C99.8511 288.935 96.8556 290.372 96.4742 290.088C96.2163 289.896 96.5241 286.349 96.5246 286.259ZM122.975 363.296C125.842 365.36 129.018 367.028 132.233 368.476C134.042 369.291 141.202 371.005 141.43 372.839C141.552 373.817 140.366 374.913 139.589 375.029C138.603 375.176 136.978 374.528 135.974 374.406C132.322 373.96 128.678 373.957 125.115 372.936C118.001 370.895 110.625 370.32 103.437 368.541C101.727 368.118 100.013 367.721 98.2938 367.337C96.661 366.973 95.9293 367.035 95.8717 365.282C95.7444 361.432 96.843 357.488 96.8517 353.591C102.667 354.258 108.501 354.249 114.332 354.798C116.831 355.033 116.773 355.509 117.868 357.704C119.004 359.981 120.938 361.83 122.975 363.296ZM94.6222 238.229C94.5486 236.804 94.4911 235.375 94.3628 233.954C94.2767 232.999 93.409 230.33 93.8982 229.586C94.4794 228.704 95.065 229.243 96.105 229.218C97.476 229.185 98.6239 228.631 99.7543 227.906C101.895 226.533 103.487 224.727 104.876 222.618C106.099 220.762 105.871 218.226 105.856 216.004C105.818 210.258 106.234 204.653 105.885 198.881C105.725 196.23 107.976 197.856 109.795 198.199C112.768 198.76 116.001 198.372 119.023 198.379C118.91 199.086 112.73 200.84 111.732 201.508C109.176 203.216 107.685 205.95 107.918 209.067C108.387 215.337 115.257 216.385 120.277 216.398C116.112 220.099 112.022 223.628 108.749 228.195C106.335 231.562 102.084 238.201 106.03 241.926C102.542 243.917 99.0855 246.132 95.141 247.09C94.9643 244.137 94.7751 241.183 94.6222 238.229ZM93.0388 123.769C94.4586 124.686 95.0558 123.39 96.1364 122.719C97.6584 121.773 98.1622 121.866 98.3553 119.753C98.7124 115.836 97.0728 112.29 95.0142 109.083C94.0787 107.626 93.1452 105.891 91.8246 104.752C90.6205 103.713 89.4034 104.071 88.288 102.998C87.85 102.575 87.9439 101.98 87.2199 101.997C86.7432 102.008 85.5847 103.492 85.1908 103.82C83.9471 104.855 82.4256 105.643 80.7957 104.789C78.4224 103.547 79.1846 99.0385 81.028 97.5779C82.4473 96.4534 84.1247 96.6271 85.7405 96.4457C86.9523 96.31 87.2044 96.363 86.706 94.969C86.3566 93.9929 85.5513 93.2312 85.1535 92.2765C84.3889 90.4434 84.5554 88.2153 84.2253 86.2752C83.9287 84.5369 83.2352 82.6566 83.2604 80.8911C83.2933 78.6431 84.024 78.0589 85.9617 77.4286C87.8389 76.8182 89.3933 75.4724 90.9922 74.3416C92.8021 73.0615 94.7843 72.2162 96.6441 71.0474C97.9067 70.2537 98.7216 68.6492 100.11 69.3986C101.76 70.2892 103.504 72.8674 104.907 74.185C102.854 75.4948 102.377 76.0677 102.66 78.6319C102.92 80.9825 103.396 83.0773 105.184 84.7149C105.87 85.3443 107.151 85.8482 107.684 86.5738C108.305 87.4191 107.901 86.674 107.823 87.6283C107.781 88.1428 107.376 88.4794 107.464 89.0742C107.858 91.7162 110.877 90.1569 112.121 89.2391C116.567 85.96 108.266 83.356 106.295 82.1615C104.933 81.3361 104.26 78.7019 106.417 79.4018C107.852 79.8673 111.093 83.8137 111.423 80.2165C114.98 82.2938 117.176 86.7076 120.16 89.4984C122.311 91.511 125.201 93.7434 123.493 96.9578C121.317 101.055 117.002 102.915 113.063 104.683C109.241 106.397 110.035 111.249 112.077 114.219C113.258 115.936 114.805 116.942 116.666 117.776C118.568 118.628 118.963 119.63 119.378 121.608C119.839 123.801 119.349 124.685 117.46 125.818C115.615 126.925 113.686 127.997 111.716 128.864C107.457 130.737 103.039 130.855 98.5087 131.494C96.9209 131.718 95.3984 132.184 94.5322 130.601C93.558 128.821 93.4864 125.754 93.0388 123.769ZM92.354 115.248C91.2879 114.684 88.7143 116.559 87.3665 116.642C85.1864 116.774 83.7549 116.724 81.8197 117.887C78.1611 120.084 75.1254 122.913 72.1918 125.981C68.8874 129.437 65.602 132.911 62.3088 136.377C60.8164 137.947 59.3162 139.508 57.8 141.055C56.6052 142.273 55.4369 143.987 53.958 144.857C54.035 143.824 54.6651 143.093 54.8886 142.135C55.0188 141.575 54.7914 141.1 54.8756 140.564C54.9032 140.39 55.3682 139.785 55.4389 139.587C55.6276 139.063 55.8584 138.545 56.0825 138.002C56.2916 137.494 56.2611 136.968 56.473 136.437C56.6913 135.891 57.2885 135.529 57.4956 134.99C58.1029 133.415 57.0978 132.684 55.4902 132.721C56.1193 129.568 56.3942 128.026 59.6738 126.914C62.8073 125.852 65.8682 124.659 68.7466 122.999C71.3023 121.525 73.4345 119.401 75.8915 117.759C78.091 116.288 80.8291 114.747 80.8063 111.731C82.0534 112.581 83.2221 113.297 84.6488 112.451C85.8528 111.736 86.0125 111.16 87.4043 111.026C88.5406 110.916 89.2447 110.887 90.2585 111.389C91.4519 111.98 91.615 112.391 92.31 110.652C93.0997 111.32 95.0965 114.103 95.0297 115.205C94.9934 115.812 94.9019 116.086 94.1537 116.246C93.0925 116.472 93.1336 115.661 92.354 115.248ZM87.3825 279.979C86.8637 280.778 84.6768 280.63 83.8324 280.62C81.2578 280.586 80.3577 278.414 79.2282 276.315C77.4473 273.007 74.7857 266.133 77.7072 262.661C80.0131 259.92 84.5045 263.373 86.0778 265.443C87.4362 267.231 87.0326 269.914 87.1589 272.06C87.2654 273.868 88.4075 278.401 87.3825 279.979ZM80.349 281.177C79.3197 282.212 75.979 281.993 74.6153 282.215C72.1811 282.611 69.7605 283.087 67.3989 283.81C65.6407 284.348 63.9029 285.795 63.4393 283.332C63.0502 281.261 63.2438 278.776 63.2811 276.686C63.3212 274.431 63.5559 272.204 63.751 269.959C63.8831 268.441 63.5525 265.647 64.7856 264.482C65.8483 263.478 68.4321 263.381 69.8118 263.048C72.0771 262.502 74.444 261.785 76.7988 262.029C75.4249 265.778 75.3083 269.709 76.7814 273.444C77.2015 274.51 80.9849 280.538 80.349 281.177ZM63.0367 266.244C62.4627 271.883 61.8854 277.557 62.438 283.223C62.4714 283.561 62.8731 285.109 62.6984 285.352C62.5179 285.603 61.0883 285.732 60.7636 285.809C59.4744 286.117 58.1871 286.443 56.8897 286.715C54.3645 287.246 54.035 285.642 53.5394 283.29C52.4781 278.25 54.5358 272.785 55.7825 267.944C56.3898 265.587 56.8399 265.315 59.1458 265.12C60.7505 264.984 63.2806 263.848 63.0367 266.244ZM53.2854 287.28C52.3204 288.162 51.3559 284 51.2707 283.575C50.9334 281.891 51.1212 280.182 51.126 278.471C51.1343 275.798 50.931 273.138 50.9271 270.478C50.9247 269.039 49.8523 266.098 51.5461 265.337C52.0431 265.113 54.0175 265.206 54.4657 265.5C55.3963 266.111 55.0295 266.507 54.7536 267.569C54.1361 269.955 53.6023 272.351 53.0647 274.757C52.5372 277.114 52.017 279.383 52.2681 281.819C52.3509 282.624 53.9004 286.718 53.2854 287.28ZM84.0608 261.008C86.4132 260.342 86.539 262.154 86.5351 263.888C86.1765 263.611 82.8335 261.356 84.0608 261.008ZM52.5943 133.733C52.0179 134.687 48.3671 134.948 47.3237 135.2C45.2714 135.694 43.218 136.184 41.171 136.699C37.3358 137.663 33.595 138.751 29.6635 139.255C31.8223 135.78 32.494 132.78 32.0923 128.444C31.5857 122.969 30.9415 117.55 29.6877 112.191C28.4517 106.907 27.0207 101.658 25.6424 96.4092C24.9654 93.8305 24.2332 91.3008 23.3326 88.7917C22.6106 86.7805 21.483 84.249 22.7083 82.1873C25.8181 84.4678 28.3123 86.925 30.0859 90.3894C31.9864 94.1033 33.6453 97.916 35.8506 101.469C36.8591 103.093 38.0365 104.575 39.1152 106.147C39.7569 107.083 40.2244 108.433 41.0418 109.222C41.984 110.132 42.9886 110.561 43.5273 109.026C44.1051 107.378 42.2618 104.119 41.7178 102.571C40.4039 98.8367 39.1012 95.1096 38.0878 91.2785C37.268 88.1818 35.913 84.4377 36.3926 81.1703C36.8673 77.9354 39.0509 80.2505 40.1557 81.7544C42.4336 84.855 43.7973 88.4692 45.2936 91.9842C46.669 95.2137 48.2732 98.2924 49.7952 101.447C50.3246 102.545 51.0225 105.38 52.4094 105.707C54.4255 106.182 54.2547 103.328 54.0621 102.17C52.7845 94.4934 49.4492 87.1429 48.7572 79.3332C48.7238 78.9602 48.2418 76.0585 48.6294 75.8163C49.381 75.3465 50.3948 78.29 50.719 79.0113C52.4056 82.7626 53.5801 86.7173 54.6578 90.6802C55.5744 94.0503 56.4034 97.4461 57.4322 100.784C57.9974 102.619 58.6454 104.424 59.2842 106.233C59.862 107.873 60.4486 110.675 61.9556 111.755C64.0936 113.288 71.7446 109.644 72.5199 112.901C73.0716 115.217 65.9771 117.082 64.4662 117.785C62.4772 118.711 60.526 119.724 58.5361 120.651C57.0296 121.352 54.8644 121.639 53.7746 122.958C52.6199 124.355 52.4351 126.318 52.4007 128.051C52.3741 129.363 53.2786 132.6 52.5943 133.733ZM47.7593 159.018C47.6581 159.745 47.0827 160.709 46.8238 161.401C46.2968 162.812 45.8487 164.498 45.1155 165.816C44.485 166.951 43.5544 167.966 42.9451 169.119C42.3673 170.212 42.2903 171.473 41.6152 172.567C40.8429 173.818 39.5663 174.718 38.7992 175.961C38.4213 176.575 38.0307 177.275 37.4965 177.928C35.6048 180.242 33.7266 182.425 32.2051 184.903C31.816 185.538 29.9156 188.308 29.1592 188.458C27.5782 188.77 29.4186 186.511 29.7278 186.043C31.968 182.664 33.9574 179.106 36.1197 175.674C38.2141 172.351 40.3575 169.054 42.3731 165.681C44.017 162.931 45.1538 158.984 47.8256 157.046C47.8358 157.705 47.814 158.362 47.7593 159.018ZM120.805 127.959C122.106 133.337 123.663 138.548 125.13 143.877C126.491 148.822 128.302 154.114 128.866 159.211C129.425 164.261 130.71 169.37 132.437 174.164C133.235 176.381 134.057 178.608 134.923 180.8C135.4 182.004 135.932 183.181 136.473 184.357C136.892 185.271 138.001 186.75 138.043 187.719C138.077 188.494 138.345 188.184 137.584 188.767C136.796 189.37 135.43 189.151 134.512 189.258C132.118 189.536 129.783 190.441 127.448 191.028C122.946 192.159 117.58 193.057 112.966 192.27C111.026 191.938 109.01 191.652 107.091 191.22C104.73 190.689 104.245 189.707 103.76 187.374C102.701 182.275 101.788 177.188 100.913 172.055C99.8724 165.948 98.7463 159.849 97.9435 153.704C97.1324 147.489 96.5497 141.267 95.2789 135.118C100.405 135.98 105.233 136.953 110.374 135.542C114.927 134.291 118.214 131.847 120.805 127.959ZM140.872 194.533C142.018 196.908 139.256 199.042 137.918 200.871C136.152 203.282 134.503 205.8 132.45 207.98C131.834 205.503 131.293 202.715 129.65 200.68C127.551 198.081 125.1 199.143 122.529 197.914C125.226 196.595 128.67 197.098 131.531 195.922C134.353 194.762 137.202 193.852 139.828 192.345C140.177 193.074 140.522 193.805 140.872 194.533ZM130.87 249.93C129.147 250.026 130.3 246.372 130.412 245.464C130.719 242.968 131.031 240.472 131.3 237.972C132.722 241.742 134.144 245.512 135.566 249.281C134.003 249.505 132.451 249.842 130.87 249.93ZM128.067 268.001C128.302 268.527 129.398 270.278 128.533 270.6C127.346 271.043 127.203 268.143 128.067 268.001ZM126.01 227.389C120.519 231.796 115.066 236.215 109.124 240.009C107.823 240.84 106.512 241.188 105.649 239.539C104.971 238.243 105.687 236.783 106.122 235.514C107.231 232.279 109.164 229.467 111.305 226.835C115.582 221.577 120.672 217.086 127.168 215.013C128.231 214.674 129.871 213.651 130.243 215.064C130.462 215.895 129.535 217.971 129.347 218.751C128.571 221.973 128.74 225.199 126.01 227.389ZM141.817 259.529C141.938 263.271 131.761 260.253 130.493 259.584C131.823 259.136 141.762 257.847 141.817 259.529ZM145.596 259.553C146.2 259.715 148.519 259.92 147.653 260.717C146.878 261.43 143.367 261.144 142.436 261.232C143.061 259.167 143.536 259.002 145.596 259.553ZM143.71 254.54C143.483 255.373 143.39 256.643 142.648 257.213C141.723 257.924 139.758 257.492 138.711 257.498C136.933 257.507 135.157 257.599 133.388 257.776C132.711 257.844 129.969 258.675 129.334 258.108C128.868 257.692 129.042 255.739 129.381 255.3C130.078 254.398 131.683 254.71 132.689 254.674C136.368 254.542 140.028 254.531 143.71 254.54ZM141.348 240.708C140.828 239.932 140.735 239.941 140.514 238.769C140.277 237.514 139.675 236.441 139.32 235.229C138.541 232.562 141.031 232.799 142.858 233.777C147.595 236.314 146.452 245.18 145.28 249.331C143.577 248.072 142.948 247.501 142.362 245.47C142.139 244.698 141.89 243.94 141.658 243.172C141.488 242.607 141.606 241.095 141.348 240.708ZM141.758 197.558C143.081 197.398 144.291 201.523 143.913 202.416C143.14 204.243 140.184 205.874 138.679 207.04C137.677 207.816 136.682 208.706 135.611 209.382C134.616 210.01 134.044 209.658 133.119 209.959C131.781 210.395 131.457 211.818 130.087 212.43C128.16 213.291 125.825 213.531 123.812 214.309C121.37 215.252 119.132 215.277 116.572 214.83C112.889 214.188 108.573 212.351 108.905 207.854C109.49 199.918 125.168 195.852 129.444 202.581C130.557 204.332 130.539 206.373 131.262 208.255C132.044 210.291 132.803 209.491 133.98 207.991C135.52 206.029 136.951 203.962 138.43 201.953C138.909 201.304 140.803 197.675 141.758 197.558ZM45.6769 274.822C45.6019 276.171 45.6822 277.54 45.2152 278.828C44.7449 280.127 43.791 281.177 43.2417 282.439C42.1282 284.997 42.1364 288.091 42.181 290.832C42.2845 297.209 43.7867 303.402 44.5813 309.703C41.9366 309.696 39.2028 309.727 36.6394 308.966C34.3499 308.287 33.9845 306.605 33.337 304.486C31.5189 298.533 29.5551 292.605 28.9681 286.371C28.6888 283.4 28.5712 280.405 28.4377 277.425C28.321 274.81 28.9051 273.67 31.2532 272.375C36.3568 269.561 41.6472 267.218 46.6985 264.27C46.1821 267.768 45.8734 271.293 45.6769 274.822ZM263.552 65.8905C262.309 65.6614 261.055 65.5179 259.801 65.3676C259.147 65.2888 257.108 65.3983 256.618 64.9698C256.036 64.4596 257.045 60.6022 257.096 59.7744C257.412 54.7964 257.045 49.6647 256.591 44.7057C255.769 35.7283 252.96 27.4113 246.48 20.947C243.254 17.7292 239.628 15.1762 235.223 13.9442C232.657 13.2264 230.012 12.8436 227.44 12.1476C225.365 11.5854 223.429 10.9419 221.274 10.7191C216.975 10.2746 213.045 8.64184 208.849 7.69731C205.763 7.00229 200.799 5.35399 198.798 8.85731C197.222 7.00035 195.638 5.60593 193.651 4.22074C191.749 2.89393 191.437 1.56857 189.107 3.10064C184.58 6.0777 180.34 9.70942 176.111 13.0965C172.162 16.2599 168.341 19.5725 164.202 22.4815C159.98 25.4488 160.781 30.4842 162.766 34.6587C166.501 42.516 172.262 49.2333 177.304 55.9685C180.463 60.1878 183.632 64.4124 186.778 68.6399C189.785 72.6807 192.386 77.3571 195.901 80.9874C198.117 83.2757 200.761 80.2831 202.761 78.9004C205.243 77.183 207.682 75.4019 210.167 73.6894C215.341 70.1224 220.879 66.7815 226.342 63.6765C226.739 64.8088 227.136 65.941 227.534 67.0733C226.334 67.1638 224.713 66.8943 224.103 68.191C223.23 70.0431 225.371 70.2863 225.746 71.348C226.081 72.2964 224.707 74.8012 224.3 75.6558C223.386 77.5813 222.109 79.2413 220.703 80.8264C215.14 87.0991 208.099 91.5859 200.956 95.8625C193.311 100.438 185.118 103.232 176.75 106.181C172.494 107.68 168.077 108.376 163.686 109.336C159.454 110.261 155.226 111.476 150.903 111.826C142.056 112.539 132.669 113.074 123.929 111.156C122.973 110.947 121.96 110.492 120.987 110.405C120.207 110.336 119.629 110.665 118.893 110.707C117.311 110.798 116.405 109.376 115.148 110.697C114.52 111.358 114.509 112.467 113.633 111.234C112.518 109.666 115.367 109.362 116.422 108.915C119.976 107.41 122.833 104.381 125.091 101.319C127.347 98.2593 127.672 94.9914 126.298 91.4088C124.924 87.8277 121.801 85.4002 119.455 82.4922C118.321 81.0842 117.277 79.5944 116.032 78.2798C115.367 77.5774 114.295 76.9053 114.254 76.1971C114.205 75.3742 114.695 74.9652 114.402 73.9647C114.326 73.7045 114.001 73.5566 113.932 73.2706C113.822 72.8149 113.992 72.4239 113.935 71.9798C113.803 70.9613 113.406 70.3218 112.843 69.4872C112.493 68.9658 111.98 67.922 111.498 67.5315C110.654 66.8467 109.501 67.1258 108.642 66.4318C107.283 65.3341 106.805 63.0209 105.602 61.6882C103.909 59.8128 103.548 61.7077 101.755 61.1099C100.221 60.5983 100.239 58.2788 98.9999 57.4943C97.2543 56.3892 95.7841 58.4223 94.2341 58.8751C92.1948 59.4709 92.9783 57.1582 91.1606 56.9476C89.5191 56.7569 87.2456 60.1041 86.4267 61.2928C85.5929 60.3157 84.6807 58.6509 83.18 59.2471C81.6048 59.8736 81.3246 62.7879 80.1733 63.8278C79.7721 64.1891 79.8568 64.4562 79.3632 64.6225C78.7259 64.837 77.8766 63.9071 77.0524 64.1906C75.3901 64.7626 75.5929 66.9926 75.5895 68.4371C73.6281 68.1492 72.26 68.0023 71.6033 70.1272C70.9606 72.2069 70.7167 71.2892 68.6489 71.9647C66.8661 72.5469 66.6168 74.2487 66.3226 75.9131C66.1406 76.9481 66.309 77.3707 66.5858 78.3143C66.9352 79.503 66.9353 79.4879 66.3657 80.6226C65.3731 82.6021 65.3136 84.783 65.1549 86.9615C64.9864 89.2863 64.5819 91.4025 65.2391 93.6729C65.6456 95.078 65.6765 96.9899 67.0456 97.7769C67.5886 98.0886 68.5109 97.9179 68.9731 98.2272C69.8553 98.8177 69.5867 99.7165 70.1742 100.579C70.6146 101.224 71.3246 101.286 71.8177 101.81C72.3539 102.379 72.3858 103.073 72.6912 103.768C73.5952 105.827 74.4454 106.822 71.4988 106.94C69.6811 107.013 67.742 107.561 65.9316 107.392C63.795 107.194 63.2636 105.994 62.5837 104.166C59.1565 94.9554 57.3146 84.9717 52.8009 76.2127C51.8098 74.2896 47.7419 66.4328 46.0224 72.1573C44.5726 76.9855 46.4749 82.8779 47.2042 87.6837C44.9157 85.6103 44.0693 81.876 42.3315 79.3444C41.0481 77.4743 37.029 72.8815 34.6732 75.5133C32.8163 77.5877 33.2804 81.9859 33.623 84.4659C34.1646 88.3889 35.4117 92.17 36.3026 96.0177C35.1808 94.543 34.6277 92.742 33.8495 91.0815C32.8734 88.9993 31.6553 87.0232 30.2674 85.1935C29.0547 83.5943 27.6987 82.108 26.2285 80.7447C25.1048 79.7019 23.0921 77.4199 21.4961 77.2963C17.3889 76.9797 18.6805 84.553 19.3063 86.7183C20.6027 91.206 22.0086 95.5697 23.0152 100.148C24.9828 109.092 27.3662 117.83 28.8156 126.888C29.1365 128.897 29.5231 130.5 28.7329 132.43C28.0365 134.131 27.314 136.165 26.0291 137.473C23.1207 140.434 20.7058 143.597 18.532 147.165C16.2033 150.987 13.8063 154.853 11.9054 158.911C11.0315 160.777 10.3167 162.796 9.31203 164.592C8.40513 166.212 7.31482 167.493 6.67022 169.287C3.58997 177.861 1.30918 186.284 0.264843 195.362C-0.592691 202.815 0.206288 212.729 9.15862 214.473C13.2711 215.274 16.9635 213.441 20.6719 211.928C24.5076 210.364 27.2811 207.82 30.4097 205.117C34.2972 201.758 38.3332 198.606 42.2618 195.303C46.1923 191.998 49.8228 188.334 53.732 184.993C57.5934 181.693 61.0864 178.188 64.4256 174.356C67.7381 170.555 70.4288 166.343 73.6358 162.489C73.6237 167.479 72.8867 172.424 72.6801 177.408C72.4908 181.978 72.4865 186.543 72.6699 191.11C72.8533 195.674 71.6536 200.019 71.644 204.574C71.6338 209.017 71.4586 213.434 71.3618 217.872C71.3183 219.863 70.9301 222.097 71.6701 224.017C72.2227 225.452 73.9596 225.9 75.4414 226.287C77.7314 226.884 84.6212 225.734 85.6437 228.193C86.2022 229.535 85.6399 231.978 85.6834 233.461C85.756 235.904 85.8451 238.347 85.9283 240.79C86.0144 243.314 86.0981 245.837 86.1896 248.36C86.2709 250.583 86.7011 253.059 86.4345 255.26C86.2066 257.146 85.1124 256.899 83.3784 256.996C80.7613 257.142 78.1432 257.258 75.5246 257.373C71.6836 257.542 67.6752 257.465 63.9929 257.921C62.4463 258.112 60.7564 258.031 59.125 258.343C57.0789 258.734 55.1892 258.833 53.114 258.936C51.4411 259.02 49.2905 258.897 47.9761 260.141C47.5202 260.572 47.4181 261.086 47.0948 261.566C46.4894 262.465 46.8263 262.229 45.8327 262.431C41.9525 263.221 38.2674 264.113 34.4728 265.442C32.5734 266.107 30.8109 267.001 28.9027 267.627C27.2302 268.175 26.0044 268.851 25.1779 270.501C23.7009 273.449 24.075 277.713 24.1819 280.889C24.3503 285.845 25.4455 290.563 26.6268 295.355C27.8555 300.341 28.819 305.461 31.2092 310.041C31.9946 311.547 32.8424 313.467 34.4467 314.251C36.5179 315.264 39.7032 314.65 41.9637 314.654C43.4808 314.656 47.5444 315.18 48.6783 313.902C49.7763 312.663 48.6715 309.171 48.5166 307.635C47.9732 302.25 46.9952 296.815 47.0082 291.393C48.2456 293.231 50.3914 296.404 52.5386 293.588C53.0671 292.895 52.8609 292.573 53.7993 292.171C54.3186 291.949 55.4127 291.813 55.978 291.851C56.7469 291.903 57.0315 292.214 57.738 292.062C58.3633 291.927 59.0665 291.364 59.7836 291.193C68.6721 289.069 77.5093 286.781 86.4359 284.889C88.7961 284.388 88.4607 286.21 88.6166 288.261C88.7888 290.529 88.4602 292.82 88.7733 295.063C89.0458 297.015 89.2578 298.917 88.874 300.881C88.4215 303.197 88.7129 305.129 89.1634 307.422C90.8998 316.266 90.5896 325.857 90.9811 334.846C91.1848 339.527 90.7473 344.306 91.1853 348.962C91.3508 350.721 92.3274 351.693 92.7232 353.293C93.1777 355.13 91.9383 357.469 91.5613 359.248C90.8039 362.82 89.4731 367.933 91.9073 371.041C93.2217 372.72 94.945 372.963 96.8909 373.53C99.2196 374.21 101.515 375.002 103.855 375.645C112.403 377.997 121.641 378.457 130.403 379.754C132.548 380.071 134.538 380.041 136.698 379.891C138.028 379.798 141.307 380.238 142.413 379.437C143.006 379.009 142.706 378.472 143.007 377.949C143.435 377.204 143.954 376.902 144.682 376.439C145.889 375.672 147.285 375.224 147.489 373.642C147.987 369.765 143.167 367.711 140.59 366.035C137.297 363.892 133.319 363.065 129.824 361.316C127.896 360.351 126.035 359.257 124.178 358.163C123.372 357.688 121.739 357.15 121.177 356.403C120.604 355.64 121.165 354.552 121.402 353.462C122.382 348.959 122.051 344.354 122.557 339.803C123.064 335.244 122.926 330.658 123.093 326.076C123.265 321.358 123.653 316.651 123.951 311.94C124.225 307.588 124.501 303.167 124.547 298.811C124.59 294.772 125.138 290.809 125.267 286.743C125.311 285.363 125.065 282.86 125.976 281.692C126.776 280.666 129.423 280.795 130.657 280.615C133.985 280.13 137.151 279.704 140.441 279.412C148.269 278.715 156.981 278.202 164.383 275.46C167.436 274.329 171.498 272.784 172.511 269.26C173.676 265.21 172.155 260.231 172.105 256.09C172.051 251.668 170.776 247.354 169.82 243.07C168.79 238.457 168.141 233.766 167.029 229.171C166.008 224.955 164.352 221.221 162.786 217.218C162.151 215.595 158.533 210 159.655 208.62C160.26 207.877 162.437 207.689 163.32 207.349C165.224 206.617 167.131 205.784 168.887 204.742C171.231 203.349 176.363 201.046 176.6 197.952C176.825 194.995 173.934 192.007 172.465 189.685C170.097 185.943 167.111 182.671 164.857 178.855C160.3 171.143 156.676 162.696 153.354 154.386C151.616 150.038 151.049 145.943 150.763 141.303C155.809 141.315 160.946 141.939 165.96 141.23C171.418 140.457 176.882 139.157 182.292 138.086C192.143 136.134 201.601 133.93 210.727 129.535C219.272 125.42 227.944 120.916 235.019 114.383C238.678 111.006 242.41 107.563 245.569 103.7C248.815 99.7326 251.256 95.2244 253.76 90.7697C256.524 85.853 258.724 80.6858 260.463 75.3076C260.813 74.2264 260.815 72.8494 261.263 71.8281C261.768 70.6749 262.687 70.6447 263.647 70.0373C264.996 69.1827 265.895 66.3228 263.552 65.8905Z" fill="black"/>
<path fill-rule="evenodd" clip-rule="evenodd" d="M146.061 10.8513C147.215 11.8475 152.187 15.3566 153.793 14.5033C155.774 13.45 152.637 10.277 151.793 9.49474C150.718 8.49953 146.877 5.48875 145.406 5.76823C142.467 6.32721 145.023 9.95464 146.061 10.8513Z" fill="black"/>
<path fill-rule="evenodd" clip-rule="evenodd" d="M148.517 46.866C149.169 45.5765 150.903 45.1024 151.704 43.8546C152.669 42.3544 153.112 41.0417 152.756 39.2021C150.287 40.0374 147.479 42.5656 145.827 44.5427C144.447 46.1948 142.486 49.6474 146.088 49.6561C146.057 49.1646 146.026 48.6726 145.994 48.1816C147.074 48.3395 148.026 47.8378 148.517 46.866Z" fill="black"/>
<path fill-rule="evenodd" clip-rule="evenodd" d="M136.757 25.4119C138.349 25.8717 139.662 25.8066 141.288 25.8426C142.468 25.869 144.08 26.5209 145.037 25.7862C144.188 25.2922 145.26 25.2649 145.05 24.7832C144.874 24.3817 144.539 24.5133 144.267 24.1882C143.295 23.03 142.45 23.0442 140.91 22.8033C139.717 22.6158 137.962 22.1833 136.815 22.7797C135.608 23.4074 135.141 24.9448 136.757 25.4119Z" fill="black"/>
<path fill-rule="evenodd" clip-rule="evenodd" d="M159.411 60.9355C160.44 60.0678 161.562 57.5554 161.77 56.2593C161.852 55.7514 161.487 55.3623 161.531 54.9885C161.614 54.2763 163.07 52.8992 161.545 52.3148C160.211 51.8032 158.957 55.7778 158.617 56.645C158.269 57.532 157.322 59.2598 157.613 60.118C157.854 60.8298 158.716 61.5209 159.411 60.9355Z" fill="black"/>
<path fill-rule="evenodd" clip-rule="evenodd" d="M171.724 7.14128C172.655 6.27248 173.244 5.28718 173.148 4.09245C173.071 3.15133 172.37 -0.0933562 171.581 0.0020611C168.961 0.319951 170.139 8.62075 171.724 7.14128Z" fill="black"/>
<path fill-rule="evenodd" clip-rule="evenodd" d="M116.408 152.208C116.193 151.414 115.409 146.564 114.054 146.894C113.024 147.145 114.093 151.414 114.141 151.976C114.242 153.151 111.995 153.112 110.95 152.953C109.294 152.702 109.427 151.726 109.18 150.213C109.086 149.641 108.728 147.057 107.541 148.003C106.739 148.643 107.313 151.83 107.379 152.557C107.611 155.076 107.882 159.376 109.372 161.664C109.966 162.576 110.5 163.026 111.124 161.856C111.756 160.673 110.326 157.064 110.076 155.853C111.255 155.969 114.649 155.585 115.359 156.816C116.007 157.939 114.97 161.149 117.05 161.41C118.285 161.564 118.061 160.127 117.942 159.022C117.693 156.704 117.016 154.447 116.408 152.208Z" fill="black"/>
<path fill-rule="evenodd" clip-rule="evenodd" d="M119.569 151.086C118.203 151.706 119.919 160.753 121.918 160.461C124.251 160.12 120.871 150.494 119.569 151.086Z" fill="black"/>
<path fill-rule="evenodd" clip-rule="evenodd" d="M118.046 148.09C117.878 150.127 120.511 150.886 120.636 148.673C120.732 146.965 118.224 145.948 118.046 148.09Z" fill="black"/>
<path fill-rule="evenodd" clip-rule="evenodd" d="M103.592 94.0835C104.794 98.5871 115.737 100.503 114.263 94.4292C113.524 91.388 110.441 94.0896 108.288 93.7359C106.895 93.5071 102.745 90.9078 103.592 94.0835Z" fill="black"/>
<path fill-rule="evenodd" clip-rule="evenodd" d="M100.844 86.0505C101.358 83.6405 96.114 80.9808 94.2112 81.6442C91.4274 82.615 91.4394 88.8219 93.5629 90.4722C93.8424 90.6895 94.699 91.2073 95.1184 90.7945C95.7806 90.1416 95.0573 90.3197 94.9025 89.6679C94.6574 88.6313 93.8553 87.3005 94.6541 86.1211C96.1642 83.8931 100.107 89.5033 100.844 86.0505Z" fill="black"/>
<path fill-rule="evenodd" clip-rule="evenodd" d="M84.8533 97.747C82.9625 97.6402 81.4122 100.59 84.1939 100.343C84.7267 100.296 85.8713 100.161 86.1804 99.5983C86.692 98.666 85.6846 97.7938 84.8533 97.747Z" fill="black"/>
<path fill-rule="evenodd" clip-rule="evenodd" d="M176.58 27.4221C175.933 26.4811 174.576 24.9668 173.409 25.9106C172.374 26.7476 172.555 28.8134 172.952 29.8399C174.02 32.6035 176.543 35.0655 179.398 33.4733C178.406 31.4758 177.847 29.2642 176.58 27.4221Z" fill="black"/>
</svg>
