<svg width="30" height="30" viewBox="0 0 30 30" fill="none" xmlns="http://www.w3.org/2000/svg">
<path d="M9.02086 13.6334C8.71819 13.0888 8.24324 12.6601 7.67057 12.4146C7.0979 12.1691 6.45993 12.1208 5.8568 12.2771C5.25367 12.4334 4.71952 12.7856 4.33821 13.2784C3.9569 13.7711 3.75 14.3766 3.75 14.9996C3.75 15.6227 3.9569 16.2281 4.33821 16.7209C4.71952 17.2136 5.25367 17.5658 5.8568 17.7221C6.45993 17.8785 7.0979 17.8301 7.67057 17.5846C8.24324 17.3392 8.71819 16.9105 9.02086 16.3659M9.02086 13.6334C9.24586 14.0384 9.37461 14.5034 9.37461 14.9996C9.37461 15.4959 9.24586 15.9621 9.02086 16.3659M9.02086 13.6334L20.9784 6.99087M9.02086 16.3659L20.9784 23.0084M20.9784 6.99087C21.1537 7.32104 21.3931 7.61295 21.6825 7.84953C21.972 8.08611 22.3057 8.26261 22.6641 8.36872C23.0226 8.47482 23.3986 8.5084 23.7702 8.46749C24.1418 8.42658 24.5015 8.312 24.8283 8.13045C25.155 7.9489 25.4424 7.70402 25.6734 7.41014C25.9045 7.11625 26.0746 6.77926 26.1739 6.41885C26.2732 6.05844 26.2996 5.68186 26.2517 5.31112C26.2037 4.94037 26.0823 4.58291 25.8946 4.25962C25.5247 3.62255 24.9196 3.15604 24.2094 2.96039C23.4991 2.76473 22.7405 2.85555 22.0965 3.21331C21.4525 3.57108 20.9746 4.16723 20.7656 4.87361C20.5565 5.58 20.6329 6.34022 20.9784 6.99087ZM20.9784 23.0084C20.7989 23.3313 20.6849 23.6865 20.6427 24.0535C20.6006 24.4206 20.6311 24.7923 20.7326 25.1476C20.8341 25.5028 21.0046 25.8346 21.2343 26.1239C21.464 26.4133 21.7485 26.6546 22.0715 26.834C22.3945 27.0134 22.7496 27.1275 23.1166 27.1696C23.4837 27.2118 23.8554 27.1813 24.2107 27.0797C24.5659 26.9782 24.8977 26.8078 25.1871 26.578C25.4764 26.3483 25.7177 26.0638 25.8971 25.7409C26.2595 25.0886 26.3479 24.3191 26.1429 23.6017C25.9379 22.8842 25.4562 22.2776 24.804 21.9152C24.1517 21.5529 23.3822 21.4645 22.6648 21.6695C21.9473 21.8745 21.3407 22.3561 20.9784 23.0084Z" stroke="#060606" stroke-width="2" stroke-linecap="round" stroke-linejoin="round"/>
</svg>
