<svg width="24" height="24" viewBox="0 0 24 24" fill="none" xmlns="http://www.w3.org/2000/svg">
<path d="M7.21705 10.9068C6.97492 10.4711 6.59496 10.1282 6.13682 9.93178C5.67869 9.7354 5.16831 9.69671 4.68581 9.82177C4.2033 9.94684 3.77598 10.2286 3.47093 10.6228C3.16588 11.017 3.00037 11.5013 3.00037 11.9998C3.00037 12.4982 3.16588 12.9826 3.47093 13.3768C3.77598 13.771 4.2033 14.0527 4.68581 14.1778C5.16831 14.3029 5.67869 14.2642 6.13682 14.0678C6.59496 13.8714 6.97492 13.5285 7.21705 13.0928M7.21705 10.9068C7.39705 11.2308 7.50005 11.6028 7.50005 11.9998C7.50005 12.3968 7.39705 12.7698 7.21705 13.0928M7.21705 10.9068L16.7831 5.59279M7.21705 13.0928L16.7831 18.4068M16.7831 18.4068C16.6395 18.6652 16.5483 18.9493 16.5145 19.2429C16.4808 19.5366 16.5052 19.834 16.5865 20.1182C16.6677 20.4024 16.804 20.6678 16.9878 20.8993C17.1716 21.1307 17.3992 21.3238 17.6576 21.4673C17.9159 21.6108 18.2 21.7021 18.4937 21.7358C18.7873 21.7695 19.0847 21.7451 19.3689 21.6639C19.6531 21.5827 19.9185 21.4463 20.15 21.2625C20.3815 21.0787 20.5745 20.8512 20.7181 20.5928C21.0079 20.071 21.0787 19.4554 20.9147 18.8814C20.7507 18.3075 20.3654 17.8222 19.8436 17.5323C19.3217 17.2424 18.7061 17.1717 18.1322 17.3357C17.5582 17.4997 17.0729 17.885 16.7831 18.4068V18.4068ZM16.7831 5.59279C16.9233 5.85693 17.1148 6.09046 17.3464 6.27972C17.5779 6.46899 17.8449 6.61019 18.1317 6.69507C18.4184 6.77995 18.7192 6.80682 19.0165 6.77409C19.3138 6.74136 19.6015 6.6497 19.863 6.50446C20.1244 6.35922 20.3543 6.16332 20.5391 5.92821C20.7239 5.6931 20.86 5.4235 20.9395 5.13518C21.0189 4.84685 21.0401 4.54559 21.0017 4.24899C20.9633 3.95239 20.8662 3.66642 20.7161 3.40779C20.4201 2.89814 19.936 2.52493 19.3679 2.36841C18.7997 2.21188 18.1928 2.28454 17.6776 2.57075C17.1624 2.85696 16.7801 3.33388 16.6128 3.89899C16.4455 4.4641 16.5067 5.07228 16.7831 5.59279V5.59279Z" stroke="#5B5B5B" stroke-width="2" stroke-linecap="round" stroke-linejoin="round"/>
</svg>
