<svg width="24" height="20" viewBox="0 0 24 20" fill="none" xmlns="http://www.w3.org/2000/svg">
<path d="M3.98008 6.223C3.04454 7.32718 2.3479 8.6132 1.93408 10C3.22608 14.338 7.24408 17.5 12.0001 17.5C12.9931 17.5 13.9531 17.362 14.8631 17.105M6.22808 4.228C7.9407 3.09781 9.94816 2.49682 12.0001 2.5C16.7561 2.5 20.7731 5.662 22.0651 9.998C21.357 12.3673 19.8371 14.4115 17.7721 15.772M6.22808 4.228L3.00008 1M6.22808 4.228L9.87808 7.878M17.7721 15.772L21.0001 19M17.7721 15.772L14.1221 12.122M14.1221 12.122C14.4007 11.8434 14.6217 11.5127 14.7725 11.1486C14.9232 10.7846 15.0008 10.3945 15.0008 10.0005C15.0008 9.6065 14.9232 9.21636 14.7725 8.85235C14.6217 8.48834 14.4007 8.1576 14.1221 7.879C13.8435 7.6004 13.5127 7.3794 13.1487 7.22863C12.7847 7.07785 12.3946 7.00025 12.0006 7.00025C11.6066 7.00025 11.2164 7.07785 10.8524 7.22863C10.4884 7.3794 10.1577 7.6004 9.87908 7.879M14.1211 12.121L9.88008 7.88" stroke="#5B5B5B" stroke-width="2" stroke-linecap="round" stroke-linejoin="round"/>
</svg>
