<svg width="24" height="24" viewBox="0 0 24 24" fill="none" xmlns="http://www.w3.org/2000/svg">
<rect width="24" height="24" rx="12" fill="black"/>
<path d="M14.6673 10.3423C15.6191 11.0251 16.785 11.4268 18.0442 11.4268V8.99497C17.8059 8.99502 17.5682 8.97008 17.3351 8.9205V10.8347C16.0759 10.8347 14.9102 10.433 13.9582 9.75026V14.7129C13.9582 17.1954 11.9528 19.2078 9.47925 19.2078C8.5563 19.2078 7.69845 18.9278 6.98584 18.4475C7.79917 19.2821 8.93342 19.7998 10.1883 19.7998C12.662 19.7998 14.6674 17.7875 14.6674 15.3048V10.3423H14.6673ZM15.5422 7.8889C15.0558 7.35563 14.7364 6.66647 14.6673 5.90458V5.5918H13.9953C14.1645 6.56016 14.7415 7.38748 15.5422 7.8889ZM8.55038 16.5425C8.27863 16.1849 8.13178 15.7475 8.13243 15.2977C8.13243 14.1623 9.04967 13.2417 10.1813 13.2417C10.3922 13.2416 10.6018 13.274 10.8028 13.338V10.8518C10.5679 10.8195 10.3309 10.8058 10.0939 10.8109V12.746C9.89279 12.682 9.68306 12.6495 9.47212 12.6497C8.3405 12.6497 7.42331 13.5702 7.42331 14.7058C7.42331 15.5087 7.88178 16.2038 8.55038 16.5425Z" fill="#FF004F"/>
<path d="M13.9579 9.75021C14.9099 10.4329 16.0756 10.8346 17.3348 10.8346V8.92045C16.6319 8.77021 16.0097 8.4016 15.5419 7.8889C14.7411 7.38742 14.1642 6.56011 13.995 5.5918H12.2297V15.3047C12.2257 16.437 11.3101 17.3539 10.1809 17.3539C9.51547 17.3539 8.92431 17.0356 8.54992 16.5425C7.88137 16.2038 7.4229 15.5086 7.4229 14.7058C7.4229 13.5703 8.34009 12.6497 9.47171 12.6497C9.68852 12.6497 9.89749 12.6836 10.0935 12.746V10.8109C7.66339 10.8613 5.70898 12.854 5.70898 15.3048C5.70898 16.5282 6.19568 17.6372 6.98558 18.4476C7.6982 18.9278 8.55604 19.2078 9.47899 19.2078C11.9526 19.2078 13.9579 17.1954 13.9579 14.7129V9.75021H13.9579Z" fill="white"/>
<path d="M17.3349 8.92065V8.40307C16.7011 8.40403 16.0798 8.2259 15.542 7.88904C16.018 8.41206 16.6449 8.77269 17.3349 8.92065ZM13.9951 5.59199C13.979 5.49945 13.9666 5.40629 13.958 5.31278V5H11.5206V14.713C11.5168 15.8452 10.6011 16.762 9.47185 16.762C9.1403 16.762 8.82727 16.6831 8.55006 16.5427C8.92445 17.0358 9.5156 17.354 10.181 17.354C11.3101 17.354 12.2259 16.4373 12.2299 15.3049V5.59199H13.9951ZM10.0938 10.8111V10.2601C9.89009 10.2322 9.68476 10.2181 9.47918 10.2183C7.00535 10.2182 5 12.2307 5 14.713C5 16.2693 5.78814 17.6409 6.98577 18.4477C6.19586 17.6374 5.70917 16.5282 5.70917 15.3049C5.70917 12.8542 7.66353 10.8615 10.0938 10.8111Z" fill="#00F2EA"/>
</svg>
