<svg width="24" height="24" viewBox="0 0 24 24" fill="none" xmlns="http://www.w3.org/2000/svg">
<rect width="24" height="24" rx="12" fill="url(#paint0_linear_563_973)"/>
<path d="M4.72119 18.9819L5.75012 15.2455C5.11399 14.1488 4.78029 12.9068 4.78376 11.6371C4.78376 7.65856 8.03742 4.42383 12.0315 4.42383C13.9712 4.42383 15.7927 5.17456 17.1588 6.53765C18.5284 7.90074 19.2827 9.71357 19.2792 11.6406C19.2792 15.6191 16.0256 18.8539 12.028 18.8539H12.0245C10.8114 18.8539 9.61905 18.5494 8.55884 17.9751L4.72119 18.9819ZM8.74307 16.6708L8.96207 16.8023C9.88672 17.3489 10.9469 17.6361 12.028 17.6395H12.0315C15.3512 17.6395 18.0556 14.9514 18.0556 11.644C18.0556 10.0422 17.4299 8.5373 16.2932 7.40255C15.1565 6.2678 13.6409 5.64507 12.0315 5.64507C8.71179 5.64161 6.00736 8.32973 6.00736 11.6371C6.00736 12.7684 6.32369 13.872 6.92853 14.8269L7.07105 15.0552L6.46273 17.2659L8.74307 16.6708Z" fill="white"/>
<path d="M4.9751 18.7297L5.96927 15.1213C5.354 14.0661 5.03072 12.8657 5.03072 11.641C5.03419 7.80079 8.17313 4.67676 12.0316 4.67676C13.9053 4.67676 15.6607 5.40328 16.9816 6.71793C18.3026 8.03258 19.0291 9.78314 19.0291 11.6444C19.0291 15.4846 15.8867 18.6086 12.0316 18.6086H12.0282C10.8567 18.6086 9.70611 18.3145 8.68412 17.761L4.9751 18.7297Z" fill="url(#paint1_linear_563_973)"/>
<path d="M4.72119 18.9819L5.75012 15.2455C5.11399 14.1488 4.78029 12.9068 4.78376 11.6371C4.78376 7.65856 8.03742 4.42383 12.0315 4.42383C13.9712 4.42383 15.7927 5.17456 17.1588 6.53765C18.5284 7.90074 19.2827 9.71357 19.2792 11.6406C19.2792 15.6191 16.0256 18.8539 12.028 18.8539H12.0245C10.8114 18.8539 9.61905 18.5494 8.55884 17.9751L4.72119 18.9819ZM8.74307 16.6708L8.96207 16.8023C9.88672 17.3489 10.9469 17.6361 12.028 17.6395H12.0315C15.3512 17.6395 18.0556 14.9514 18.0556 11.644C18.0556 10.0422 17.4299 8.5373 16.2932 7.40255C15.1565 6.2678 13.6409 5.64507 12.0315 5.64507C8.71179 5.64161 6.00736 8.32973 6.00736 11.6371C6.00736 12.7684 6.32369 13.872 6.92853 14.8269L7.07105 15.0552L6.46273 17.2659L8.74307 16.6708Z" fill="url(#paint2_linear_563_973)"/>
<path fill-rule="evenodd" clip-rule="evenodd" d="M10.2203 8.62049C10.0847 8.3195 9.94216 8.31258 9.81355 8.30912C9.70926 8.30566 9.5876 8.30566 9.46593 8.30566C9.34427 8.30566 9.14961 8.35064 8.98275 8.53054C8.8159 8.71044 8.3501 9.14635 8.3501 10.0355C8.3501 10.9211 9.00013 11.7791 9.09051 11.9002C9.18089 12.0213 10.3454 13.8999 12.1843 14.6229C13.7138 15.2249 14.0266 15.1038 14.3568 15.0727C14.6871 15.0415 15.4275 14.6367 15.5804 14.2147C15.7299 13.7926 15.7299 13.4328 15.6847 13.3567C15.6395 13.2806 15.5179 13.2356 15.3371 13.1457C15.1564 13.0557 14.2665 12.6198 14.0996 12.5575C13.9328 12.4987 13.8111 12.4676 13.6929 12.6475C13.5712 12.8274 13.2236 13.2321 13.1193 13.3532C13.0151 13.4743 12.9073 13.4882 12.7265 13.3982C12.5458 13.3083 11.9618 13.118 11.27 12.5022C10.7312 12.0247 10.3663 11.4332 10.262 11.2533C10.1577 11.0734 10.2515 10.9765 10.3419 10.8865C10.4219 10.807 10.5227 10.6755 10.6131 10.5717C10.7034 10.4679 10.7347 10.3918 10.7938 10.2707C10.8529 10.1496 10.8251 10.0458 10.7799 9.9559C10.7347 9.86941 10.3802 8.97683 10.2203 8.62049Z" fill="white"/>
<defs>
<linearGradient id="paint0_linear_563_973" x1="11.9994" y1="23.9988" x2="11.9994" y2="-0.000839698" gradientUnits="userSpaceOnUse">
<stop stop-color="#20B038"/>
<stop offset="1" stop-color="#60D66A"/>
</linearGradient>
<linearGradient id="paint1_linear_563_973" x1="12.0017" y1="18.729" x2="12.0017" y2="4.67627" gradientUnits="userSpaceOnUse">
<stop stop-color="#20B038"/>
<stop offset="1" stop-color="#60D66A"/>
</linearGradient>
<linearGradient id="paint2_linear_563_973" x1="12.0016" y1="18.9805" x2="12.0016" y2="4.42383" gradientUnits="userSpaceOnUse">
<stop stop-color="#F9F9F9"/>
<stop offset="1" stop-color="white"/>
</linearGradient>
</defs>
</svg>
